<svg width="90" height="90" viewBox="0 0 90 90" fill="none" xmlns="http://www.w3.org/2000/svg">
<g clip-path="url(#clip0_363_904)">
<path d="M70.5856 60.0171H66.0856C66.0688 60.9652 65.8339 61.8968 65.3991 62.7396C64.9643 63.5824 64.3414 64.3138 63.5785 64.8771C62.3916 65.7067 60.9525 66.0964 59.5092 65.979C58.0659 65.8617 56.7087 65.2446 55.6714 64.2342C54.5984 63.0988 53.9865 61.6047 53.9549 60.0428H35.8714C35.8696 60.859 35.7006 61.6662 35.3746 62.4146C35.0487 63.1629 34.5729 63.8365 33.9765 64.3937C33.3801 64.951 32.6758 65.3801 31.9071 65.6545C31.1383 65.9289 30.3215 66.0428 29.5071 65.9892C26.9356 65.8799 24.0685 64.1828 23.7214 60.0042H19.2856V23.7856H52.4506V32.7856H53.0935C56.5392 32.7856 59.9785 32.7856 63.4242 32.7856C63.5767 32.7729 63.7294 32.8082 63.8608 32.8866C63.9923 32.9649 64.0959 33.0825 64.1571 33.2228C66.1885 36.7885 68.2242 40.3542 70.2642 43.9199C70.3542 44.0742 70.4699 44.2092 70.5728 44.3571L70.5856 60.0171ZM49.4356 26.8135H22.2942V56.9764C22.9371 56.9764 23.5092 56.9764 24.1071 56.9764C24.253 56.9923 24.4004 56.9648 24.5307 56.8973C24.6611 56.8299 24.7687 56.7254 24.8399 56.5971C25.3929 55.7883 26.1348 55.1266 27.0013 54.6694C27.8678 54.2121 28.8327 53.9732 29.8124 53.9732C30.7922 53.9732 31.7571 54.2121 32.6236 54.6694C33.4901 55.1266 34.232 55.7883 34.7849 56.5971C34.8608 56.7307 34.9728 56.8402 35.1082 56.913C35.2435 56.9858 35.3966 57.0189 35.5499 57.0085C39.9921 57.0085 44.4342 57.0085 48.8828 57.0085H49.4356V26.8135ZM52.4828 56.9764C53.2221 56.9764 53.9164 56.9764 54.6171 56.9764C54.7543 56.9376 54.8716 56.848 54.9449 56.7256C55.4983 55.8862 56.2514 55.1972 57.1366 54.7204C58.0219 54.2437 59.0116 53.9941 60.0171 53.9941C61.0225 53.9941 62.0123 54.2437 62.8975 54.7204C63.7828 55.1972 64.5358 55.8862 65.0892 56.7256C65.1599 56.8414 65.3014 56.9828 65.4106 56.9892C66.1242 56.9892 66.8378 56.9892 67.5449 56.9892V46.4271H52.4828V56.9764ZM52.4828 43.3285H66.4456C65.0764 40.9371 63.7392 38.6035 62.4214 36.2571C62.359 36.1163 62.2542 35.9985 62.1217 35.9201C61.9892 35.8418 61.8355 35.8067 61.6821 35.8199C58.7892 35.8199 55.8964 35.8199 53.0099 35.8199H52.4892L52.4828 43.3285ZM60.0364 56.9956C59.6339 56.984 59.2334 57.0549 58.8595 57.2042C58.4855 57.3534 58.1462 57.5778 57.8624 57.8634C57.5786 58.149 57.3564 58.4897 57.2096 58.8646C57.0627 59.2394 56.9943 59.6404 57.0085 60.0428C57.0443 60.8192 57.378 61.5519 57.9401 62.0886C58.5022 62.6254 59.2495 62.9249 60.0267 62.9249C60.8039 62.9249 61.5512 62.6254 62.1133 62.0886C62.6754 61.5519 63.0091 60.8192 63.0449 60.0428C63.0554 59.6431 62.9849 59.2453 62.8379 58.8735C62.6909 58.5016 62.4703 58.1632 62.1894 57.8787C61.9084 57.5941 61.5729 57.3693 61.203 57.2175C60.833 57.0658 60.4362 56.9903 60.0364 56.9956ZM29.8221 56.9956C29.4198 56.9859 29.0198 57.0581 28.6464 57.208C28.273 57.3578 27.9341 57.5821 27.6502 57.8672C27.3663 58.1523 27.1434 58.4922 26.9951 58.8663C26.8469 59.2403 26.7763 59.6406 26.7878 60.0428C26.8236 60.8192 27.1573 61.5519 27.7194 62.0886C28.2815 62.6254 29.0288 62.9249 29.806 62.9249C30.5832 62.9249 31.3305 62.6254 31.8926 62.0886C32.4547 61.5519 32.7884 60.8192 32.8242 60.0428C32.8382 59.6438 32.7709 59.246 32.6264 58.8738C32.4819 58.5016 32.2631 58.1627 31.9835 57.8777C31.7039 57.5927 31.3692 57.3675 30.9999 57.2158C30.6305 57.0642 30.2342 56.9893 29.8349 56.9956H29.8221Z" fill="#598A18"/>
<path d="M35.8519 29.8029C38.6339 29.7875 41.3082 30.877 43.2875 32.8321C45.2667 34.7873 46.3889 37.4481 46.4076 40.23C46.324 46.7422 41.6569 50.8629 35.8647 50.8693C30.2912 50.8693 25.4183 47.0122 25.309 40.2429C25.2126 34.515 30.0726 29.8029 35.8519 29.8029ZM35.8519 47.8993C37.8424 47.9028 39.7538 47.1198 41.1697 45.7207C42.5857 44.3216 43.3915 42.4198 43.4119 40.4293C43.4068 38.426 42.606 36.5067 41.1859 35.0938C39.7657 33.6808 37.8424 32.8899 35.839 32.895C33.8357 32.9002 31.9164 33.7009 30.5035 35.1211C29.0905 36.5413 28.2996 38.4646 28.3047 40.4679C28.3385 42.4528 29.1516 44.3448 30.5685 45.7352C31.9855 47.1257 33.8924 47.903 35.8776 47.8993H35.8519Z" fill="#598A18"/>
<path d="M32.1685 40.5255C32.8113 40.1977 33.4092 39.8827 34.0135 39.6063C34.1298 39.5656 34.2283 39.4855 34.2917 39.3798C34.3551 39.2741 34.3795 39.1495 34.3606 39.0277C34.3606 37.9927 34.3606 36.9577 34.3606 35.8777H37.3885V36.4048C37.3885 37.8898 37.3885 39.3748 37.3885 40.8663C37.3903 40.9656 37.3705 41.0642 37.3305 41.1552C37.2906 41.2462 37.2314 41.3275 37.157 41.3934C35.9806 42.0363 34.7785 42.602 33.5377 43.2191L32.1685 40.5255Z" fill="#598A18"/>
</g>
<rect x="-1.5" y="1.5" width="87" height="87" rx="43.5" transform="matrix(-1 0 0 1 87 0)" stroke="#598A18" stroke-width="3"/>
<defs>
<clipPath id="clip0_363_904">
<rect width="51.3064" height="42.2164" fill="white" transform="translate(19.2856 23.7856)"/>
</clipPath>
</defs>
</svg>
