<svg width="91" height="90" viewBox="0 0 91 90" fill="none" xmlns="http://www.w3.org/2000/svg">
<g clip-path="url(#clip0_363_910)">
<path d="M19.6187 53.0356C19.9851 52.4442 20.3644 51.8527 20.7179 51.2549C22.2051 48.7563 23.6858 46.2427 25.1601 43.7142C25.223 43.5734 25.3276 43.4553 25.4599 43.3759C25.5921 43.2966 25.7455 43.2598 25.8994 43.2706C38.8551 43.2706 51.8108 43.2706 64.7665 43.2706C64.9196 43.2593 65.0725 43.2951 65.2047 43.3733C65.3368 43.4514 65.4419 43.5681 65.5058 43.7077C67.2544 46.712 69.0072 49.6885 70.7644 52.637C70.8479 52.772 70.9508 52.9006 71.0472 53.0356V53.1385H66.2387V57.2142C66.2387 61.7142 66.2387 66.2142 66.2387 70.7142H24.4529C24.4529 70.5149 24.4529 70.3156 24.4529 70.1099V53.1385H19.6187V53.0356ZM27.4551 67.667H43.8029V49.0242C43.6551 49.1849 43.5522 49.2877 43.4622 49.397C42.5301 50.5092 41.5851 51.6213 40.6658 52.7527C40.5793 52.8711 40.4646 52.9661 40.3322 53.029C40.1997 53.0918 40.0536 53.1206 39.9072 53.1127C35.9601 53.1127 32.0065 53.1127 28.0594 53.1127H27.4551V67.667ZM46.8629 67.667H63.1851V64.8835H54.8729V56.0506H63.2301V53.1256H62.5872C58.6851 53.1256 54.7894 53.1256 50.8937 53.1256C50.7388 53.1337 50.5844 53.1033 50.4441 53.0371C50.3039 52.9709 50.1823 52.871 50.0901 52.7463C49.1901 51.6277 48.2129 50.5285 47.2615 49.4227C47.1522 49.2877 47.0237 49.1656 46.8565 48.9856L46.8629 67.667ZM42.1187 46.3563L41.8487 46.3177C37.1344 46.3177 32.4201 46.3177 27.7058 46.3177C27.6073 46.3275 27.5121 46.3584 27.4267 46.4083C27.3413 46.4583 27.2676 46.526 27.2108 46.607C26.6515 47.5006 26.1244 48.4135 25.5908 49.3199C25.4494 49.5577 25.3208 49.802 25.1729 50.0656C25.2951 50.0656 25.3401 50.0977 25.3915 50.0977C29.8101 50.0977 34.2287 50.0977 38.6472 50.0977C38.8511 50.0788 39.0398 49.9821 39.1744 49.8277C39.6694 49.2813 40.1322 48.7092 40.6015 48.1434L42.1187 46.3563ZM65.5379 50.1427C64.7858 48.857 64.1108 47.7063 63.3972 46.5556C63.3331 46.488 63.255 46.4352 63.1684 46.4008C63.0819 46.3664 62.9888 46.3512 62.8958 46.3563H49.0551C48.9329 46.3563 48.8108 46.3563 48.6244 46.4013C49.6079 47.5585 50.5529 48.6449 51.4594 49.757C51.5538 49.8901 51.6808 49.9966 51.8283 50.0664C51.9758 50.1362 52.1387 50.1669 52.3015 50.1556C56.5122 50.1556 60.7294 50.1556 64.9401 50.1556L65.5379 50.1427ZM63.1979 61.8684V59.1427H57.8687V61.8942L63.1979 61.8684Z" fill="#598A18"/>
<path d="M46.3358 19.2856C46.9401 19.4142 47.5508 19.5106 48.1423 19.6778C50.473 20.3277 52.5088 21.7605 53.9072 23.7352C55.3056 25.7098 55.9813 28.1058 55.8206 30.5202C55.6599 32.9345 54.6726 35.2198 53.0248 36.9917C51.377 38.7636 49.1693 39.9139 46.773 40.2492C46.2595 40.3187 45.7419 40.353 45.2237 40.3521H25.938V37.3756H37.908L37.6187 36.9964C37.0851 36.2506 36.5323 35.5114 36.0308 34.7464C35.9742 34.6398 35.8887 34.5513 35.7841 34.491C35.6795 34.4308 35.56 34.4012 35.4394 34.4056C34.1537 34.4056 32.8294 34.4056 31.5244 34.4056H30.9587V31.4099H34.8544C34.8544 31.2042 34.8544 31.0628 34.8544 30.9214C34.5591 28.1737 35.3584 25.4203 37.0791 23.258C38.7999 21.0956 41.3035 19.6984 44.0473 19.3692C44.144 19.3503 44.2387 19.3223 44.3301 19.2856H46.3358ZM45.333 22.3006C43.8436 22.3006 42.3876 22.7425 41.1494 23.5702C39.9112 24.398 38.9463 25.5744 38.3769 26.9507C37.8075 28.327 37.6592 29.8412 37.9507 31.3018C38.2422 32.7625 38.9605 34.1038 40.0146 35.156C41.0686 36.2083 42.4112 36.9243 43.8723 37.2133C45.3334 37.5023 46.8474 37.3514 48.2227 36.7796C49.598 36.2079 50.7728 35.241 51.5984 34.0014C52.424 32.7618 52.8634 31.3051 52.8608 29.8156C52.8524 27.8229 52.0561 25.9144 50.6458 24.5066C49.2356 23.0987 47.3257 22.3057 45.333 22.3006Z" fill="#598A18"/>
<path d="M43.835 25.1099H46.7985V28.3241H49.1321V31.3199H43.835V25.1099Z" fill="#598A18"/>
</g>
<rect x="-1.5" y="1.5" width="87" height="87" rx="43.5" transform="matrix(-1 0 0 1 87.333 0)" stroke="#598A18" stroke-width="3"/>
<defs>
<clipPath id="clip0_363_910">
<rect width="51.4286" height="51.4286" fill="white" transform="translate(19.6187 19.2856)"/>
</clipPath>
</defs>
</svg>
