<svg width="91" height="90" viewBox="0 0 91 90" fill="none" xmlns="http://www.w3.org/2000/svg">
<g clip-path="url(#clip0_71_746)">
<path d="M19.9521 40.5579C24.3621 40.5579 28.7721 40.5579 33.1821 40.5579C33.3335 40.5802 33.4879 40.5478 33.6175 40.4665C33.7471 40.3852 33.8435 40.2604 33.8893 40.1144C34.455 38.9829 35.0786 37.8772 35.7214 36.6815L32.7579 34.1808L34.6864 31.8729L37.7657 34.4444C40.441 31.707 43.8571 29.8101 47.595 28.9865C46.9007 26.2094 47.4536 24.4029 49.2921 23.2008C50.084 22.6899 51.0163 22.4406 51.9575 22.4878C52.8986 22.5351 53.8012 22.8767 54.5379 23.4644C55.3283 24.1003 55.884 24.9818 56.1169 25.9693C56.3498 26.9567 56.2465 27.9936 55.8236 28.9158C59.59 29.7444 63.0314 31.6574 65.7236 34.4186L68.8093 31.8472L70.7379 34.1551L67.665 36.7265C68.7291 38.235 69.5793 39.8835 70.1914 41.6251C71.8614 46.3873 71.6244 51.6109 69.5301 56.2024C67.4357 60.7939 63.6464 64.3971 58.9555 66.2579C54.2645 68.1187 49.0355 68.0927 44.3633 66.1853C39.6911 64.278 35.9378 60.6371 33.8893 56.0251C33.8449 55.8791 33.75 55.7537 33.6216 55.6713C33.4933 55.5888 33.3398 55.5547 33.1886 55.5751C30.9836 55.5751 28.7786 55.5751 26.5736 55.5751H25.995V52.5858H32.6679L32.1986 49.5579H22.9864V46.5365H32.1986L32.6679 43.5279H19.9521V40.5579ZM68.2693 48.0729C68.2706 44.802 67.302 41.6042 65.4861 38.8837C63.6702 36.1631 61.0885 34.0421 58.0673 32.7886C55.0462 31.5351 51.7212 31.2055 48.5127 31.8414C45.3042 32.4774 42.3563 34.0503 40.0416 36.3614C37.7269 38.6725 36.1494 41.6179 35.5085 44.8254C34.8676 48.0329 35.192 51.3584 36.4408 54.3815C37.6896 57.4046 39.8066 59.9897 42.5244 61.8098C45.2421 63.6299 48.4384 64.6034 51.7093 64.6072C56.0968 64.6072 60.305 62.866 63.4099 59.766C66.5148 56.666 68.2625 52.4605 68.2693 48.0729ZM53.2329 26.9936C53.2079 26.6125 53.0389 26.2551 52.7601 25.994C52.4814 25.7329 52.1137 25.5876 51.7318 25.5876C51.3498 25.5876 50.9822 25.7329 50.7034 25.994C50.4247 26.2551 50.2557 26.6125 50.2307 26.9936C50.2173 27.199 50.2461 27.405 50.3155 27.5988C50.3848 27.7926 50.4932 27.9701 50.6339 28.1203C50.7746 28.2705 50.9446 28.3903 51.1335 28.4721C51.3223 28.554 51.526 28.5962 51.7318 28.5962C51.9376 28.5962 52.1413 28.554 52.3301 28.4721C52.5189 28.3903 52.689 28.2705 52.8297 28.1203C52.9704 27.9701 53.0788 27.7926 53.1481 27.5988C53.2175 27.405 53.2463 27.199 53.2329 26.9936Z" fill="#598A18"/>
<path d="M61.6094 57.3493L56.0037 53.1514C54.1845 51.7886 52.3652 50.4321 50.5652 49.0564C50.389 48.9238 50.2715 48.7278 50.2373 48.51C50.2373 43.9329 50.2373 39.3579 50.2373 34.785C50.2373 34.7207 50.2373 34.6564 50.2373 34.5921C52.9886 34.3002 55.7635 34.8559 58.1903 36.1846C60.6171 37.5134 62.5801 39.5519 63.8163 42.0271C65.0525 44.5024 65.503 47.2962 65.1074 50.0346C64.7119 52.7729 63.4892 55.3251 61.603 57.3493H61.6094ZM53.2523 37.6714C53.2343 37.7103 53.2213 37.7514 53.2137 37.7936C53.2137 40.8793 53.2137 43.9714 53.2137 47.0571C53.2278 47.1492 53.26 47.2376 53.3086 47.3171C53.3571 47.3965 53.421 47.4655 53.4966 47.52C54.943 48.6257 56.4023 49.7121 57.8616 50.805L60.8959 53.0807C64.4059 47.0636 60.7737 38.8029 53.278 37.6714H53.2523Z" fill="#598A18"/>
</g>
<rect x="-1.5" y="1.5" width="87" height="87" rx="43.5" transform="matrix(-1 0 0 1 87.6665 0)" stroke="#598A18" stroke-width="3"/>
<defs>
<clipPath id="clip0_71_746">
<rect width="51.3321" height="45.1093" fill="white" transform="translate(19.9521 22.5)"/>
</clipPath>
</defs>
</svg>
