<svg width="40" height="40" viewBox="0 0 40 40" fill="none" xmlns="http://www.w3.org/2000/svg">
<g clip-path="url(#clip0_611_2324)">
<path d="M30.6598 17.3435L28.8228 14.2559L20.0008 17.2323L11.1623 14.2559L9.34177 17.3102C8.96777 17.9444 8.89627 18.7065 9.14927 19.4019C9.40227 20.0974 9.94677 20.6259 10.6398 20.8651L10.8268 20.9263V26.9068L19.9843 29.9944L29.1473 26.9068V20.9263L29.3783 20.854C30.0658 20.6259 30.5993 20.0974 30.8523 19.4131C31.1053 18.7288 31.0338 17.9722 30.6598 17.3491V17.3435ZM10.0128 19.0793C9.85877 18.6509 9.89727 18.178 10.1338 17.7886L11.5748 15.3686L19.3078 17.9722L17.5203 20.9819C17.1683 21.5772 16.4588 21.8442 15.8098 21.6217L10.9423 19.9805C10.5133 19.8359 10.1778 19.5077 10.0183 19.0793H10.0128ZM19.5278 28.8651L11.7398 26.2392V21.2323L15.5128 22.5007C15.7658 22.5841 16.0188 22.6231 16.2718 22.6231C17.0858 22.6231 17.8558 22.2003 18.3013 21.4548L19.5333 19.3797V28.8595H19.5278V28.8651ZM28.2343 26.2392L20.4463 28.8651V19.3797L21.6838 21.4604C22.2613 22.4339 23.4108 22.8567 24.4723 22.5007L28.2398 21.2323V26.2337H28.2343V26.2392ZM29.9943 19.0904C29.8403 19.5132 29.5103 19.8359 29.0923 19.975L24.1863 21.6273C23.5373 21.8498 22.8278 21.5828 22.4758 20.9875L20.6938 17.9833L28.4213 15.3741L29.8788 17.822C30.1043 18.2058 30.1483 18.6676 29.9943 19.0904Z" fill="#598A18"/>
<path d="M16.0293 10.2114L20.4458 14.6175" stroke="#598A18" stroke-width="0.75" stroke-linecap="round" stroke-linejoin="round"/>
<path d="M20.4458 10.2114L16.0293 14.6175" stroke="#598A18" stroke-width="0.75" stroke-linecap="round" stroke-linejoin="round"/>
</g>
<circle cx="20" cy="20" r="19.25" stroke="#598A18" stroke-width="1.5"/>
<defs>
<clipPath id="clip0_611_2324">
<rect width="22" height="20" fill="white" transform="translate(9 10)"/>
</clipPath>
</defs>
</svg>
