<svg width="30" height="30" viewBox="0 0 30 30" fill="none" xmlns="http://www.w3.org/2000/svg">
<g clip-path="url(#clip0_1514_3159)">
<path d="M29.6155 6.88049V26.3677C29.6155 27.2609 29.2978 28.0258 28.6623 28.6623C28.0257 29.2978 27.2608 29.6156 26.3677 29.6156H3.63263C2.73947 29.6156 1.97459 29.2978 1.33801 28.6623C0.702515 28.0258 0.384766 27.2609 0.384766 26.3677V3.63263C0.384766 2.73946 0.702515 1.97459 1.33801 1.33801C1.97459 0.702515 2.73947 0.384766 3.63263 0.384766H23.1198L29.6155 6.88049Z" fill="white"/>
<path d="M29.6155 6.88049V26.3677C29.6155 27.2609 29.2978 28.0258 28.6623 28.6623C28.0257 29.2978 27.2608 29.6156 26.3677 29.6156H3.63263C2.73947 29.6156 1.97459 29.2978 1.33801 28.6623C0.702515 28.0258 0.384766 27.2609 0.384766 26.3677V3.63263C0.384766 2.73946 0.702515 1.97459 1.33801 1.33801C1.97459 0.702515 2.73947 0.384766 3.63263 0.384766H23.1198L29.6155 6.88049Z" stroke="white"/>
<path d="M29.6155 6.88049V26.3677C29.6155 27.2609 29.2978 28.0258 28.6623 28.6623C28.0257 29.2978 27.2608 29.6156 26.3677 29.6156H3.63263C2.73947 29.6156 1.97459 29.2978 1.33801 28.6623C0.702515 28.0258 0.384766 27.2609 0.384766 26.3677V3.63263C0.384766 2.73946 0.702515 1.97459 1.33801 1.33801C1.97459 0.702515 2.73947 0.384766 3.63263 0.384766H23.1198L29.6155 6.88049ZM26.3677 8.26083L21.7395 3.63263H3.63263V8.26083V26.3677H26.3677V8.26083ZM15.0001 24.7438C16.3534 24.7438 17.5037 24.2701 18.451 23.3228C19.3983 22.3756 19.8719 21.2253 19.8719 19.872C19.8719 18.5187 19.3983 17.3684 18.451 16.4211C17.5037 15.4738 16.3534 15.0002 15.0001 15.0002C13.6469 15.0002 12.4966 15.4738 11.5493 16.4211C10.602 17.3684 10.1284 18.5187 10.1284 19.872C10.1284 21.2253 10.602 22.3756 11.5493 23.3228C12.4966 24.2701 13.6469 24.7438 15.0001 24.7438ZM5.25656 11.7523H19.8719V5.25656H5.25656V11.7523Z" fill="#598A18"/>
<path d="M29.6155 6.88049V26.3677C29.6155 27.2609 29.2978 28.0258 28.6623 28.6623C28.0257 29.2978 27.2608 29.6156 26.3677 29.6156H3.63263C2.73947 29.6156 1.97459 29.2978 1.33801 28.6623C0.702515 28.0258 0.384766 27.2609 0.384766 26.3677V3.63263C0.384766 2.73946 0.702515 1.97459 1.33801 1.33801C1.97459 0.702515 2.73947 0.384766 3.63263 0.384766H23.1198L29.6155 6.88049ZM26.3677 8.26083L21.7395 3.63263H3.63263V8.26083V26.3677H26.3677V8.26083ZM15.0001 24.7438C16.3534 24.7438 17.5037 24.2701 18.451 23.3228C19.3983 22.3756 19.8719 21.2253 19.8719 19.872C19.8719 18.5187 19.3983 17.3684 18.451 16.4211C17.5037 15.4738 16.3534 15.0002 15.0001 15.0002C13.6469 15.0002 12.4966 15.4738 11.5493 16.4211C10.602 17.3684 10.1284 18.5187 10.1284 19.872C10.1284 21.2253 10.602 22.3756 11.5493 23.3228C12.4966 24.2701 13.6469 24.7438 15.0001 24.7438ZM5.25656 11.7523H19.8719V5.25656H5.25656V11.7523Z" stroke="white"/>
</g>
<defs>
<clipPath id="clip0_1514_3159">
<rect width="30" height="30" fill="white"/>
</clipPath>
</defs>
</svg>
