<svg width="30" height="30" viewBox="0 0 30 30" fill="none" xmlns="http://www.w3.org/2000/svg">
<path d="M29.6155 6.88034V26.3675C29.6155 27.2607 29.2978 28.0256 28.6623 28.6621C28.0257 29.2976 27.2608 29.6154 26.3677 29.6154H3.63263C2.73947 29.6154 1.97459 29.2976 1.33801 28.6621C0.702515 28.0256 0.384766 27.2607 0.384766 26.3675V3.63248C0.384766 2.73931 0.702515 1.97444 1.33801 1.33786C1.97459 0.702362 2.73947 0.384613 3.63263 0.384613H23.1198L29.6155 6.88034ZM26.3677 8.26068L21.7395 3.63248H3.63263V26.3675H26.3677V8.26068ZM15.0001 24.7436C16.3534 24.7436 17.5037 24.2699 18.451 23.3226C19.3983 22.3754 19.8719 21.2251 19.8719 19.8718C19.8719 18.5185 19.3983 17.3682 18.451 16.4209C17.5037 15.4736 16.3534 15 15.0001 15C13.6469 15 12.4966 15.4736 11.5493 16.4209C10.602 17.3682 10.1284 18.5185 10.1284 19.8718C10.1284 21.2251 10.602 22.3754 11.5493 23.3226C12.4966 24.2699 13.6469 24.7436 15.0001 24.7436ZM5.25656 11.7521H19.8719V5.25641H5.25656V11.7521ZM3.63263 8.26068V26.3675V3.63248V8.26068Z" fill="white"/>
</svg>
