<svg width="32" height="28" viewBox="0 0 32 28" fill="none" xmlns="http://www.w3.org/2000/svg">
<path d="M25.2842 27.42C24.8882 27.42 24.4922 27.42 24.0962 27.42C24.0522 27.42 23.9642 27.376 23.9202 27.376C22.3802 27.2 21.1042 26.54 20.0482 25.396C19.8282 25.176 19.6522 25.088 19.3442 25.088C14.3282 25.088 9.3562 25.088 4.3402 25.088C2.8002 25.088 1.5242 24.208 1.0842 22.8C1.0402 22.624 0.996203 22.404 0.908203 22.228C0.908203 15.98 0.908203 9.688 0.908203 3.44C0.908203 3.396 0.952203 3.396 0.952203 3.352C1.1282 1.944 2.4482 0.580002 4.3402 0.580002C10.2362 0.624002 16.0882 0.580002 21.9842 0.580002C22.2922 0.580002 22.6002 0.580002 22.9082 0.668002C24.4482 1.02 25.4602 2.34 25.4602 3.968C25.4602 7.4 25.4602 10.876 25.4602 14.308C25.4602 14.44 25.4602 14.528 25.4602 14.66C25.5482 14.66 25.6362 14.704 25.7242 14.704C28.6282 15.144 30.8282 17.564 31.0482 20.512C31.2682 23.328 29.5082 26.056 26.7802 26.98C26.2962 27.2 25.7682 27.288 25.2842 27.42ZM24.1842 13.956C24.1842 13.824 24.1842 13.736 24.1842 13.692C24.1842 10.48 24.1842 7.224 24.1842 4.012C24.1842 2.736 23.3482 1.9 22.0722 1.9C16.1762 1.9 10.2362 1.9 4.3402 1.9C4.1642 1.9 3.9442 1.9 3.7682 1.944C2.8002 2.164 2.1842 2.956 2.1842 4.056C2.1842 8.5 2.1842 12.944 2.1842 17.388C2.1842 17.476 2.1842 17.564 2.2282 17.696C2.9762 16.948 3.7242 16.2 4.4282 15.496C5.7922 14.132 7.5522 14.132 8.9162 15.496C9.4882 16.068 10.0602 16.64 10.6322 17.212C10.6762 17.256 10.7642 17.344 10.8522 17.388C10.9402 17.3 10.9842 17.212 11.0722 17.124C13.1402 15.056 15.2522 12.944 17.3202 10.876C18.4202 9.776 19.9162 9.776 21.0162 10.876C21.9842 11.844 22.9082 12.768 23.8762 13.736C23.9642 13.78 24.0522 13.824 24.1842 13.956ZM29.7722 21.04C29.7722 18.224 27.5282 15.936 24.7122 15.936C21.8962 15.936 19.6082 18.224 19.6082 20.996C19.6082 23.812 21.8962 26.1 24.7122 26.1C27.4842 26.144 29.7722 23.856 29.7722 21.04ZM15.4722 23.812C15.3842 23.724 15.3842 23.68 15.3402 23.636C12.8762 21.172 10.4122 18.708 7.9042 16.244C7.2002 15.54 6.1882 15.54 5.4402 16.244C4.3842 17.256 3.3722 18.312 2.3602 19.324C2.2722 19.412 2.2282 19.544 2.2282 19.676C2.2282 20.204 2.2282 20.732 2.2282 21.304C2.2282 21.612 2.2282 21.92 2.2722 22.228C2.4922 23.196 3.2842 23.812 4.2962 23.812C7.9482 23.812 11.5562 23.812 15.2082 23.812C15.2522 23.812 15.3402 23.812 15.4722 23.812ZM18.9482 23.812C18.1122 21.964 18.0682 20.116 18.9482 18.312C19.8282 16.508 21.2802 15.364 23.2162 14.836C23.1282 14.748 23.0842 14.66 23.0402 14.616C22.0722 13.648 21.1482 12.724 20.1802 11.756C19.5642 11.14 18.9042 11.14 18.2442 11.756C16.2202 13.78 14.1522 15.848 12.1282 17.872C11.9962 18.004 11.8642 18.092 11.7322 18.224C11.7762 18.268 11.7762 18.312 11.8202 18.312C13.6242 20.116 15.3842 21.876 17.1882 23.68C17.2322 23.724 17.3202 23.768 17.4082 23.812C17.8922 23.812 18.4202 23.812 18.9482 23.812Z" fill="white"/>
<path d="M11.2484 5.68401C12.7444 5.72801 13.8444 6.91601 13.8444 8.36801C13.8004 9.82001 12.6124 10.964 11.1604 10.92C9.7524 10.876 8.6084 9.68801 8.6084 8.23601C8.6084 6.82801 9.7964 5.68401 11.2484 5.68401ZM11.2044 9.68801C11.9524 9.68801 12.5684 9.07201 12.5684 8.32401C12.5684 7.57601 11.9524 6.96001 11.2484 6.96001C10.5004 6.96001 9.8844 7.57601 9.8844 8.32401C9.8404 9.07201 10.4564 9.64401 11.2044 9.68801Z" fill="white"/>
<path d="M24.7123 20.248C24.0963 20.864 23.5243 21.436 22.9523 22.008C22.8203 22.14 22.6883 22.228 22.5563 22.272C22.2923 22.36 22.0283 22.272 21.8523 22.008C21.6763 21.788 21.7203 21.436 21.8963 21.26C22.6883 20.468 23.4363 19.676 24.2283 18.928C24.4923 18.664 24.8443 18.708 25.1083 18.972C25.8563 19.72 26.6043 20.468 27.3523 21.216C27.6163 21.48 27.6163 21.876 27.3963 22.096C27.1323 22.36 26.7363 22.36 26.4723 22.096C25.9443 21.568 25.4163 21.04 24.8883 20.512C24.8443 20.424 24.7563 20.336 24.7123 20.248Z" fill="white"/>
</svg>
