<svg width="28" height="27" viewBox="0 0 28 27" fill="none" xmlns="http://www.w3.org/2000/svg">
<path d="M0 13.4955C0.088 12.9781 0.132 12.5037 0.22 11.9862C1.144 6.55279 5.5 2.15428 11.044 1.03309C17.512 -0.260591 23.936 3.05985 26.576 9.01078C27.5 11.0807 27.852 13.2368 27.632 15.4792C27.5 16.7297 27.148 17.8941 26.268 18.8428C25.212 20.0502 23.848 20.5245 22.264 20.5677C20.724 20.6108 19.228 20.2227 17.82 19.6621C16.632 19.1877 15.576 18.584 14.52 17.8941C14.036 17.5922 13.508 17.4197 12.936 17.5059C11.792 17.7216 10.956 19.1446 11.352 20.2227C11.528 20.697 11.88 20.9989 12.32 21.2145C12.804 21.4301 13.332 21.6457 13.816 21.9476C14.52 22.4219 14.96 23.0257 15.048 23.8881C15.18 25.0093 14.608 25.8286 13.684 26.3892C13.024 26.7773 12.276 26.9498 11.484 26.9498C9.416 26.9929 7.436 26.5186 5.676 25.4405C3.696 24.2331 2.244 22.5513 1.32 20.4814C0.616 18.929 0.22 17.2472 0.0880003 15.5223C0.0880003 15.4361 0.0440002 15.3498 0.0440002 15.2204C1.67191e-07 14.6599 0 14.0561 0 13.4955ZM1.628 14.8323C1.628 16.2554 1.936 18.0234 2.728 19.6621C3.916 22.2926 5.808 24.1468 8.668 25.0093C9.724 25.3112 10.78 25.4405 11.88 25.3112C12.364 25.268 12.848 25.0955 13.2 24.7506C13.508 24.4487 13.552 24.0175 13.288 23.6725C13.112 23.4569 12.892 23.2413 12.628 23.0688C12.364 22.8963 12.1 22.81 11.792 22.6807C10.78 22.2494 10.032 21.6026 9.724 20.5245C9.24 18.7565 10.34 16.6866 12.144 16.0398C13.288 15.6517 14.344 15.9104 15.356 16.471C16.148 16.9454 16.984 17.4197 17.82 17.8509C19.184 18.5409 20.68 18.9721 22.22 18.929C24.2 18.8859 25.52 17.8509 25.916 15.9104C26.224 14.4442 26.092 12.9781 25.74 11.555C24.288 5.30223 17.908 1.2487 11.484 2.49926C5.72 3.70669 1.584 8.6658 1.628 14.8323Z" fill="white"/>
<path d="M13.5519 3.79294C14.9599 3.79294 16.0599 4.87101 16.0599 6.25093C16.0599 7.63086 14.9159 8.75205 13.5519 8.75205C12.1879 8.75205 11.0439 7.63086 11.0439 6.29406C11.0439 4.91413 12.1439 3.79294 13.5519 3.79294ZM14.4319 6.25093C14.4319 5.77658 14.0359 5.38848 13.5519 5.38848C13.0679 5.38848 12.6719 5.77658 12.6719 6.25093C12.6719 6.72528 13.0679 7.11338 13.5519 7.11338C13.9919 7.11338 14.4319 6.72528 14.4319 6.25093Z" fill="white"/>
<path d="M7.74433 11.0807C6.38033 11.0807 5.23633 10.0026 5.23633 8.62268C5.23633 7.28587 6.33633 6.16468 7.74433 6.16468C9.15233 6.16468 10.2963 7.24275 10.2963 8.62268C10.2523 9.95948 9.15233 11.0807 7.74433 11.0807ZM7.74433 7.76022C7.26033 7.76022 6.86433 8.14833 6.86433 8.62268C6.86433 9.09703 7.26033 9.48513 7.74433 9.48513C8.22833 9.48513 8.62433 9.09703 8.62433 8.62268C8.62433 8.14833 8.22833 7.7171 7.74433 7.76022Z" fill="white"/>
<path d="M21.7357 8.53643C21.7357 9.87324 20.5917 10.9944 19.2277 10.9944C17.8637 10.9944 16.7197 9.87324 16.7197 8.53643C16.7197 7.19963 17.8637 6.07844 19.2277 6.07844C20.6357 6.07844 21.7357 7.15651 21.7357 8.53643ZM20.1077 8.53643C20.1077 8.06208 19.7117 7.67398 19.2277 7.67398C18.7437 7.67398 18.3477 8.06208 18.3477 8.53643C18.3477 9.01078 18.7437 9.39889 19.2277 9.44201C19.7117 9.39889 20.1077 9.01078 20.1077 8.53643Z" fill="white"/>
<path d="M24.684 13.8405C24.684 15.2204 23.584 16.2985 22.176 16.2985C20.812 16.2985 19.668 15.2204 19.668 13.8405C19.668 12.5037 20.768 11.3825 22.176 11.3825C23.54 11.3825 24.684 12.5037 24.684 13.8405ZM23.056 13.8405C23.056 13.3662 22.66 12.9781 22.176 12.9781C21.692 12.9781 21.296 13.3662 21.296 13.8405C21.296 14.3149 21.692 14.703 22.176 14.703C22.66 14.7461 23.056 14.358 23.056 13.8405Z" fill="white"/>
</svg>
