<svg width="31" height="31" viewBox="0 0 31 31" fill="none" xmlns="http://www.w3.org/2000/svg">
<path d="M26.2083 1.54167L16.9583 10.7917L20.0417 13.875L30.8333 3.08333V1.54167H26.2083ZM12.3333 6.16667C12.3333 2.75958 9.57375 0 6.16667 0C2.75958 0 0 2.75958 0 6.16667C0 9.57375 2.75958 12.3333 6.16667 12.3333C7.07625 12.3333 7.92417 12.1329 8.695 11.7783L12.3333 15.4167L8.695 19.055C7.92417 18.7004 7.07625 18.5 6.16667 18.5C2.75958 18.5 0 21.2596 0 24.6667C0 28.0737 2.75958 30.8333 6.16667 30.8333C9.57375 30.8333 12.3333 28.0737 12.3333 24.6667C12.3333 23.7571 12.1329 22.9092 11.7783 22.1383L15.4167 18.5L26.2083 29.2917H30.8333V27.75L11.7783 8.695C12.1329 7.92417 12.3333 7.07625 12.3333 6.16667ZM6.16667 9.25C4.47083 9.25 3.08333 7.87792 3.08333 6.16667C3.08333 4.45542 4.47083 3.08333 6.16667 3.08333C7.8625 3.08333 9.25 4.45542 9.25 6.16667C9.25 7.87792 7.8625 9.25 6.16667 9.25ZM6.16667 27.75C4.47083 27.75 3.08333 26.3779 3.08333 24.6667C3.08333 22.9554 4.47083 21.5833 6.16667 21.5833C7.8625 21.5833 9.25 22.9554 9.25 24.6667C9.25 26.3779 7.8625 27.75 6.16667 27.75ZM15.4167 14.6458C15.8483 14.6458 16.1875 14.985 16.1875 15.4167C16.1875 15.8483 15.8483 16.1875 15.4167 16.1875C14.985 16.1875 14.6458 15.8483 14.6458 15.4167C14.6458 14.985 14.985 14.6458 15.4167 14.6458Z" fill="white"/>
</svg>
