<svg width="40" height="41" viewBox="0 0 40 41" fill="none" xmlns="http://www.w3.org/2000/svg">
<path d="M4.28027 31.72C4.36027 31.64 4.44027 31.56 4.56027 31.48C12.1603 23.84 19.8003 16.2 27.4403 8.56001C27.5203 8.48001 27.6003 8.40001 27.6403 8.32001C29.2003 9.88001 30.6803 11.36 32.2003 12.88C24.4003 20.64 16.6003 28.44 8.80027 36.24C7.96027 35.4 7.08027 34.52 6.24027 33.64C5.68027 33.08 5.08027 32.48 4.52027 31.92C4.44027 31.84 4.36027 31.8 4.28027 31.72ZM6.96027 31.72C7.60027 32.36 8.24027 33 8.88027 33.64C14.0003 28.52 19.1203 23.36 24.2403 18.24C23.6003 17.6 22.9603 16.96 22.3203 16.32C17.2003 21.48 12.0803 26.6 6.96027 31.72ZM29.5603 12.96C28.9203 12.32 28.2803 11.68 27.6403 11.04C26.3603 12.32 25.0003 13.68 23.7203 14.96C24.3603 15.6 25.0003 16.24 25.6003 16.88C26.9603 15.56 28.2803 14.24 29.5603 12.96Z" fill="white"/>
<path d="M19.4804 4.92001C19.3604 6.40001 20.6004 7.88001 22.1204 8.12001C22.2804 8.16001 22.4804 8.16001 22.6404 8.20001C22.6404 8.80001 22.6404 9.40001 22.6404 10C20.7204 10.2 19.6004 11.28 19.4004 13.24C18.8004 13.24 18.2004 13.24 17.6004 13.24C17.4004 11.28 16.3204 10.2 14.3604 10C14.3604 9.40001 14.3604 8.80001 14.3604 8.20001C15.4004 8.16001 16.2804 7.72001 16.9204 6.88001C17.3604 6.32001 17.6004 5.68001 17.5604 4.96001C18.2004 4.92001 18.8404 4.92001 19.4804 4.92001ZM19.5604 9.08001C19.2404 8.76001 18.8404 8.36001 18.5604 8.04001C18.2404 8.36001 17.8404 8.76001 17.5204 9.08001C17.8404 9.40001 18.2404 9.80001 18.5604 10.12C18.8404 9.80001 19.2404 9.40001 19.5604 9.08001Z" fill="white"/>
<path d="M25.4806 4.92001C25.4806 5.52001 25.4806 6.12001 25.4806 6.76001C24.8406 6.76001 24.2406 6.76001 23.6406 6.76001C23.6406 6.16001 23.6406 5.56001 23.6406 4.92001C24.2806 4.92001 24.8806 4.92001 25.4806 4.92001Z" fill="white"/>
<path d="M32.4003 18.84C32.4403 19.72 32.7603 20.48 33.3603 21.12C34.0003 21.72 34.7603 22.04 35.6403 22.08C35.6403 22.72 35.6403 23.32 35.6403 23.92C34.7603 23.96 34.0003 24.24 33.3603 24.88C32.7203 25.52 32.4403 26.28 32.4003 27.16C31.8003 27.16 31.2003 27.16 30.5603 27.16C30.5203 26.28 30.2403 25.52 29.6003 24.88C28.9603 24.28 28.2403 23.96 27.3203 23.92C27.3203 23.32 27.3203 22.72 27.3203 22.08C29.2803 21.88 30.3603 20.8 30.5603 18.84C31.2003 18.84 31.8003 18.84 32.4003 18.84ZM32.5203 23C32.2003 22.68 31.8003 22.28 31.4803 21.96C31.1603 22.28 30.7603 22.68 30.4403 23C30.7603 23.32 31.1603 23.72 31.4803 24.04C31.8003 23.68 32.2403 23.28 32.5203 23Z" fill="white"/>
<path d="M9.28023 14.64C9.72023 14.64 10.1602 14.64 10.6402 14.64C10.6402 14.16 10.6402 13.72 10.6402 13.24C11.2802 13.24 11.8802 13.24 12.4802 13.24C12.4802 13.68 12.4802 14.12 12.4802 14.6C12.9602 14.6 13.4002 14.6 13.8402 14.6C13.8402 15.24 13.8402 15.8 13.8402 16.44C13.4002 16.44 12.9602 16.44 12.4802 16.44C12.4802 16.92 12.4802 17.36 12.4802 17.8C11.8402 17.8 11.2802 17.8 10.6402 17.8C10.6402 17.36 10.6402 16.92 10.6402 16.44C10.1602 16.44 9.72023 16.44 9.24023 16.44C9.28023 15.88 9.28023 15.28 9.28023 14.64Z" fill="white"/>
<path d="M29.1605 27.6C29.1605 28.24 29.1605 28.84 29.1605 29.48C28.7205 29.48 28.2805 29.48 27.8005 29.48C27.8005 29.96 27.8005 30.4 27.8005 30.84C27.1605 30.84 26.5605 30.84 25.9205 30.84C25.9205 30.4 25.9205 29.96 25.9205 29.48C25.4405 29.48 25.0405 29.48 24.5605 29.48C24.5605 28.84 24.5605 28.24 24.5605 27.6C25.0005 27.6 25.4405 27.6 25.9205 27.6C25.9205 27.12 25.9205 26.68 25.9205 26.24C26.5605 26.24 27.1605 26.24 27.7605 26.24C27.7605 26.68 27.7605 27.12 27.7605 27.6C28.2405 27.6 28.6805 27.6 29.1605 27.6Z" fill="white"/>
<path d="M33.8398 17.88C33.8398 17.28 33.8398 16.68 33.8398 16.04C34.4398 16.04 35.0398 16.04 35.6398 16.04C35.6398 16.64 35.6398 17.24 35.6398 17.88C35.0398 17.88 34.4398 17.88 33.8398 17.88Z" fill="white"/>
</svg>
