<svg width="37" height="37" viewBox="0 0 37 37" fill="none" xmlns="http://www.w3.org/2000/svg">
<path d="M15.4166 4.625V29.2917C15.4166 30.1094 15.7414 30.8937 16.3197 31.4719C16.8979 32.0501 17.6822 32.375 18.4999 32.375H26.2083C27.026 32.375 27.8103 32.0501 28.3885 31.4719C28.9667 30.8937 29.2916 30.1094 29.2916 29.2917V18.5H10.7916C9.97383 18.5 9.18958 18.1751 8.61134 17.5969C8.0331 17.0187 7.70825 16.2344 7.70825 15.4167V7.70833C7.70825 6.89058 8.0331 6.10632 8.61134 5.52809C9.18958 4.94985 9.97383 4.625 10.7916 4.625H15.4166Z" stroke="white" stroke-width="3.08333" stroke-linecap="round" stroke-linejoin="round"/>
<path d="M24.6666 6.16666L26.9252 8.69191C27.3282 9.12517 27.598 9.66525 27.7025 10.2477C27.8069 10.8301 27.7416 11.4303 27.5142 11.9766C27.2869 12.5229 26.9071 12.9923 26.4203 13.3286C25.9335 13.665 25.3602 13.8542 24.7688 13.8736C24.1773 13.893 23.5928 13.7419 23.085 13.4382C22.5772 13.1344 22.1674 12.691 21.9047 12.1608C21.642 11.6306 21.5375 11.036 21.6035 10.4479C21.6695 9.85991 21.9033 9.3033 22.277 8.84453L24.6666 6.16666Z" stroke="white" stroke-width="3.08333" stroke-linecap="round" stroke-linejoin="round"/>
</svg>
