<svg width="22" height="27" viewBox="0 0 22 27" fill="none" xmlns="http://www.w3.org/2000/svg">
<path d="M21.3597 26.933C14.4797 26.933 7.59973 26.933 0.719727 26.933C0.719727 26.8153 0.719727 26.6977 0.719727 26.58C0.719727 17.873 0.719727 9.16598 0.719727 0.458974C0.719727 0.341312 0.719727 0.22365 0.719727 0.105988C7.59973 0.105988 14.4797 0.105988 21.3597 0.105988C21.3597 0.262871 21.3597 0.380533 21.3597 0.498195C21.3597 9.2052 21.3597 17.9122 21.3597 26.58C21.3597 26.6977 21.3597 26.8153 21.3597 26.933ZM8.07973 18.6182C11.9597 18.6182 15.7997 18.6182 19.6397 18.6182C19.6397 12.9704 19.6397 7.36183 19.6397 1.75326C13.8797 1.75326 8.15973 1.75326 2.43973 1.75326C2.43973 5.51845 2.43973 9.28365 2.43973 13.0881C4.31973 13.0881 6.19973 13.0881 8.07973 13.0881C8.07973 14.9314 8.07973 16.7748 8.07973 18.6182ZM2.43973 21.9127C8.19973 21.9127 13.9197 21.9127 19.6397 21.9127C19.6397 21.3636 19.6397 20.8146 19.6397 20.2655C13.8797 20.2655 8.15973 20.2655 2.43973 20.2655C2.43973 20.8538 2.43973 21.3636 2.43973 21.9127ZM2.43973 25.2465C8.19973 25.2465 13.9197 25.2465 19.6397 25.2465C19.6397 24.6974 19.6397 24.1875 19.6397 23.6384C13.9197 23.6384 8.15973 23.6384 2.43973 23.6384C2.43973 24.1875 2.43973 24.6974 2.43973 25.2465ZM3.75973 14.7746C4.63973 15.6374 5.51973 16.5003 6.35973 17.3239C6.35973 16.5003 6.35973 15.6374 6.35973 14.7746C5.43973 14.7746 4.55973 14.7746 3.75973 14.7746ZM5.03973 18.6182C4.15973 17.7553 3.27973 16.8925 2.43973 16.0688C2.43973 16.8925 2.43973 17.7553 2.43973 18.6182C3.31973 18.6182 4.19973 18.6182 5.03973 18.6182Z" fill="white"/>
</svg>
