<svg width="30" height="29" viewBox="0 0 30 29" fill="none" xmlns="http://www.w3.org/2000/svg">
<path d="M27.9279 6.85334C27.4037 7.37751 26.895 7.88626 26.8796 8.39501C26.8333 8.88834 27.3575 9.39709 27.8508 9.87501C28.5908 10.6458 29.3154 11.3396 29.2846 12.095C29.2537 12.8504 28.4675 13.6367 27.6812 14.4075L21.3142 20.79L19.125 18.6008L25.6771 12.0642L24.1971 10.5842L22.0079 12.7579L16.2267 6.97668L22.1467 1.07209C22.7479 0.470842 23.75 0.470842 24.3204 1.07209L27.9279 4.67959C28.5292 5.25001 28.5292 6.25209 27.9279 6.85334ZM0.625 22.5938L15.3633 7.84001L21.1446 13.6213L6.40625 28.375H0.625V22.5938Z" fill="white"/>
</svg>
