<svg width="33" height="28" viewBox="0 0 33 28" fill="none" xmlns="http://www.w3.org/2000/svg">
<g clip-path="url(#clip0_154_793)">
<path d="M0.727254 1.39869C0.807669 1.2485 0.931594 1.12603 1.08283 1.04727C1.23407 0.968517 1.40558 0.937146 1.57496 0.957261C9.92047 0.957261 18.266 0.957261 26.6115 0.957261C27.2546 0.957261 27.4482 1.15062 27.4482 1.78541C27.4482 2.63179 27.4482 3.48183 27.4482 4.36834H29.0888C29.8196 4.36834 29.9877 4.53981 29.9877 5.26216V7.78308H31.7014C32.3372 7.78308 32.5345 7.98008 32.5345 8.61852V14.0908C32.5345 14.1748 32.5345 14.2587 32.5345 14.3389C32.5345 14.5024 32.4694 14.6593 32.3536 14.7749C32.2378 14.8905 32.0807 14.9555 31.917 14.9555C31.7532 14.9555 31.5961 14.8905 31.4803 14.7749C31.3645 14.6593 31.2995 14.5024 31.2995 14.3389C31.2995 13.9741 31.2995 13.6348 31.2995 13.2846V9.04536H7.0887V25.7651H31.3031V20.125C31.3031 20.0338 31.3031 19.9389 31.3031 19.8477C31.3031 19.6842 31.3682 19.5274 31.484 19.4118C31.5998 19.2961 31.7568 19.2312 31.9206 19.2312C32.0844 19.2312 32.2415 19.2961 32.3573 19.4118C32.4731 19.5274 32.5381 19.6842 32.5381 19.8477C32.5381 20.0228 32.5381 20.2126 32.5381 20.3767V26.2139C32.5381 26.8049 32.3225 27.0274 31.7416 27.0274H6.61369C6.04734 27.0274 5.82445 26.8049 5.82445 26.2394V23.6127H3.96827C3.8745 23.6226 3.77969 23.6114 3.69087 23.5798C3.60205 23.5482 3.5215 23.497 3.45517 23.4301C3.38885 23.3631 3.33846 23.2822 3.30773 23.1932C3.27701 23.1042 3.26673 23.0094 3.27768 22.9159C3.27768 22.0294 3.27768 21.1392 3.27768 20.2016H2.28747C2.04997 20.2016 1.80881 20.2016 1.55669 20.2016C1.38704 20.2292 1.21299 20.2016 1.06031 20.1227C0.907639 20.0439 0.784449 19.918 0.708984 19.7638L0.727254 1.39869ZM5.84272 22.3614V8.68054C5.84272 7.95089 6.02176 7.79037 6.74523 7.79037H28.7235V5.63063H4.53827V22.3614H5.84272ZM1.9915 2.21954V18.9466H3.27768V5.26581C3.27768 4.5617 3.45307 4.38294 4.15461 4.38294H26.1913V2.21954H1.9915Z" fill="white"/>
<path d="M19.1798 12.1318H9.31425C9.2108 12.1373 9.10713 12.1373 9.00367 12.1318C8.85452 12.1119 8.71768 12.0386 8.61857 11.9255C8.51947 11.8125 8.46484 11.6673 8.46484 11.5171C8.46484 11.3668 8.51947 11.2217 8.61857 11.1086C8.71768 10.9956 8.85452 10.9223 9.00367 10.9024C9.10713 10.8969 9.2108 10.8969 9.31425 10.9024H29.0453C29.1487 10.895 29.2525 10.895 29.3559 10.9024C29.501 10.92 29.6346 10.9897 29.7321 11.0984C29.8295 11.2071 29.8841 11.3475 29.8857 11.4934C29.8918 11.6449 29.8413 11.7934 29.7442 11.9099C29.647 12.0265 29.5099 12.103 29.3596 12.1245C29.2452 12.1318 29.1305 12.1318 29.0161 12.1245L19.1798 12.1318Z" fill="white"/>
<path d="M14.3674 18.943V14.9118C14.3674 14.795 14.3674 14.6819 14.3674 14.5688C14.3777 14.4121 14.4478 14.2652 14.5634 14.1586C14.679 14.0521 14.8312 13.9939 14.9885 13.9961C15.1402 13.9974 15.2859 14.0555 15.3969 14.1588C15.5078 14.2621 15.5759 14.4032 15.5878 14.5542C15.5951 14.6575 15.5951 14.7611 15.5878 14.8643V23.0546C15.5878 23.6237 15.3795 23.9156 14.9703 23.9229C14.561 23.9302 14.3418 23.6274 14.3418 23.04L14.3674 18.943Z" fill="white"/>
<path d="M22.7568 18.943V14.9118C22.7568 14.795 22.7568 14.6819 22.7568 14.5688C22.7671 14.4121 22.8372 14.2652 22.9528 14.1586C23.0684 14.0521 23.2206 13.9939 23.3779 13.9961C23.529 13.9983 23.6738 14.0568 23.7839 14.16C23.8941 14.2633 23.9617 14.4038 23.9735 14.5542C23.9809 14.6575 23.9809 14.7611 23.9735 14.8643V23.0546C23.9735 23.6237 23.7652 23.9156 23.356 23.9229C22.9468 23.9302 22.7275 23.6274 22.7275 23.04L22.7568 18.943Z" fill="white"/>
<path d="M10.7759 15.2365C10.2387 15.2365 9.67969 15.2365 9.16083 15.2365C9.07266 15.2459 8.9835 15.2363 8.89933 15.2085C8.81516 15.1806 8.73795 15.1351 8.67287 15.0749C8.60779 15.0148 8.55637 14.9414 8.52205 14.8598C8.48773 14.7782 8.47131 14.6902 8.4739 14.6017C8.47498 14.5161 8.49388 14.4318 8.5294 14.3539C8.56491 14.2761 8.61626 14.2064 8.68019 14.1495C8.74411 14.0925 8.8192 14.0495 8.90069 14.0231C8.98218 13.9966 9.06828 13.9874 9.15352 13.9961H12.442C12.5274 13.9895 12.6131 14.0006 12.694 14.0287C12.7748 14.0569 12.8489 14.1013 12.9117 14.1594C12.9745 14.2175 13.0246 14.2878 13.0589 14.3661C13.0931 14.4445 13.1108 14.529 13.1108 14.6144C13.1108 14.6999 13.0931 14.7844 13.0589 14.8627C13.0246 14.941 12.9745 15.0114 12.9117 15.0695C12.8489 15.1275 12.7748 15.172 12.694 15.2001C12.6131 15.2282 12.5274 15.2394 12.442 15.2328C11.8939 15.2401 11.3349 15.2365 10.7759 15.2365Z" fill="white"/>
<path d="M19.1723 15.2365C18.6315 15.2365 18.0761 15.2365 17.5536 15.2365C17.4664 15.2459 17.3781 15.2369 17.2946 15.2101C17.2111 15.1832 17.1342 15.1391 17.0689 15.0806C17.0036 15.0221 16.9513 14.9505 16.9156 14.8705C16.8798 14.7905 16.8613 14.7039 16.8613 14.6163C16.8613 14.5286 16.8798 14.442 16.9156 14.362C16.9513 14.282 17.0036 14.2104 17.0689 14.1519C17.1342 14.0934 17.2111 14.0493 17.2946 14.0224C17.3781 13.9956 17.4664 13.9866 17.5536 13.9961H20.7837C21.2185 13.9961 21.4889 14.2332 21.4925 14.6053C21.4962 14.9774 21.2221 15.2328 20.7617 15.2365C20.2465 15.2401 19.7094 15.2365 19.1723 15.2365Z" fill="white"/>
<path d="M27.558 15.2365C27.0319 15.2365 26.5021 15.2365 25.9759 15.2365C25.5228 15.2365 25.2451 14.992 25.2451 14.609C25.2453 14.5206 25.2645 14.4332 25.3013 14.3528C25.3381 14.2724 25.3917 14.2008 25.4584 14.1428C25.5252 14.0847 25.6037 14.0416 25.6885 14.0163C25.7733 13.991 25.8626 13.9841 25.9503 13.9961H29.1804C29.268 13.9842 29.3571 13.991 29.4419 14.0161C29.5266 14.0411 29.6051 14.0838 29.6721 14.1414C29.7391 14.199 29.7931 14.2701 29.8305 14.3501C29.868 14.4301 29.888 14.5171 29.8892 14.6053C29.8892 14.992 29.6188 15.2328 29.1584 15.2365C28.6359 15.2401 28.0988 15.2365 27.558 15.2365Z" fill="white"/>
<path d="M10.783 17.7172H9.16799C9.08008 17.7283 8.99082 17.7202 8.90629 17.6938C8.82175 17.6673 8.74391 17.6229 8.67805 17.5638C8.61219 17.5046 8.55986 17.4319 8.52461 17.3508C8.48936 17.2696 8.47201 17.1818 8.47375 17.0934C8.47463 17.0051 8.49419 16.9179 8.53114 16.8376C8.56809 16.7573 8.6216 16.6858 8.68817 16.6276C8.75474 16.5694 8.83287 16.5258 8.91744 16.4999C9.00202 16.4739 9.09113 16.4661 9.17895 16.4768H12.409C12.8438 16.4768 13.1106 16.714 13.1179 17.0861C13.1252 17.4582 12.8511 17.7136 12.3871 17.7172H10.783Z" fill="white"/>
<path d="M27.5578 17.7172H25.9427C25.8548 17.7277 25.7656 17.7192 25.6813 17.6923C25.5969 17.6653 25.5193 17.6206 25.4538 17.561C25.3883 17.5015 25.3364 17.4286 25.3016 17.3473C25.2668 17.266 25.2499 17.1781 25.2521 17.0897C25.2516 17.0039 25.2693 16.9189 25.304 16.8404C25.3387 16.7618 25.3896 16.6915 25.4535 16.634C25.5173 16.5764 25.5926 16.533 25.6744 16.5066C25.7562 16.4801 25.8426 16.4712 25.9281 16.4805C27.0292 16.4805 28.1253 16.4805 29.2166 16.4805C29.302 16.4718 29.3882 16.4811 29.4698 16.5078C29.5513 16.5344 29.6264 16.5779 29.6901 16.6353C29.7538 16.6927 29.8047 16.7628 29.8396 16.8411C29.8745 16.9194 29.8925 17.0041 29.8926 17.0897C29.8943 17.1783 29.8769 17.2662 29.8417 17.3475C29.8065 17.4289 29.7542 17.5017 29.6884 17.5611C29.6226 17.6206 29.5449 17.6653 29.4603 17.6922C29.3758 17.7191 29.2865 17.7277 29.1984 17.7172H27.5578Z" fill="white"/>
<path d="M27.558 20.2017H25.9759C25.5228 20.2017 25.2451 19.9572 25.2451 19.5705C25.2459 19.4824 25.2654 19.3955 25.3024 19.3156C25.3394 19.2356 25.3931 19.1644 25.4598 19.1068C25.5265 19.0491 25.6048 19.0063 25.6894 18.9813C25.7739 18.9562 25.8629 18.9494 25.9503 18.9613H29.184C29.2714 18.9494 29.3604 18.9562 29.445 18.9813C29.5296 19.0063 29.6078 19.0491 29.6745 19.1068C29.7413 19.1644 29.7949 19.2356 29.8319 19.3156C29.8689 19.3955 29.8885 19.4824 29.8892 19.5705C29.8892 19.9572 29.6188 20.198 29.1584 20.2017H27.558Z" fill="white"/>
<path d="M32.5416 17.1007C32.5409 17.2232 32.5035 17.3428 32.4344 17.444C32.3653 17.5453 32.2675 17.6237 32.1535 17.6692C32.0395 17.7147 31.9146 17.7253 31.7946 17.6996C31.6746 17.6739 31.565 17.613 31.4797 17.5248C31.3945 17.4366 31.3376 17.3251 31.3161 17.2044C31.2947 17.0837 31.3098 16.9594 31.3594 16.8474C31.4091 16.7353 31.4911 16.6405 31.5949 16.5752C31.6987 16.5098 31.8197 16.4769 31.9424 16.4805C32.1033 16.4862 32.2557 16.554 32.3675 16.6697C32.4793 16.7854 32.5417 16.9399 32.5416 17.1007Z" fill="white"/>
</g>
<defs>
<clipPath id="clip0_154_793">
<rect width="31.8182" height="26.0702" fill="white" transform="translate(0.727539 0.957329)"/>
</clipPath>
</defs>
</svg>
