<svg width="31" height="29" viewBox="0 0 31 29" fill="none" xmlns="http://www.w3.org/2000/svg">
<g clip-path="url(#clip0_154_767)">
<path d="M14.8458 0.640015V5.60651H10.1688V15.116H4.704V5.61701H0V0.640015H14.8458ZM8.36524 13.478V3.96501H12.9997V2.31301H1.89241V3.98951H6.5269V13.478H8.36524Z" fill="white"/>
<path d="M0 22.459H30.8966V24.09H0V22.459Z" fill="white"/>
<path d="M0 17.979H30.8966V19.61H0V17.979Z" fill="white"/>
<path d="M0 26.9985H30.8966V28.64H0V26.9985Z" fill="white"/>
<path d="M30.8967 6.10702H17.9395V4.46902H30.8967V6.10702Z" fill="white"/>
<path d="M30.8967 10.594H17.9395V8.96651H30.8967V10.594Z" fill="white"/>
<path d="M30.8967 15.1335H17.9434V13.492H30.8967V15.1335Z" fill="white"/>
</g>
<defs>
<clipPath id="clip0_154_767">
<rect width="30.8966" height="28" fill="white" transform="translate(0 0.640015)"/>
</clipPath>
</defs>
</svg>
