<svg width="140" height="140" viewBox="0 0 140 140" fill="none" xmlns="http://www.w3.org/2000/svg">
<g clip-path="url(#clip0_611_4173)">
<path d="M30 84.5567C30.3644 83.9938 30.765 83.455 31.1991 82.9439C34.2383 79.8423 37.3084 76.8338 40.3476 73.7632C40.6877 73.4128 41.099 73.1391 41.5536 72.9608C42.0083 72.7825 42.4959 72.7036 42.9836 72.7294C61.0049 72.7294 79.0192 72.7294 97.0267 72.7294C97.5142 72.7062 98.001 72.7864 98.4552 72.9646C98.9095 73.1427 99.321 73.4149 99.6627 73.7632C102.764 76.9475 105.989 80.1008 109.152 83.2747C109.427 83.4873 109.649 83.7599 109.802 84.0718C109.955 84.3836 110.035 84.7263 110.035 85.0737C110.035 85.421 109.955 85.7637 109.802 86.0756C109.649 86.3874 109.427 86.66 109.152 86.8726C108.633 87.2043 108.032 87.3868 107.416 87.3998C105.266 87.4619 103.105 87.3998 100.945 87.3998H100.014V88.4337C100.014 94.6369 100.014 100.84 100.014 107.043C100.014 109.111 99.1666 109.969 97.0784 109.969H42.9836C40.8645 109.969 40.0271 109.132 40.0271 106.981V87.3378H38.1871C36.4711 87.3378 34.7448 87.3378 33.0185 87.3378C32.3915 87.4346 31.7504 87.3141 31.2013 86.9963C30.6523 86.6785 30.2284 86.1825 30 85.5906V84.5567ZM44.7616 105.234H95.2281V87.4619H44.7616V105.234ZM38.1354 82.6441H101.927C100.324 81.0416 98.8254 79.5425 97.3575 78.0538C97.1477 77.8125 96.8865 77.6214 96.5932 77.4943C96.2998 77.3673 95.9817 77.3076 95.6622 77.3197C80.3976 77.3197 65.1225 77.3197 49.8372 77.3197C47.6767 77.3197 45.5162 77.3197 43.3557 77.3197L38.766 81.9721C38.5696 82.1582 38.3939 82.365 38.1354 82.6441Z" fill="#598A18"/>
<path d="M40.4709 30C42.3006 30.9305 44.1407 31.8299 45.9497 32.7811C46.4429 33.0281 46.8323 33.4425 47.0483 33.9501C47.2643 34.4578 47.2929 35.0257 47.1289 35.5525C46.9649 36.0792 46.6191 36.5306 46.1531 36.8259C45.6872 37.1212 45.1315 37.2413 44.5852 37.1646C44.2236 37.0996 43.8746 36.9775 43.5514 36.8028C42.1559 36.1204 40.7811 35.3864 39.3649 34.7351C38.8512 34.5803 38.3988 34.269 38.0707 33.8445C37.7427 33.42 37.5554 32.9036 37.5352 32.3675C37.5381 31.828 37.719 31.3044 38.0498 30.8782C38.3807 30.452 38.8429 30.1469 39.3649 30.0103L40.4709 30Z" fill="#598A18"/>
<path d="M100.625 30C102.155 30.734 102.796 31.7162 102.331 32.9568C102.087 33.5729 101.652 34.0946 101.09 34.4456C99.5086 35.3451 97.865 36.1204 96.2214 36.9062C95.9451 37.0419 95.6448 37.122 95.3377 37.1417C95.0305 37.1614 94.7224 37.1204 94.4311 37.021C94.1398 36.9216 93.8709 36.7659 93.6397 36.5626C93.4086 36.3593 93.2198 36.1124 93.084 35.8361C92.9483 35.5598 92.8683 35.2595 92.8486 34.9523C92.8289 34.6451 92.8698 34.337 92.9692 34.0456C93.0685 33.7543 93.2243 33.4853 93.4276 33.2542C93.6309 33.023 93.8777 32.8341 94.1539 32.6984C95.9216 31.8299 97.7409 30.8995 99.5293 30H100.625Z" fill="#598A18"/>
<path d="M89.8842 47.4515C90.0083 50.5531 88.6644 53.1998 86.7831 55.588C84.372 58.6071 81.4464 61.1761 78.1411 63.1765C75.9186 64.5619 73.5617 65.7302 71.2565 66.9811C70.8579 67.202 70.4097 67.3179 69.954 67.3179C69.4983 67.3179 69.0501 67.202 68.6515 66.9811C63.6724 64.7696 59.0987 61.7399 55.12 58.0176C52.546 55.6229 50.8314 52.4476 50.2409 48.9817C49.8024 45.9255 50.539 42.8167 52.302 40.2822C54.065 37.7477 56.7232 35.976 59.7408 35.3244C61.4101 34.9611 63.1362 34.9433 64.8126 35.2723C66.4891 35.6012 68.0805 36.2698 69.4888 37.237C69.632 37.3621 69.8156 37.431 70.0057 37.431C70.1958 37.431 70.3794 37.3621 70.5226 37.237C72.3186 35.9142 74.4558 35.1334 76.6815 34.9869C78.9072 34.8403 81.1283 35.3341 83.0823 36.4099C85.0973 37.3332 86.809 38.8094 88.0186 40.6669C89.2281 42.5244 89.8858 44.6871 89.9152 46.9036C89.8946 47.0897 89.8842 47.2758 89.8842 47.4515ZM85.2118 47.2655C85.2193 45.6937 84.7149 44.1622 83.7749 42.9026C83.1068 41.9837 82.244 41.2239 81.2481 40.6773C80.2522 40.1307 79.1479 39.8109 78.0141 39.7408C76.8804 39.6707 75.7451 39.8519 74.6895 40.2716C73.6338 40.6913 72.684 41.339 71.9077 42.1685C71.6555 42.5207 71.3059 42.7915 70.9019 42.9476C70.4978 43.1038 70.057 43.1384 69.6335 43.0473C68.9837 42.8152 68.3938 42.4408 67.9072 41.9514C66.7973 40.8556 65.3819 40.121 63.847 39.8443C62.3121 39.5675 60.7293 39.7614 59.3066 40.4006C57.8548 41.0462 56.6415 42.1301 55.8369 43.5003C55.0323 44.8705 54.6768 46.4583 54.8203 48.0408C55.083 50.0709 55.9971 51.961 57.4253 53.4272C60.7952 57.3146 65.0748 59.9612 69.6335 62.2047C69.7843 62.2554 69.9439 62.2743 70.1022 62.26C70.2606 62.2458 70.4143 62.1988 70.5536 62.122C72.7657 60.8607 75.0089 59.6407 77.1281 58.2347C79.7197 56.61 81.9504 54.4706 83.6819 51.9488C84.6673 50.5852 85.2021 48.9479 85.2118 47.2655Z" fill="#598A18"/>
<path d="M47.2216 62.8457C47.1798 63.2158 47.0412 63.5683 46.8198 63.8678C46.5984 64.1673 46.302 64.4031 45.9605 64.5516C44.2755 65.42 42.5905 66.2885 40.8746 67.0949C40.3376 67.2923 39.7467 67.2849 39.2148 67.074C38.683 66.8631 38.2475 66.4636 37.9916 65.9519C37.7358 65.4401 37.6775 64.8519 37.8279 64.2999C37.9784 63.7478 38.327 63.2706 38.8071 62.9594C40.4817 62.0703 42.1771 61.2122 43.893 60.4058C45.609 59.5994 47.2113 60.778 47.2216 62.8457Z" fill="#598A18"/>
<path d="M92.8188 62.5769C92.7956 62.2005 92.866 61.8241 93.0237 61.4815C93.1814 61.1389 93.4214 60.8407 93.7223 60.6134C94.0233 60.3861 94.3758 60.2369 94.7484 60.179C95.1211 60.1212 95.5022 60.1564 95.8579 60.2817C97.76 61.0985 99.6207 62.06 101.44 63.0525C101.925 63.3476 102.28 63.8166 102.432 64.364C102.583 64.9114 102.521 65.4961 102.257 65.999C102.031 66.5203 101.612 66.934 101.088 67.1537C100.564 67.3733 99.9751 67.3819 99.4449 67.1776C97.5325 66.3195 95.6512 65.358 93.8008 64.3655C93.4858 64.1895 93.2267 63.9285 93.053 63.6122C92.8794 63.2959 92.7982 62.9371 92.8188 62.5769Z" fill="#598A18"/>
<path d="M39.8818 50.9873C39.0031 50.9873 38.1141 50.9873 37.2355 50.9873C36.6213 50.9873 36.0324 50.7433 35.5981 50.309C35.1639 49.8747 34.9199 49.2857 34.9199 48.6715C34.9199 48.0573 35.1639 47.4682 35.5981 47.0339C36.0324 46.5996 36.6213 46.3556 37.2355 46.3556C38.9721 46.2936 40.7191 46.2936 42.4558 46.3556C42.7579 46.3538 43.0572 46.4138 43.3352 46.532C43.6133 46.6503 43.8641 46.8242 44.0724 47.0431C44.2806 47.262 44.4418 47.5213 44.546 47.8049C44.6502 48.0885 44.6952 48.3905 44.6783 48.6922C44.688 48.9923 44.6371 49.2914 44.5286 49.5714C44.4201 49.8514 44.2563 50.1067 44.0469 50.322C43.8374 50.5372 43.5868 50.708 43.3098 50.8241C43.0329 50.9402 42.7354 50.9992 42.4351 50.9977C41.5771 50.9977 40.7191 50.9977 39.8611 50.9977L39.8818 50.9873Z" fill="#598A18"/>
<path d="M100.222 46.304C101.007 46.304 101.783 46.304 102.568 46.304C102.881 46.2913 103.194 46.3426 103.486 46.4547C103.779 46.5668 104.046 46.7374 104.27 46.9561C104.495 47.1748 104.672 47.4369 104.792 47.7265C104.912 48.0161 104.971 48.3271 104.967 48.6405C104.972 48.9479 104.916 49.2533 104.8 49.5382C104.684 49.8232 104.512 50.0817 104.294 50.2981C104.075 50.5146 103.815 50.6845 103.53 50.7977C103.244 50.9108 102.938 50.9648 102.63 50.9563C100.945 50.9563 99.2501 50.9563 97.5652 50.9563C97.2585 50.9566 96.955 50.8948 96.6728 50.7747C96.3907 50.6546 96.1357 50.4787 95.9233 50.2576C95.7108 50.0364 95.5453 49.7746 95.4366 49.4878C95.328 49.201 95.2784 48.8952 95.291 48.5888C95.295 48.2838 95.3593 47.9826 95.48 47.7024C95.6008 47.4223 95.7757 47.1689 95.9947 46.9565C96.2137 46.7442 96.4725 46.5773 96.7562 46.4653C97.0399 46.3533 97.3429 46.2985 97.6479 46.304C98.5059 46.304 99.3638 46.304 100.222 46.304Z" fill="#598A18"/>
<path d="M85.1076 95.2985C85.9345 95.2985 86.7719 95.2985 87.5988 95.2985C88.1709 95.2814 88.7271 95.4876 89.1497 95.8736C89.5723 96.2596 89.828 96.7949 89.8627 97.3662C89.9228 97.6592 89.9187 97.9616 89.8506 98.2528C89.7825 98.5439 89.6521 98.8168 89.4683 99.0527C89.2845 99.2886 89.0518 99.4818 88.7862 99.619C88.5205 99.7562 88.2283 99.8342 87.9296 99.8475C86.0122 99.9664 84.0892 99.9664 82.1718 99.8475C81.8844 99.8221 81.6052 99.7388 81.3508 99.6026C81.0965 99.4665 80.8723 99.2803 80.6917 99.0553C80.5111 98.8303 80.3779 98.5711 80.3001 98.2932C80.2222 98.0154 80.2014 97.7247 80.2387 97.4386C80.255 96.8454 80.5056 96.2827 80.9357 95.8739C81.3658 95.465 81.9404 95.2433 82.5336 95.2572C83.3916 95.2675 84.2496 95.2985 85.1076 95.2985Z" fill="#598A18"/>
</g>
<rect x="-2.25" y="2.25" width="135.5" height="135.5" rx="67.75" transform="matrix(-1 0 0 1 135.5 0)" stroke="#598A18" stroke-width="4.5"/>
<defs>
<clipPath id="clip0_611_4173">
<rect width="80" height="80" fill="white" transform="translate(30 30)"/>
</clipPath>
</defs>
</svg>
