<svg width="80" height="80" viewBox="0 0 80 80" fill="none" xmlns="http://www.w3.org/2000/svg">
<g clip-path="url(#clip0_155_17548)">
<path d="M80.0003 42.3425C79.8003 43.8757 79.6669 45.4355 79.3736 46.9554C78.3551 52.9472 75.9645 58.6223 72.3886 63.537C68.8126 68.4517 64.1483 72.4728 58.7603 75.2859C52.5352 78.7665 45.4381 80.3774 38.3203 79.9255C23.3203 78.9922 12.067 71.9263 4.72029 58.7542C1.21367 52.5445 -0.399263 45.4446 0.0802867 38.3296C1.00029 23.2777 8.14695 12.0388 21.3336 4.67954C26.1675 2.00743 31.5395 0.453862 37.0536 0.13332C37.2609 0.10306 37.4658 0.0585141 37.6669 0H42.3469C42.5694 0.0636412 42.7969 0.108242 43.0269 0.13332C47.0823 0.379439 51.0672 1.30794 54.8136 2.87972C68.3069 8.66581 76.5603 18.7448 79.3869 33.1834C79.6669 34.6633 79.8003 36.1564 80.0003 37.6496V42.3425ZM77.3336 39.9961C77.3336 32.613 75.144 25.3957 71.0418 19.2568C66.9396 13.118 61.1089 8.33335 54.2871 5.50796C47.4653 2.68256 39.9589 1.94331 32.7169 3.38368C25.475 4.82406 18.8228 8.37936 13.6016 13.6C8.38047 18.8207 4.82482 25.4722 3.3843 32.7134C1.94379 39.9547 2.68311 47.4604 5.50878 54.2815C8.33445 61.1026 13.1196 66.9327 19.259 71.0345C25.3984 75.1364 32.6164 77.3257 40.0003 77.3257C49.9017 77.3257 59.3976 73.3928 66.3989 66.3921C73.4003 59.3915 77.3336 49.8965 77.3336 39.9961Z" fill="#598A18"/>
<path d="M16.4399 24.872C16.6259 24.376 16.8119 23.818 17.0599 23.384C17.8039 22.206 18.9199 21.524 20.3459 21.462C20.4699 21.462 20.6559 21.462 20.7799 21.462C31.8779 21.462 42.9139 21.462 54.0119 21.462C55.8099 21.462 57.1739 22.144 57.9179 23.756C58.1659 24.314 58.3519 24.934 58.3519 25.554C58.3519 33.49 58.3519 41.364 58.3519 49.3C58.3519 51.656 56.5539 53.392 54.1979 53.392C44.1539 53.392 34.1719 53.392 24.1279 53.392C23.9419 53.392 23.7559 53.392 23.5079 53.392C23.5699 54.012 23.5079 54.632 23.6319 55.19C23.8179 56.058 24.5619 56.678 25.4919 56.802C25.6779 56.802 25.8639 56.802 26.0499 56.802C37.1479 56.802 48.2459 56.802 59.3439 56.802C60.5839 56.802 61.4519 56.244 61.6999 55.19C61.7619 54.942 61.7619 54.694 61.7619 54.446C61.7619 46.572 61.7619 38.76 61.7619 30.886C61.7619 29.956 61.3899 29.274 60.6459 28.778C60.1499 28.468 59.9639 27.91 60.2739 27.476C60.5839 27.042 61.0799 26.918 61.5759 27.228C62.5679 27.786 63.1879 28.654 63.4359 29.77C63.4359 29.894 63.4979 29.956 63.5599 30.08C63.5599 38.45 63.5599 46.82 63.5599 55.19C63.3739 55.624 63.2499 56.12 63.0639 56.554C62.2579 57.98 61.0179 58.6 59.3439 58.6C48.1839 58.6 37.0239 58.6 25.8639 58.6C25.7399 58.6 25.6779 58.6 25.5539 58.6C23.6319 58.538 22.0199 57.112 21.7099 55.19C21.6479 54.57 21.6479 54.012 21.5859 53.33C21.1519 53.33 20.7179 53.33 20.3459 53.33C18.6099 53.33 17.1219 52.152 16.5639 50.54C16.5019 50.354 16.4399 50.168 16.3779 49.92C16.4399 41.612 16.4399 33.242 16.4399 24.872ZM37.3339 51.532C42.9139 51.532 48.4319 51.532 54.0119 51.532C55.6239 51.532 56.4919 50.664 56.4919 49.052C56.4919 41.24 56.4919 33.49 56.4919 25.678C56.4919 24.066 55.6239 23.198 54.0119 23.198C42.9139 23.198 31.8159 23.198 20.7799 23.198C19.1679 23.198 18.2999 24.066 18.2999 25.678C18.2999 33.428 18.2999 41.24 18.2999 48.99C18.2999 50.478 19.2919 51.532 20.8419 51.532C26.2979 51.532 31.8159 51.532 37.3339 51.532Z" fill="#598A18"/>
<path d="M31.32 31.506C31.32 32.436 31.32 33.428 31.32 34.358C31.32 35.536 30.576 36.28 29.398 36.28C27.476 36.28 25.554 36.28 23.632 36.28C22.454 36.28 21.71 35.536 21.71 34.358C21.71 32.436 21.71 30.514 21.71 28.592C21.71 27.414 22.454 26.732 23.632 26.67C25.554 26.67 27.476 26.67 29.398 26.67C30.576 26.67 31.32 27.414 31.32 28.592C31.32 29.584 31.32 30.514 31.32 31.506ZM23.57 28.468C23.57 30.452 23.57 32.436 23.57 34.42C25.554 34.42 27.538 34.42 29.522 34.42C29.522 32.436 29.522 30.452 29.522 28.468C27.476 28.468 25.554 28.468 23.57 28.468Z" fill="#598A18"/>
<path d="M30.018 46.262C32.374 46.262 34.668 46.262 37.024 46.262C37.148 46.262 37.272 46.262 37.458 46.262C37.892 46.324 38.264 46.696 38.264 47.13C38.264 47.564 38.016 47.936 37.582 48.06C37.396 48.122 37.21 48.122 36.962 48.122C32.312 48.122 27.724 48.122 23.074 48.122C22.888 48.122 22.764 48.122 22.578 48.122C22.082 48.06 21.772 47.626 21.772 47.192C21.772 46.696 22.144 46.324 22.702 46.324C22.826 46.324 22.95 46.324 23.074 46.324C25.368 46.262 27.662 46.262 30.018 46.262Z" fill="#598A18"/>
<path d="M24.81 44.0919C24.128 44.0919 23.446 44.0919 22.764 44.0919C22.144 44.0919 21.772 43.7199 21.772 43.2239C21.772 42.7279 22.144 42.2939 22.764 42.2939C24.128 42.2939 25.492 42.2939 26.856 42.2939C27.476 42.2939 27.848 42.6659 27.848 43.2239C27.848 43.7819 27.476 44.0919 26.856 44.0919C26.174 44.0919 25.492 44.0919 24.81 44.0919Z" fill="#598A18"/>
<path d="M41.55 44.0919C40.868 44.0919 40.186 44.0919 39.504 44.0919C38.884 44.0919 38.512 43.7199 38.512 43.2239C38.512 42.6659 38.884 42.2939 39.504 42.2939C40.868 42.2939 42.294 42.2939 43.658 42.2939C44.216 42.2939 44.65 42.6659 44.65 43.1619C44.65 43.6579 44.216 44.0919 43.658 44.0919C42.914 44.0919 42.232 44.0919 41.55 44.0919Z" fill="#598A18"/>
<path d="M49.8578 44.0919C49.1758 44.0919 48.4938 44.0919 47.8118 44.0919C47.2538 44.0919 46.8198 43.7199 46.8198 43.2239C46.8198 42.6659 47.1918 42.2939 47.8118 42.2939C49.1758 42.2939 50.6018 42.2939 51.9658 42.2939C52.5238 42.2939 52.8958 42.6659 52.9578 43.1619C52.9578 43.7199 52.5858 44.0919 51.9658 44.0919C51.2838 44.0919 50.5398 44.0919 49.8578 44.0919Z" fill="#598A18"/>
<path d="M33.1798 44.092C32.4978 44.092 31.8158 44.092 31.1338 44.092C30.5138 44.092 30.1418 43.72 30.1418 43.162C30.1418 42.666 30.5138 42.294 31.1338 42.232C32.4978 42.232 33.9238 42.232 35.2878 42.232C35.9078 42.232 36.2798 42.666 36.2798 43.162C36.2798 43.658 35.9078 44.03 35.2878 44.03C34.5438 44.092 33.8618 44.092 33.1798 44.092Z" fill="#598A18"/>
</g>
<defs>
<clipPath id="clip0_155_17548">
<rect width="80" height="80" fill="white"/>
</clipPath>
</defs>
</svg>
