<svg width="80" height="80" viewBox="0 0 80 80" fill="none" xmlns="http://www.w3.org/2000/svg">
<g clip-path="url(#clip0_251_1137)">
<path d="M80.0027 42.3467C79.8027 43.88 79.6694 45.44 79.376 46.96C78.3576 52.9524 75.9669 58.6281 72.391 63.5433C68.8151 68.4584 64.1507 72.4799 58.7627 75.2933C52.5377 78.7743 45.4406 80.3854 38.3227 79.9333C23.3227 79 12.0694 71.9333 4.72273 58.76C1.21611 52.5497 -0.396821 45.4491 0.0827281 38.3333C1.00273 23.28 8.14939 12.04 21.3361 4.68C26.17 2.00762 31.5419 0.453907 37.0561 0.133333C37.2633 0.10307 37.4683 0.0585198 37.6694 0H42.3494C42.5719 0.0636474 42.7993 0.108253 43.0294 0.133333C47.0848 0.379476 51.0696 1.30806 54.816 2.88C68.3094 8.66667 76.5627 18.7467 79.3894 33.1867C79.6694 34.6667 79.8027 36.16 80.0027 37.6533V42.3467ZM77.336 40C77.336 32.6162 75.1465 25.3982 71.0442 19.2587C66.942 13.1193 61.1113 8.33417 54.2896 5.5085C47.4678 2.68283 39.9613 1.9435 32.7193 3.38402C25.4774 4.82453 18.8252 8.38019 13.6041 13.6013C8.38291 18.8225 4.82726 25.4747 3.38674 32.7166C1.94623 39.9586 2.68555 47.4651 5.51122 54.2868C8.3369 61.1086 13.122 66.9393 19.2614 71.0415C25.4009 75.1438 32.6189 77.3333 40.0027 77.3333C49.9041 77.3333 59.4 73.4 66.4014 66.3987C73.4027 59.3973 77.336 49.9014 77.336 40Z" fill="#598A18"/>
<path d="M49.9399 17.86C50.9599 18.16 51.6799 18.7 51.9199 19.78C52.0399 20.2 52.0999 20.68 52.1599 21.16C52.3399 22.12 52.5199 23.08 52.6999 24.1C53.0599 24.1 53.4199 24.1 53.7799 24.1C54.4999 24.1 55.2199 24.1 55.9999 24.1C57.4999 24.1 58.5799 25.24 58.5799 26.74C58.5799 27.58 58.5799 28.42 58.5799 29.26C58.5799 35.68 58.5799 42.1 58.5799 48.52C58.5799 49.24 58.3999 49.54 57.9199 49.54C57.4999 49.54 57.2599 49.24 57.2599 48.58C57.2599 41.38 57.2599 34.24 57.2599 27.04C57.2599 25.9 56.7799 25.42 55.6399 25.42C47.5999 25.42 39.4999 25.42 31.4599 25.42C30.3199 25.42 29.8399 25.84 29.8399 26.98C29.8399 37.72 29.8399 48.52 29.8399 59.26C29.8399 60.4 30.3199 60.82 31.3999 60.82C39.4999 60.82 47.5399 60.82 55.6399 60.82C56.7799 60.82 57.1999 60.34 57.1999 59.26C57.1999 56.92 57.1999 54.52 57.1999 52.18C57.1999 52.06 57.1999 51.94 57.1999 51.82C57.2599 51.52 57.4399 51.28 57.7999 51.28C58.0999 51.28 58.3399 51.4 58.4599 51.76C58.5199 51.88 58.5199 52.06 58.5199 52.24C58.5199 54.64 58.5199 57.04 58.5199 59.44C58.5199 61.18 57.4399 62.2 55.7599 62.2C47.5999 62.2 39.4399 62.2 31.3399 62.2C29.6599 62.2 28.5799 61.12 28.5799 59.44C28.5799 58.6 28.3999 57.82 28.0999 57.04C25.4599 50.74 22.8199 44.44 20.1199 38.14C20.0599 38.02 19.9999 37.84 19.9999 37.72C19.9399 37.42 20.1199 37.18 20.4199 37.06C20.7199 36.94 20.9599 37.06 21.1999 37.3C21.2599 37.42 21.3199 37.54 21.3799 37.66C23.7199 43.18 25.9999 48.7 28.3399 54.22C28.3999 54.4 28.4599 54.52 28.6399 54.64C27.0799 45.88 25.5799 37.12 24.0199 28.3C23.8999 28.36 23.7799 28.36 23.7199 28.36C22.3399 28.96 20.9599 29.5 19.6399 30.1C18.8599 30.4 18.6799 30.94 18.9799 31.72C19.3399 32.62 19.6999 33.46 20.0599 34.36C20.2399 34.84 20.1799 35.2 19.7599 35.38C19.3999 35.56 19.0399 35.38 18.8599 34.84C18.4999 33.94 18.0799 33.04 17.7199 32.14C17.1799 30.82 17.7199 29.5 19.0399 28.96C20.5999 28.3 22.1599 27.64 23.7799 26.98C23.6599 26.32 23.5399 25.66 23.4199 25C23.2399 23.62 24.0199 22.42 25.3999 22.18C28.1599 21.7 30.9199 21.22 33.6199 20.74C37.9399 19.96 42.2599 19.24 46.6399 18.46C47.4799 18.34 48.2599 18.16 49.0999 17.98C49.3999 17.86 49.6999 17.86 49.9399 17.86ZM51.4399 24.04C51.1999 22.66 50.9599 21.34 50.7199 20.08C50.5999 19.42 49.9999 19 49.2799 19.12C46.8199 19.54 44.3599 19.96 41.8999 20.44C37.9999 21.1 34.0999 21.82 30.1999 22.48C28.6999 22.72 27.2599 23.02 25.7599 23.26C24.9199 23.38 24.5599 23.98 24.6799 24.76C24.7999 25.36 24.8599 25.96 24.9799 26.56C25.9999 32.38 27.0199 38.26 28.0999 44.08C28.2199 44.92 28.3999 45.76 28.5199 46.54H28.5799C28.5799 46.36 28.5799 46.18 28.5799 46C28.5799 39.58 28.5799 33.22 28.5799 26.8C28.5799 26.56 28.5799 26.32 28.6399 26.14C28.8799 24.82 29.8999 23.98 31.3399 23.98C37.8199 23.98 44.2999 23.98 50.8399 23.98C51.0199 24.04 51.1999 24.04 51.4399 24.04Z" fill="#598A18"/>
<path d="M38.48 41.08C38.3 41.86 37.76 42.1 36.98 42.04C36.56 42.04 36.08 42.04 35.66 42.04C34.94 42.04 34.52 41.62 34.52 40.84C34.52 39.58 34.52 38.38 34.52 37.12C34.52 36.4 34.94 35.98 35.66 35.98C36.14 35.98 36.62 35.98 37.1 35.98C37.94 35.98 38.18 36.16 38.48 36.94C38.6 36.94 38.72 36.94 38.9 36.94C41.18 36.94 43.46 36.94 45.74 36.94C46.46 36.94 47.18 36.76 47.78 36.4C48.86 35.8 50 35.2 51.08 34.6C51.98 34.12 52.64 34.54 52.64 35.56C52.64 37.84 52.64 40.12 52.64 42.4C52.64 43.42 51.98 43.84 51.08 43.36C49.94 42.76 48.8 42.16 47.72 41.5C47 41.14 46.28 41.02 45.5 41.02C45.2 41.02 45.14 41.14 45.14 41.38C45.14 42.28 45.14 43.18 45.14 44.08C45.14 44.44 45.08 44.8 44.72 44.98C44.36 45.16 44 45.04 43.7 44.8C43.4 44.56 43.1 44.32 42.74 44.08C42.44 44.32 42.08 44.56 41.78 44.8C41.48 45.04 41.18 45.16 40.76 44.98C40.4 44.8 40.28 44.44 40.28 44.02C40.28 43 40.28 41.98 40.28 40.96C39.74 41.08 39.14 41.08 38.48 41.08ZM38.48 38.26C38.48 38.8 38.48 39.28 38.48 39.76C38.66 39.76 38.84 39.76 39.02 39.76C41.3 39.76 43.52 39.76 45.8 39.76C46.7 39.76 47.54 39.94 48.32 40.42C49.22 40.9 50.12 41.38 51.02 41.86C51.14 41.92 51.26 41.98 51.38 42.04C51.38 40 51.38 38.08 51.38 36.04C51.2 36.1 51.08 36.16 50.96 36.22C50.12 36.7 49.28 37.12 48.44 37.6C47.6 38.08 46.7 38.26 45.74 38.26C43.46 38.26 41.24 38.26 38.96 38.26C38.84 38.26 38.66 38.26 38.48 38.26ZM35.84 37.3C35.84 38.44 35.84 39.58 35.84 40.72C36.32 40.72 36.74 40.72 37.16 40.72C37.16 39.58 37.16 38.44 37.16 37.3C36.68 37.3 36.26 37.3 35.84 37.3ZM41.72 41.02C41.72 41.8 41.72 42.52 41.72 43.36C42.44 42.58 43.16 42.64 43.94 43.3C43.94 42.46 43.94 41.74 43.94 41.02C43.16 41.02 42.44 41.02 41.72 41.02Z" fill="#598A18"/>
<path d="M43.64 28.36C46.7 28.36 49.76 28.36 52.82 28.36C52.94 28.36 53.12 28.36 53.24 28.36C53.6 28.42 53.84 28.6 53.84 28.96C53.84 29.32 53.66 29.5 53.3 29.62H53.24C52.52 29.44 52.22 29.92 51.92 30.46C51.62 31 51.26 31.54 50.9 32.08C50.24 33.1 49.16 33.1 48.5 32.08C48.02 31.36 47.54 30.64 47.06 29.92C46.82 29.5 46.46 29.56 46.22 29.92C45.74 30.64 45.26 31.42 44.78 32.14C44.18 33.1 43.1 33.1 42.44 32.14C41.96 31.42 41.48 30.64 41 29.92C40.76 29.5 40.4 29.5 40.16 29.92C39.68 30.64 39.2 31.36 38.78 32.08C38.12 33.1 37.04 33.1 36.38 32.08C35.9 31.36 35.42 30.64 35 29.92C34.88 29.68 34.7 29.56 34.4 29.62C34.22 29.62 34.04 29.62 33.86 29.56C33.56 29.44 33.38 29.2 33.44 28.9C33.5 28.6 33.68 28.36 33.98 28.36C34.16 28.36 34.28 28.36 34.46 28.36C37.52 28.36 40.58 28.36 43.64 28.36ZM36.32 29.68C36.74 30.34 37.1 30.94 37.52 31.54C37.94 30.88 38.3 30.28 38.72 29.68C37.94 29.68 37.16 29.68 36.32 29.68ZM42.38 29.68C42.8 30.34 43.16 30.94 43.58 31.54C44 30.88 44.36 30.28 44.78 29.68C44 29.68 43.22 29.68 42.38 29.68ZM50.9 29.68C50.06 29.68 49.28 29.68 48.5 29.68C48.92 30.34 49.28 30.88 49.7 31.54C50.06 30.94 50.48 30.34 50.9 29.68Z" fill="#598A18"/>
<path d="M43.64 48.04C45.8 48.04 47.9599 48.04 50.12 48.04C50.24 48.04 50.42 48.04 50.54 48.04C50.9 48.1 51.08 48.28 51.14 48.64C51.14 49 50.96 49.24 50.66 49.3C50.54 49.36 50.36 49.3 50.18 49.3C45.86 49.3 41.48 49.3 37.16 49.3C37.04 49.3 36.86 49.3 36.74 49.3C36.38 49.24 36.2 49 36.2 48.64C36.2 48.28 36.44 48.1 36.8 48.04C36.92 48.04 37.1 48.04 37.22 48.04C39.32 48.04 41.48 48.04 43.64 48.04Z" fill="#598A18"/>
<path d="M48.14 55.6C47.42 55.6 46.7 55.6 45.92 55.6C45.44 55.6 45.2 55.36 45.2 55C45.2 54.58 45.44 54.34 45.92 54.34C47.42 54.34 48.86 54.34 50.36 54.34C50.84 54.34 51.08 54.64 51.08 55C51.08 55.36 50.84 55.6 50.36 55.6C49.64 55.6 48.86 55.6 48.14 55.6Z" fill="#598A18"/>
<path d="M39.0799 55.6C38.3599 55.6 37.6399 55.6 36.8599 55.6C36.3799 55.6 36.1399 55.36 36.1399 54.94C36.1399 54.58 36.3799 54.28 36.8599 54.28C38.3599 54.28 39.8599 54.28 41.3599 54.28C41.7799 54.28 42.0799 54.58 42.0799 54.94C42.0799 55.3 41.7799 55.54 41.3599 55.6C40.5799 55.6 39.7999 55.6 39.0799 55.6Z" fill="#598A18"/>
<path d="M48.14 52.48C47.42 52.48 46.7 52.48 45.98 52.48C45.5 52.48 45.2 52.24 45.2 51.82C45.2 51.4 45.5 51.16 45.98 51.16C47.42 51.16 48.86 51.16 50.3 51.16C50.78 51.16 51.08 51.4 51.08 51.82C51.08 52.24 50.78 52.48 50.3 52.48C49.58 52.48 48.86 52.48 48.14 52.48Z" fill="#598A18"/>
<path d="M39.0799 51.22C39.7999 51.22 40.5199 51.22 41.2399 51.22C41.7199 51.22 42.0199 51.46 42.0199 51.88C42.0199 52.3 41.7199 52.54 41.2399 52.54C39.7999 52.54 38.3599 52.54 36.9199 52.54C36.4399 52.54 36.1399 52.3 36.1399 51.88C36.1399 51.46 36.4399 51.22 36.9199 51.22C37.6399 51.16 38.3599 51.22 39.0799 51.22Z" fill="#598A18"/>
<path d="M39.0798 57.46C39.7998 57.46 40.5198 57.46 41.2998 57.46C41.7798 57.46 42.0798 57.7 42.0198 58.12C42.0198 58.48 41.7798 58.78 41.2998 58.78C39.7998 58.78 38.2998 58.78 36.7998 58.78C36.3198 58.78 36.0798 58.54 36.0798 58.12C36.0798 57.7 36.3198 57.52 36.7998 57.46C37.5798 57.46 38.2998 57.46 39.0798 57.46Z" fill="#598A18"/>
<path d="M48.2 57.46C48.92 57.46 49.64 57.46 50.36 57.46C50.84 57.46 51.14 57.7 51.14 58.12C51.14 58.54 50.9 58.78 50.42 58.78C48.98 58.78 47.48 58.78 46.04 58.78C45.56 58.78 45.26 58.54 45.26 58.12C45.26 57.7 45.5 57.46 46.04 57.46C46.7 57.46 47.48 57.46 48.2 57.46Z" fill="#598A18"/>
</g>
<defs>
<clipPath id="clip0_251_1137">
<rect width="80" height="80" fill="white"/>
</clipPath>
</defs>
</svg>
