<svg width="80" height="80" viewBox="0 0 80 80" fill="none" xmlns="http://www.w3.org/2000/svg">
<g clip-path="url(#clip0_251_1586)">
<path d="M80.0027 42.3467C79.8027 43.88 79.6694 45.44 79.376 46.96C78.3576 52.9524 75.9669 58.6281 72.391 63.5433C68.8151 68.4584 64.1507 72.4799 58.7627 75.2933C52.5377 78.7743 45.4406 80.3854 38.3227 79.9333C23.3227 79 12.0694 71.9333 4.72273 58.76C1.21611 52.5497 -0.396821 45.4491 0.0827281 38.3333C1.00273 23.28 8.14939 12.04 21.3361 4.68C26.17 2.00762 31.5419 0.453907 37.0561 0.133333C37.2633 0.10307 37.4683 0.0585198 37.6694 0H42.3494C42.5719 0.0636474 42.7993 0.108253 43.0294 0.133333C47.0848 0.379476 51.0696 1.30806 54.816 2.88C68.3094 8.66667 76.5627 18.7467 79.3894 33.1867C79.6694 34.6667 79.8027 36.16 80.0027 37.6533V42.3467ZM77.336 40C77.336 32.6162 75.1465 25.3982 71.0442 19.2587C66.942 13.1193 61.1113 8.33417 54.2896 5.5085C47.4678 2.68283 39.9613 1.9435 32.7193 3.38402C25.4774 4.82453 18.8252 8.38019 13.6041 13.6013C8.38291 18.8225 4.82726 25.4747 3.38674 32.7166C1.94623 39.9586 2.68555 47.4651 5.51122 54.2868C8.3369 61.1086 13.122 66.9393 19.2614 71.0415C25.4009 75.1438 32.6189 77.3333 40.0027 77.3333C49.9041 77.3333 59.4 73.4 66.4014 66.3987C73.4027 59.3973 77.336 49.9014 77.336 40Z" fill="#598A18"/>
<path d="M41.62 28.06C43.24 28.06 44.86 28.06 46.42 28.06C47.56 28.06 48.22 29.14 47.74 30.1C47.5 30.58 47.08 30.82 46.54 30.88C46.36 30.88 46.18 30.88 46 30.88C46 31.96 46 32.98 46 33.94C46 42.4 46 50.86 46 59.32C46 60.1 46 60.88 46 61.6C46 62.74 45.1 63.64 43.96 63.64C40.66 63.64 37.42 63.64 34.12 63.64C32.92 63.64 32.02 62.74 32.02 61.48C32.02 56.68 32.02 51.82 32.02 47.02C32.02 40.78 32.02 34.48 32.02 28.24C32.02 26.8 32.74 26.02 34.24 26.02C35.92 26.02 37.6 26.02 39.28 26.02C40.72 26.14 41.32 26.62 41.62 28.06ZM44.92 58.78C44.92 51.76 44.92 44.8 44.92 37.84C40.96 37.84 37.06 37.84 33.16 37.84C33.16 44.86 33.16 51.82 33.16 58.78C37.06 58.78 40.96 58.78 44.92 58.78ZM40.54 32.92C40.54 31.3 40.54 29.8 40.54 28.24C40.54 27.52 40.24 27.22 39.52 27.22C37.72 27.22 35.92 27.22 34.12 27.22C33.4 27.22 33.16 27.52 33.1 28.24C33.1 29.44 33.1 30.64 33.1 31.84C33.1 32.2 33.1 32.56 33.1 32.92C35.56 32.92 38.02 32.92 40.54 32.92ZM33.1 36.7C37.06 36.7 40.96 36.7 44.86 36.7C44.86 35.8 44.86 34.9 44.86 34C40.9 34 37 34 33.1 34C33.1 34.96 33.1 35.8 33.1 36.7ZM33.1 59.92C33.1 60.46 33.1 60.94 33.1 61.36C33.1 62.26 33.46 62.62 34.36 62.62C36.34 62.62 38.38 62.62 40.36 62.62C41.5 62.62 42.64 62.62 43.78 62.62C44.38 62.62 44.8 62.32 44.86 61.78C44.92 61.18 44.86 60.52 44.86 59.92C40.96 59.92 37.06 59.92 33.1 59.92ZM41.62 32.92C42.76 32.92 43.84 32.92 44.98 32.92C44.98 32.74 44.98 32.62 44.98 32.44C44.44 32.44 43.96 32.44 43.48 32.44C43.12 32.44 42.82 32.32 42.82 31.9C42.82 31.48 43.12 31.36 43.48 31.36C43.9 31.36 44.38 31.36 44.8 31.36C44.86 31.36 44.92 31.36 44.98 31.3C44.98 31.18 44.98 31 44.98 30.88C43.84 30.88 42.76 30.88 41.68 30.88C41.62 31.6 41.62 32.2 41.62 32.92ZM41.62 29.14C41.62 29.38 41.62 29.56 41.62 29.8C43.24 29.8 44.86 29.8 46.48 29.8C46.6 29.8 46.72 29.56 46.84 29.5C46.72 29.38 46.6 29.2 46.42 29.2C45.82 29.14 45.22 29.2 44.62 29.2C43.66 29.14 42.64 29.14 41.62 29.14Z" fill="#598A18"/>
<path d="M36.7598 25.78C34.2998 25.72 32.5598 23.26 33.5798 21.04C34.0598 19.96 34.7798 19 35.3798 17.98C35.6798 17.5 35.9798 17.08 36.2798 16.66C36.5798 16.3 36.9398 16.24 37.1798 16.6C38.1398 18.04 39.1598 19.42 39.9398 20.98C40.8998 22.96 39.6998 25.24 37.4798 25.72C37.2998 25.72 37.0598 25.72 36.7598 25.78ZM36.9398 17.86C36.8798 17.86 36.7598 17.86 36.6998 17.86C35.9798 19 35.2598 20.14 34.5998 21.34C34.0598 22.36 34.4198 23.5 35.3198 24.16C36.2198 24.82 37.4198 24.82 38.2598 24.16C39.1598 23.5 39.5198 22.36 38.9798 21.34C38.3798 20.14 37.5998 19 36.9398 17.86Z" fill="#598A18"/>
<path d="M43.9001 48.34C43.9001 50.74 43.9001 53.14 43.9001 55.54C43.9001 55.72 43.9601 55.9 43.9001 56.02C43.7801 56.2 43.5401 56.5 43.3601 56.5C43.1801 56.5 43.0001 56.2 42.8201 56.02C42.7601 55.96 42.8201 55.78 42.8201 55.66C42.8201 50.8 42.8201 45.94 42.8201 41.08C42.8201 41.02 42.8201 40.96 42.8201 40.96C42.8201 40.48 43.0001 40.18 43.3601 40.24C43.8401 40.3 43.9001 40.6 43.9001 40.96C43.8401 43.36 43.9001 45.88 43.9001 48.34Z" fill="#598A18"/>
<path d="M35.26 48.3401C35.26 50.8001 35.26 53.2001 35.26 55.6601C35.26 55.7801 35.32 55.9601 35.26 56.0801C35.14 56.2601 34.9 56.5001 34.72 56.5001C34.54 56.5001 34.36 56.2601 34.24 56.0801C34.18 55.9601 34.24 55.7801 34.24 55.6001C34.24 50.7401 34.24 45.9401 34.24 41.0801C34.24 40.4201 34.42 40.1801 34.78 40.1801C35.14 40.1801 35.32 40.4801 35.32 41.1401C35.26 43.4801 35.26 45.9401 35.26 48.3401Z" fill="#598A18"/>
<path d="M35.0199 30.1C35.0199 30.4 35.0199 30.7 35.0199 31C35.0199 31.3 34.8399 31.54 34.4799 31.54C34.1199 31.54 33.9399 31.3 33.9399 31C33.9399 30.4 33.9399 29.8 33.9399 29.2C33.9399 28.84 34.1199 28.6 34.4799 28.6C34.8399 28.6 35.0199 28.84 35.0199 29.2C35.0199 29.5 35.0199 29.8 35.0199 30.1Z" fill="#598A18"/>
<path d="M39.6401 30.04C39.6401 30.34 39.6401 30.64 39.6401 30.94C39.6401 31.3 39.4601 31.54 39.1001 31.54C38.7401 31.54 38.5601 31.3 38.5601 31C38.5601 30.4 38.5601 29.8 38.5601 29.2C38.5601 28.84 38.7401 28.6 39.1001 28.6C39.4601 28.6 39.6401 28.84 39.6401 29.2C39.7001 29.5 39.6401 29.8 39.6401 30.04Z" fill="#598A18"/>
</g>
<defs>
<clipPath id="clip0_251_1586">
<rect width="80" height="80" fill="white"/>
</clipPath>
</defs>
</svg>
