<svg width="80" height="80" viewBox="0 0 80 80" fill="none" xmlns="http://www.w3.org/2000/svg">
<g clip-path="url(#clip0_251_1345)">
<path d="M80.0027 42.3467C79.8027 43.88 79.6694 45.44 79.376 46.96C78.3576 52.9524 75.9669 58.6281 72.391 63.5433C68.8151 68.4584 64.1507 72.4799 58.7627 75.2933C52.5377 78.7743 45.4406 80.3854 38.3227 79.9333C23.3227 79 12.0694 71.9333 4.72273 58.76C1.21611 52.5497 -0.396821 45.4491 0.0827281 38.3333C1.00273 23.28 8.14939 12.04 21.3361 4.68C26.17 2.00762 31.5419 0.453907 37.0561 0.133333C37.2633 0.10307 37.4683 0.0585198 37.6694 0H42.3494C42.5719 0.0636474 42.7993 0.108253 43.0294 0.133333C47.0848 0.379476 51.0696 1.30806 54.816 2.88C68.3094 8.66667 76.5627 18.7467 79.3894 33.1867C79.6694 34.6667 79.8027 36.16 80.0027 37.6533V42.3467ZM77.336 40C77.336 32.6162 75.1465 25.3982 71.0442 19.2587C66.942 13.1193 61.1113 8.33417 54.2896 5.5085C47.4678 2.68283 39.9613 1.9435 32.7193 3.38402C25.4774 4.82453 18.8252 8.38019 13.6041 13.6013C8.38291 18.8225 4.82726 25.4747 3.38674 32.7166C1.94623 39.9586 2.68555 47.4651 5.51122 54.2868C8.3369 61.1086 13.122 66.9393 19.2614 71.0415C25.4009 75.1438 32.6189 77.3333 40.0027 77.3333C49.9041 77.3333 59.4 73.4 66.4014 66.3987C73.4027 59.3973 77.336 49.9014 77.336 40Z" fill="#598A18"/>
<path d="M25.2999 19.2C26.2999 19.55 26.9499 20.15 26.9999 21.25C26.9999 21.65 26.9999 22.1 26.9999 22.5C26.9999 22.65 26.9999 22.75 26.9999 22.9C27.0499 22.95 27.0499 22.95 27.0999 22.95C27.8999 23 27.9499 23.1 27.9499 23.9C27.9499 24.15 27.9499 24.35 27.9499 24.6C28.1499 24.65 28.3499 24.65 28.4999 24.7C29.5499 24.9 30.2499 25.7 30.2499 26.75C30.2499 27.5 30.1499 28.25 29.9499 28.95C29.4499 30.8 28.9499 32.6 28.8499 34.55C28.7999 35.2 28.8999 35.85 28.9999 36.5C29.1499 37.2 29.5499 37.8 30.1999 38.15C30.5499 38.35 30.6499 38.65 30.4999 38.9C30.3499 39.15 29.9999 39.2 29.6499 39C28.8499 38.55 28.3499 37.9 28.0999 37C28.0499 36.85 27.9999 36.75 27.8999 36.6C27.8999 36.75 27.8999 36.9 27.8999 37.05C27.8999 42.2 27.8999 47.3 27.8999 52.45C27.8999 52.9 27.8499 53.25 27.2999 53.3C27.1999 53.3 27.1499 53.45 27.0499 53.55C26.0999 55.35 25.0999 57.15 24.1499 58.95C24.0499 59.15 24.0499 59.45 24.0499 59.7C24.0499 59.85 24.0499 60.05 24.0499 60.25C23.9999 60.55 23.8499 60.7 23.5499 60.7C23.2499 60.7 23.0999 60.5 23.0499 60.2C23.0499 60.15 23.0499 60.15 23.0499 60.1C23.1999 59.35 22.8499 58.8 22.4999 58.15C21.6499 56.7 20.8499 55.2 20.0499 53.7C19.8999 53.45 19.7999 53.25 19.4999 53.2C19.3999 53.2 19.2499 53.05 19.1499 52.95C19.1499 43.05 19.1499 33.1 19.1499 23.2C19.4499 23.05 19.7499 22.95 20.0999 22.75C20.0999 22.7 20.0999 22.55 20.0999 22.45C20.0999 22.05 20.0999 21.6 20.0999 21.2C20.1499 20.1 20.7999 19.45 21.7999 19.15C22.9999 19.2 24.1499 19.2 25.2999 19.2ZM20.2499 24C20.2499 33.45 20.2499 42.85 20.2499 52.25C22.4499 52.25 24.6499 52.25 26.8499 52.25C26.8499 42.8 26.8499 33.4 26.8499 24C24.6499 24 22.4499 24 20.2499 24ZM25.9499 22.95C25.9499 22.35 25.9499 21.75 25.9499 21.2C25.9499 20.7 25.4999 20.25 24.9999 20.25C24.0499 20.25 23.0999 20.25 22.1499 20.25C21.6999 20.25 21.2499 20.65 21.2499 21.05C21.1999 21.65 21.2499 22.3 21.2499 22.9C22.7999 22.95 24.3499 22.95 25.9499 22.95ZM23.5999 58C24.4499 56.45 25.2499 54.9 26.0999 53.4C24.3999 53.4 22.7499 53.4 21.0499 53.4C21.8999 54.95 22.7499 56.45 23.5999 58ZM27.9499 32.9C28.2999 31.55 28.6999 30.1 28.9999 28.65C29.1499 28.05 29.1999 27.45 29.1999 26.8C29.1999 26.1 28.6999 25.7 27.9499 25.75C27.9499 28.15 27.9499 30.55 27.9499 32.9Z" fill="#598A18"/>
<path d="M40.35 19.2001C40.5 19.2501 40.7 19.3501 40.85 19.4001C41.65 19.8001 42 20.5001 42 21.4001C42 21.9001 42 22.4001 42 22.9501C42.15 22.9501 42.25 22.9501 42.35 22.9501C42.75 22.9501 42.95 23.2001 42.95 23.5501C42.95 23.9001 42.95 24.2001 42.95 24.6001C43.1 24.6501 43.25 24.6501 43.35 24.7001C44.55 24.9501 45.3 25.7501 45.3 26.9501C45.3 27.7001 45.1 28.4001 44.95 29.1501C44.6 30.8001 44.2 32.4501 43.95 34.1001C43.85 34.8501 43.95 35.7001 44.05 36.4501C44.15 37.1501 44.55 37.7501 45.2 38.1001C45.6 38.3001 45.65 38.6001 45.5 38.9001C45.35 39.1501 45.05 39.2001 44.65 39.0001C43.9 38.5501 43.4 37.9001 43.1 37.1001C43.05 37.0001 43.05 36.8501 42.9 36.7001C42.9 36.8501 42.9 37.0001 42.9 37.1501C42.9 42.2501 42.9 47.3001 42.9 52.4001C42.9 52.8501 42.9 53.2501 42.3 53.3001C42.25 53.3001 42.15 53.4501 42.1 53.5501C41.1 55.3501 40.15 57.1501 39.2 58.9501C39.1 59.1501 39.1 59.4501 39.1 59.7001C39.1 59.9001 39.15 60.1501 39.05 60.3001C38.95 60.4501 38.75 60.6501 38.6 60.6501C38.4 60.6501 38.25 60.4001 38.1 60.3001C38.05 60.2501 38.05 60.2001 38.1 60.1501C38.25 59.4001 37.85 58.8001 37.55 58.2001C36.7 56.7001 35.9 55.2001 35.05 53.7001C34.95 53.5501 34.75 53.4501 34.6 53.3001C34.45 53.1501 34.3 53.0001 34.25 52.8501C34.2 52.7001 34.25 52.5501 34.25 52.3501C34.25 42.9501 34.25 33.5001 34.25 24.1001C34.25 23.1001 34.25 23.1001 35.2 22.9001C35.2 22.5501 35.2 22.2501 35.2 21.9001C35.1 20.6001 35.55 19.6501 36.85 19.2001C38.05 19.2001 39.2 19.2001 40.35 19.2001ZM35.35 24.0001C35.35 33.4501 35.35 42.8501 35.35 52.2501C37.6 52.2501 39.8 52.2501 42 52.2501C42 42.8001 42 33.4001 42 24.0001C39.75 24.0001 37.55 24.0001 35.35 24.0001ZM41 22.9501C41 22.3501 41 21.7501 41 21.2001C40.95 20.7001 40.55 20.3001 40.05 20.3001C39.1 20.3001 38.2 20.3001 37.25 20.3001C36.8 20.3001 36.35 20.6501 36.3 21.1001C36.25 21.7001 36.3 22.3501 36.3 22.9501C37.85 22.9501 39.4 22.9501 41 22.9501ZM38.65 58.0001C39.5 56.4001 40.3 54.9001 41.15 53.3501C39.45 53.3501 37.8 53.3501 36.1 53.3501C36.95 54.9001 37.8 56.4001 38.65 58.0001ZM43.05 25.7001C43.05 28.1001 43.05 30.5001 43.05 32.8001C43.4 31.3001 43.8 29.8001 44.2 28.2501C44.3 27.7501 44.35 27.2501 44.35 26.7501C44.25 26.0501 43.8 25.7501 43.05 25.7001Z" fill="#598A18"/>
<path d="M55.45 19.2001C55.6 19.2501 55.6999 19.3001 55.8499 19.3501C56.5499 19.7001 57.0499 20.2501 57.0999 21.0501C57.1499 21.6501 57.0999 22.2501 57.0999 22.9001C57.2499 22.9001 57.35 22.9001 57.45 22.9501C57.9 23.0001 58.0499 23.1501 58.0499 23.6001C58.0499 23.9501 58.0499 24.2501 58.0499 24.6001C58.4 24.7001 58.7 24.7001 59 24.8501C60.05 25.2501 60.6 26.2501 60.4 27.4501C60.25 28.5001 59.95 29.5501 59.7 30.6001C59.3 32.2001 58.95 33.8001 59 35.4501C59.05 36.3001 59.1999 37.1501 59.8499 37.8001C59.9999 37.9501 60.2 38.1001 60.4 38.2001C60.65 38.4001 60.8 38.6001 60.65 38.9001C60.5 39.1501 60.1999 39.2501 59.8499 39.0501C59.0499 38.6501 58.55 37.9501 58.25 37.1501C58.2 37.0001 58.15 36.8501 58.0499 36.7001C58.0499 36.8501 58.0499 36.9501 58.0499 37.1001C58.0499 42.2001 58.0499 47.3501 58.0499 52.4501C58.0499 52.9001 58.05 53.2501 57.45 53.3501C57.35 53.3501 57.3 53.5001 57.25 53.6001C56.25 55.4001 55.2499 57.2001 54.2999 59.0501C54.1499 59.4001 54.2 59.8501 54.15 60.2501C54.1 60.5501 53.95 60.7501 53.65 60.7501C53.35 60.7501 53.2 60.6001 53.15 60.3501C53.15 60.2501 53.0999 60.1501 53.0999 60.0501C53.1999 59.4501 52.95 58.9501 52.65 58.4501C51.75 56.8501 50.8999 55.3001 50.0499 53.7001C49.9499 53.5501 49.75 53.4501 49.65 53.3501C49.5 53.2001 49.35 53.0501 49.25 52.9001C49.2 52.7501 49.2 52.6001 49.2 52.4001C49.2 42.9501 49.2 33.5001 49.2 24.0001C49.2 23.1001 49.25 23.0501 50.15 22.9501C50.15 22.6001 50.15 22.2501 50.15 21.9001C50.05 20.6001 50.5499 19.6501 51.8499 19.2001C53.1499 19.2001 54.3 19.2001 55.45 19.2001ZM50.4 24.0001C50.4 33.4001 50.4 42.8501 50.4 52.2501C52.6 52.2501 54.7999 52.2501 57.0499 52.2501C57.0499 42.8001 57.0499 33.4001 57.0499 24.0001C54.7999 24.0001 52.6 24.0001 50.4 24.0001ZM56.0999 22.9501C56.0999 22.8001 56.0999 22.6501 56.0999 22.5501C56.0999 22.1001 56.0999 21.7001 56.0999 21.2501C56.0499 20.6501 55.6499 20.2501 55.0499 20.2501C54.1499 20.2501 53.3 20.2501 52.4 20.2501C51.9 20.2501 51.45 20.6001 51.4 21.1001C51.35 21.7001 51.4 22.3501 51.4 22.9501C52.9 22.9501 54.4499 22.9501 56.0999 22.9501ZM56.2 53.3501C54.5 53.3501 52.85 53.3501 51.15 53.3501C52 54.9001 52.85 56.4001 53.7 58.0001C54.55 56.4501 55.4 54.9001 56.2 53.3501ZM58.0999 25.7001C58.0999 28.1001 58.0999 30.5001 58.0999 32.8501C58.3999 31.6001 58.7499 30.3501 59.0499 29.0501C59.1999 28.4501 59.35 27.8001 59.4 27.2001C59.5 26.2501 58.9999 25.7001 58.0999 25.7001Z" fill="#598A18"/>
</g>
<defs>
<clipPath id="clip0_251_1345">
<rect width="80" height="80" fill="white"/>
</clipPath>
</defs>
</svg>
