<svg width="80" height="80" viewBox="0 0 80 80" fill="none" xmlns="http://www.w3.org/2000/svg">
<g clip-path="url(#clip0_251_962)">
<path d="M80.0027 42.3467C79.8027 43.88 79.6694 45.44 79.376 46.96C78.3576 52.9524 75.9669 58.6281 72.391 63.5433C68.8151 68.4584 64.1507 72.4799 58.7627 75.2933C52.5377 78.7743 45.4406 80.3854 38.3227 79.9333C23.3227 79 12.0694 71.9333 4.72273 58.76C1.21611 52.5497 -0.396821 45.4491 0.0827281 38.3333C1.00273 23.28 8.14939 12.04 21.3361 4.68C26.17 2.00762 31.5419 0.453907 37.0561 0.133333C37.2633 0.10307 37.4683 0.0585198 37.6694 0H42.3494C42.5719 0.0636474 42.7993 0.108253 43.0294 0.133333C47.0848 0.379476 51.0696 1.30806 54.816 2.88C68.3094 8.66667 76.5627 18.7467 79.3894 33.1867C79.6694 34.6667 79.8027 36.16 80.0027 37.6533V42.3467ZM77.336 40C77.336 32.6162 75.1465 25.3982 71.0442 19.2587C66.942 13.1193 61.1113 8.33417 54.2896 5.5085C47.4678 2.68283 39.9613 1.9435 32.7193 3.38402C25.4774 4.82453 18.8252 8.38019 13.6041 13.6013C8.38291 18.8225 4.82726 25.4747 3.38674 32.7166C1.94623 39.9586 2.68555 47.4651 5.51122 54.2868C8.3369 61.1086 13.122 66.9393 19.2614 71.0415C25.4009 75.1438 32.6189 77.3333 40.0027 77.3333C49.9041 77.3333 59.4 73.4 66.4014 66.3987C73.4027 59.3973 77.336 49.9014 77.336 40Z" fill="#598A18"/>
<path d="M39.2202 18.04C39.4602 18.22 39.6402 18.34 39.8202 18.52C42.1602 20.86 44.5002 23.2 46.8402 25.54C47.3802 26.08 47.4402 26.5 47.0802 26.86C46.7202 27.22 46.2402 27.16 45.7602 26.62C43.6002 24.46 41.5002 22.36 39.3402 20.2C39.2202 20.08 39.1002 19.96 39.0402 19.9C36.5202 22.48 34.0002 25 31.4202 27.58C31.6002 27.58 31.7802 27.58 31.9002 27.58C39.2802 27.58 46.6602 27.58 54.1002 27.58C55.4802 27.58 56.6202 28 57.5202 29.14C58.0602 29.86 58.3602 30.7 58.3602 31.6C58.3602 33.1 58.3602 34.66 58.3602 36.16C58.3602 36.76 58.0602 37.12 57.5802 37.12C57.1002 37.12 56.8002 36.76 56.8002 36.16C56.8002 34.66 56.8002 33.22 56.8002 31.72C56.8002 30.16 55.8402 29.14 54.2202 29.14C44.6202 29.14 34.9602 29.14 25.3602 29.14C23.3202 29.14 21.8802 30.28 21.3402 32.14C21.2202 32.56 21.2202 32.98 21.2202 33.34C21.2202 40.96 21.2202 48.52 21.2202 56.14C21.2202 58.24 22.3002 59.74 24.2202 60.28C24.6402 60.4 25.0602 60.4 25.4202 60.4C27.2802 60.4 29.0802 60.4 30.9402 60.4C31.1202 60.4 31.3002 60.4 31.4202 60.46C31.7802 60.58 31.9602 60.82 31.9602 61.18C31.9602 61.54 31.7802 61.78 31.4202 61.9C31.2402 61.96 31.0602 61.96 30.9402 61.96C29.0802 61.96 27.2802 61.96 25.4202 61.96C22.0602 61.96 19.6602 59.56 19.6602 56.2C19.6602 48.58 19.6602 40.96 19.6602 33.34C19.6602 32.44 19.7802 31.6 20.2002 30.82C21.2202 28.72 22.9602 27.64 25.3002 27.58C26.4402 27.58 27.6402 27.58 28.7802 27.58C29.0202 27.58 29.2602 27.46 29.4402 27.28C32.3202 24.4 35.2002 21.52 38.0802 18.7C38.3202 18.46 38.5602 18.28 38.8002 18.04C38.9202 18.04 39.1002 18.04 39.2202 18.04Z" fill="#598A18"/>
<path d="M56.8 51.64C56.62 51.64 56.44 51.64 56.26 51.64C53.2 51.64 50.2 51.64 47.14 51.64C45.46 51.64 44.5 50.68 44.5 49C44.5 46.18 44.5 43.36 44.5 40.48C44.5 38.86 45.52 37.84 47.14 37.84C50.62 37.84 54.1 37.84 57.58 37.84C59.26 37.84 60.22 38.8 60.22 40.48C60.22 43.3 60.22 46.18 60.22 49C60.22 50.32 59.68 51.04 58.48 51.52C58.36 51.58 58.24 51.82 58.24 51.94C58.24 53.92 58.24 55.9 58.24 57.88C58.24 59.5 57.52 60.82 56.02 61.48C55.48 61.72 54.82 61.9 54.22 61.9C47.62 61.9 41.02 61.9 34.42 61.9C34.3 61.9 34.24 61.9 34.12 61.9C33.7 61.84 33.46 61.48 33.46 61.12C33.46 60.76 33.76 60.46 34.12 60.4C34.3 60.4 34.48 60.4 34.66 60.4C41.08 60.4 47.5 60.34 53.86 60.4C55.6 60.4 56.8 59.38 56.74 57.52C56.74 55.6 56.8 53.68 56.8 51.64ZM52.42 50.14C54.16 50.14 55.9 50.14 57.64 50.14C58.42 50.14 58.72 49.84 58.72 49.06C58.72 46.24 58.72 43.36 58.72 40.54C58.72 39.76 58.36 39.46 57.64 39.46C54.16 39.46 50.68 39.46 47.2 39.46C46.42 39.46 46.06 39.76 46.06 40.6C46.06 43.42 46.06 46.24 46.06 49.06C46.06 49.9 46.36 50.14 47.2 50.14C48.94 50.14 50.68 50.14 52.42 50.14Z" fill="#598A18"/>
<path d="M50.8 47.62C49.24 47.62 47.98 46.36 47.92 44.8C47.86 43.3 49.12 41.98 50.68 41.86C51.16 41.86 51.52 42.1 51.58 42.52C51.64 43 51.34 43.3 50.8 43.36C49.84 43.48 49.3 44.26 49.54 45.1C49.72 45.7 50.26 46.06 50.92 46C51.52 45.94 52 45.52 52.12 44.92C52.12 44.8 52.12 44.74 52.18 44.62C52.3 44.14 52.6 43.9 53.02 43.96C53.44 44.02 53.68 44.32 53.68 44.8C53.62 46.36 52.3 47.62 50.8 47.62Z" fill="#598A18"/>
</g>
<defs>
<clipPath id="clip0_251_962">
<rect width="80" height="80" fill="white"/>
</clipPath>
</defs>
</svg>
