<svg width="80" height="80" viewBox="0 0 80 80" fill="none" xmlns="http://www.w3.org/2000/svg">
<g clip-path="url(#clip0_251_929)">
<path d="M80.0003 42.3467C79.8003 43.88 79.6669 45.44 79.3736 46.96C78.3551 52.9524 75.9645 58.6281 72.3886 63.5433C68.8126 68.4584 64.1483 72.4799 58.7603 75.2933C52.5352 78.7743 45.4381 80.3854 38.3203 79.9333C23.3203 79 12.067 71.9333 4.72029 58.76C1.21367 52.5497 -0.399263 45.4491 0.0802867 38.3333C1.00029 23.28 8.14695 12.04 21.3336 4.68C26.1675 2.00762 31.5395 0.453907 37.0536 0.133333C37.2609 0.10307 37.4658 0.0585198 37.6669 0H42.3469C42.5694 0.0636474 42.7969 0.108253 43.0269 0.133333C47.0823 0.379476 51.0672 1.30806 54.8136 2.88C68.3069 8.66667 76.5603 18.7467 79.3869 33.1867C79.6669 34.6667 79.8003 36.16 80.0003 37.6533V42.3467ZM77.3336 40C77.3336 32.6162 75.144 25.3982 71.0418 19.2587C66.9396 13.1193 61.1089 8.33417 54.2871 5.5085C47.4653 2.68283 39.9589 1.9435 32.7169 3.38402C25.475 4.82453 18.8228 8.38019 13.6016 13.6013C8.38047 18.8225 4.82482 25.4747 3.3843 32.7166C1.94379 39.9586 2.68311 47.4651 5.50878 54.2868C8.33445 61.1086 13.1196 66.9393 19.259 71.0415C25.3984 75.1438 32.6164 77.3333 40.0003 77.3333C49.9017 77.3333 59.3976 73.4 66.3989 66.3987C73.4003 59.3973 77.3336 49.9014 77.3336 40Z" fill="#598A18"/>
<path d="M24.8749 20.3C24.8749 19.7 24.8749 19.1 24.8749 18.5C24.8749 17.375 25.4749 16.85 26.5999 16.85C27.1999 16.85 27.7999 16.85 28.3999 16.85C29.2999 16.85 29.8999 17.45 29.9749 18.425C29.9749 19.025 29.9749 19.625 29.9749 20.3C32.2999 20.3 34.6249 20.3 37.0249 20.3C37.0249 19.775 37.0249 19.25 37.0249 18.65C37.0249 17.375 37.5499 16.85 38.8249 16.85C39.3499 16.85 39.8749 16.85 40.3999 16.85C41.4499 16.85 42.0499 17.45 42.0499 18.5C42.0499 19.1 42.0499 19.7 42.0499 20.3C44.3749 20.3 46.6999 20.3 49.0999 20.3C49.0999 19.775 49.0999 19.175 49.0999 18.65C49.0999 17.45 49.6999 16.85 50.8999 16.85C51.4249 16.85 51.9499 16.85 52.5499 16.85C53.5999 16.85 54.1999 17.45 54.1999 18.5C54.1999 19.1 54.1999 19.7 54.1999 20.375C55.1749 20.375 56.0749 20.375 56.9749 20.375C57.5749 20.375 58.2499 20.375 58.8499 20.525C60.4999 20.9 61.6249 22.4 61.6999 24.125C61.6999 24.35 61.6999 24.575 61.6999 24.725C61.6999 35.9 61.6999 47.075 61.6999 58.25C61.6999 58.625 61.6999 59.075 61.6249 59.45C61.3249 60.95 60.2749 61.85 58.5499 61.925C58.1749 61.925 57.7999 62 57.4999 62C45.5749 62 33.7249 62 21.7999 62C19.3999 62 17.8999 60.425 17.5999 58.775C17.5249 58.475 17.5249 58.1 17.5249 57.8C17.5249 46.7 17.5249 35.6 17.5249 24.5C17.5249 21.95 19.1749 20.3 21.7249 20.3C22.6999 20.3 23.7499 20.3 24.8749 20.3ZM18.3499 29.975C18.3499 30.125 18.3499 30.2 18.3499 30.35C18.3499 39.575 18.3499 48.8 18.3499 58.025C18.3499 58.25 18.3499 58.4 18.4249 58.625C18.7249 60.125 19.9249 61.1 21.4999 61.1C33.4999 61.1 45.5749 61.1 57.5749 61.1C57.7999 61.1 57.9499 61.1 58.1749 61.1C59.8249 61.025 60.5749 60.275 60.5749 58.625C60.5749 49.25 60.5749 39.95 60.5749 30.575C60.5749 30.425 60.5749 30.2 60.5749 30.05C46.4749 29.975 32.4499 29.975 18.3499 29.975ZM41.9749 21.35C41.9749 21.575 41.9749 21.725 41.9749 21.875C41.9749 22.85 41.9749 23.9 41.9749 24.875C41.9749 25.775 41.3749 26.45 40.5499 26.45C39.7999 26.45 39.1249 26.45 38.3749 26.45C37.6999 26.45 37.0999 25.925 37.0249 25.25C36.9499 25.025 36.9499 24.8 36.9499 24.5C36.9499 23.45 36.9499 22.4 36.9499 21.275C34.5499 21.275 32.2999 21.275 29.8999 21.275C29.8999 22.475 29.8999 23.675 29.8999 24.8C29.8999 25.775 29.2249 26.375 28.3249 26.375C27.7249 26.375 27.1249 26.375 26.5249 26.375C25.5499 26.375 24.9499 25.775 24.9499 24.8C24.9499 24.2 24.9499 23.525 24.9499 22.925C24.9499 22.325 24.9499 21.725 24.9499 21.125C23.7499 21.125 22.5499 21.125 21.4249 21.125C19.6999 21.125 18.4249 22.4 18.4249 24.125C18.4249 25.4 18.4249 26.75 18.4249 28.025C18.4249 28.25 18.4249 28.475 18.4249 28.625C32.5249 28.625 46.5499 28.625 60.5749 28.625C60.5749 26.975 60.6499 25.325 60.5749 23.75C60.4999 22.325 59.2249 21.2 57.7999 21.125C57.1249 21.125 56.3749 21.125 55.6999 21.125C55.1749 21.125 54.6499 21.125 54.1249 21.125C54.1249 21.35 54.1249 21.575 54.1249 21.725C54.1249 22.7 54.1249 23.675 54.1249 24.65C54.1249 25.625 53.5249 26.225 52.5499 26.225C51.9499 26.225 51.3499 26.225 50.7499 26.225C49.7749 26.225 49.1749 25.625 49.1749 24.65C49.1749 23.675 49.1749 22.625 49.1749 21.65C49.1749 21.425 49.1749 21.275 49.1749 21.05C46.6249 21.35 44.2999 21.35 41.9749 21.35ZM37.9249 21.725C37.9249 22.775 37.9249 23.825 37.9249 24.875C37.9249 25.325 38.1499 25.475 38.5249 25.475C39.1249 25.475 39.7249 25.475 40.3249 25.475C40.7749 25.475 40.9249 25.25 40.9249 24.8C40.9249 22.7 40.9249 20.525 40.9249 18.425C40.9249 17.975 40.7749 17.75 40.2499 17.75C39.7249 17.75 39.1249 17.75 38.5999 17.75C37.9999 17.75 37.9249 17.9 37.9249 18.425C37.9249 19.625 37.9249 20.675 37.9249 21.725ZM25.9249 21.65C25.9249 22.7 25.9249 23.825 25.9249 24.875C25.9249 25.325 26.1499 25.55 26.5249 25.55C27.1249 25.55 27.7249 25.55 28.3249 25.55C28.7749 25.55 28.9249 25.325 28.9249 24.95C28.9249 22.775 28.9249 20.675 28.9249 18.5C28.9249 18.05 28.6999 17.9 28.2499 17.9C27.7249 17.9 27.1249 17.9 26.5999 17.9C25.9999 17.9 25.9249 18.05 25.9249 18.575C25.9249 19.625 25.9249 20.6 25.9249 21.65ZM52.9999 21.65C52.9999 20.6 52.9999 19.55 52.9999 18.5C52.9999 18.05 52.7749 17.825 52.3249 17.825C51.7249 17.825 51.1999 17.825 50.5999 17.825C50.1499 17.825 49.9249 17.975 49.9249 18.425C49.9249 20.6 49.9249 22.7 49.9249 24.875C49.9249 25.325 50.1499 25.55 50.5999 25.475C51.1249 25.475 51.6499 25.475 52.2499 25.475C52.8499 25.475 52.9249 25.325 52.9249 24.725C52.9999 23.75 52.9999 22.7 52.9999 21.65Z" fill="#598A18"/>
<path d="M36.4249 36.95C36.4249 35.375 36.4249 33.875 36.4249 32.375C36.4249 31.55 36.4999 31.4 37.3999 31.4C43.7749 31.4 50.2249 31.4 56.5999 31.4C57.4249 31.4 57.4999 31.475 57.4999 32.3C57.4999 35.375 57.4999 38.375 57.4999 41.45C57.4999 41.75 57.5749 41.975 57.9499 42.05C58.9999 42.425 59.5249 43.25 59.5249 44.375C59.5249 48.725 59.5249 53.075 59.5249 57.5C59.5249 58.925 58.3999 59.975 56.9749 59.975C50.9749 59.975 44.9749 59.975 39.0499 59.975C38.1499 59.975 37.3249 59.6 36.8749 58.775C36.7249 58.475 36.4999 58.4 36.1999 58.4C31.4749 58.4 26.8249 58.4 22.0999 58.4C20.8999 58.4 20.8999 58.4 20.8999 57.2C20.8999 50.75 20.8999 44.225 20.8999 37.775C20.8999 36.875 20.9749 36.8 21.8749 36.8C26.5249 36.8 31.0999 36.8 35.7499 36.8C35.9749 36.95 36.1249 36.95 36.4249 36.95ZM51.1999 52.025C51.4249 52.025 51.4999 52.025 51.6499 52.025C53.4499 52.025 55.1749 52.025 56.9749 52.025C58.0249 52.025 58.4749 51.575 58.4749 50.525C58.4749 48.575 58.4749 46.7 58.4749 44.75C58.4749 43.55 57.8749 43.025 56.7499 43.025C50.8999 43.025 45.0499 43.025 39.1249 43.025C37.9249 43.025 37.3999 43.55 37.3999 44.75C37.3999 46.7 37.3999 48.575 37.3999 50.525C37.3999 51.575 37.8499 52.025 38.8999 52.025C40.7749 52.025 42.7249 52.025 44.5999 52.025C44.7499 52.025 44.8249 52.025 44.9749 51.95C44.9749 51.5 44.9749 51.05 44.9749 50.6C44.9749 50.225 45.1999 50 45.5749 50C47.2249 50 48.8749 50 50.5999 50C51.0499 50 51.1999 50.225 51.1999 50.675C51.1999 51.05 51.1999 51.5 51.1999 52.025ZM58.5499 52.85C57.8749 52.925 57.1999 53 56.5249 53C54.9499 53 53.3749 53 51.7999 53C51.6499 53 51.4249 53 51.2749 53C51.2749 53.525 51.2749 53.9 51.2749 54.35C51.2749 54.8 51.0499 55.025 50.5999 55.025C48.9499 55.025 47.2999 55.025 45.7249 55.025C45.2749 55.025 45.0499 54.8 45.0499 54.35C45.0499 53.9 45.0499 53.45 45.0499 53C44.7499 53 44.5249 53 44.2999 53C42.0499 52.925 39.7249 53.225 37.4749 52.775C37.4749 54.275 37.4749 55.85 37.4749 57.35C37.4749 58.475 38.0749 59.075 39.1999 59.075C45.0499 59.075 50.8999 59.075 56.8249 59.075C57.9499 59.075 58.5499 58.475 58.5499 57.35C58.5499 55.925 58.5499 54.575 58.5499 53.15C58.5499 53 58.5499 52.85 58.5499 52.85ZM26.3749 52.325C26.3749 50.9 26.3749 49.55 26.3749 48.2C24.8749 48.2 23.3749 48.2 21.9499 48.2C21.9499 49.625 21.9499 50.975 21.9499 52.325C23.4499 52.325 24.8749 52.325 26.3749 52.325ZM27.4249 43.025C27.4249 44.45 27.4249 45.8 27.4249 47.15C28.9249 47.15 30.4249 47.15 31.8499 47.15C31.8499 45.725 31.8499 44.375 31.8499 43.025C30.4249 43.025 28.9249 43.025 27.4249 43.025ZM26.3749 53.375C24.8749 53.375 23.3749 53.375 21.9499 53.375C21.9499 54.725 21.9499 56.075 21.9499 57.425C23.4499 57.425 24.9499 57.425 26.3749 57.425C26.3749 56.15 26.3749 54.8 26.3749 53.375ZM27.4249 57.5C28.9249 57.5 30.4249 57.5 31.9249 57.5C31.9249 56.15 31.9249 54.8 31.9249 53.45C30.4249 53.45 28.9249 53.45 27.4249 53.45C27.4249 54.8 27.4249 56.075 27.4249 57.5ZM56.5249 36.875C56.5249 35.375 56.5249 33.875 56.5249 32.45C55.1749 32.45 53.8999 32.45 52.5499 32.45C52.5499 33.95 52.5499 35.45 52.5499 36.875C53.8999 36.875 55.1749 36.875 56.5249 36.875ZM42.4999 36.875C43.8499 36.875 45.1249 36.875 46.4749 36.875C46.4749 35.375 46.4749 33.875 46.4749 32.45C45.1249 32.45 43.8499 32.45 42.4999 32.45C42.4999 33.95 42.4999 35.375 42.4999 36.875ZM27.4249 41.9C28.9249 41.9 30.4249 41.9 31.9249 41.9C31.9249 40.55 31.9249 39.275 31.9249 37.925C30.4249 37.925 28.9249 37.925 27.4249 37.925C27.4249 39.275 27.4249 40.55 27.4249 41.9ZM37.4749 32.45C37.4749 33.95 37.4749 35.45 37.4749 36.875C38.8249 36.875 40.0999 36.875 41.3749 36.875C41.3749 35.375 41.3749 33.875 41.3749 32.45C40.0999 32.45 38.8249 32.45 37.4749 32.45ZM21.9499 37.925C21.9499 39.275 21.9499 40.55 21.9499 41.9C23.4499 41.9 24.9499 41.9 26.3749 41.9C26.3749 40.55 26.3749 39.275 26.3749 37.925C24.8749 37.925 23.3749 37.925 21.9499 37.925ZM21.8749 47.15C23.3749 47.15 24.8749 47.15 26.3749 47.15C26.3749 45.725 26.3749 44.375 26.3749 43.025C24.8749 43.025 23.3749 43.025 21.8749 43.025C21.8749 44.375 21.8749 45.725 21.8749 47.15ZM31.8499 52.325C31.8499 50.9 31.8499 49.55 31.8499 48.2C30.3499 48.2 28.8499 48.2 27.4249 48.2C27.4249 49.625 27.4249 50.975 27.4249 52.325C28.9249 52.325 30.4249 52.325 31.8499 52.325ZM36.4249 47.15C36.4249 45.725 36.4249 44.375 36.4249 43.025C35.2249 43.025 34.0999 43.025 32.9749 43.025C32.9749 44.45 32.9749 45.8 32.9749 47.15C34.1749 47.15 35.2249 47.15 36.4249 47.15ZM32.9749 48.2C32.9749 49.625 32.9749 50.975 32.9749 52.325C34.1749 52.325 35.2999 52.325 36.4249 52.325C36.4249 50.9 36.4249 49.55 36.4249 48.2C35.2249 48.2 34.0999 48.2 32.9749 48.2ZM52.4749 38C52.4749 38.75 52.4749 39.425 52.4749 40.025C52.4749 40.1 52.5499 40.25 52.6249 40.325C53.1499 40.7 53.4499 41.15 53.5999 41.75C53.5999 41.825 53.7499 41.975 53.8249 41.975C54.7249 41.975 55.5499 41.975 56.4499 41.975C56.4499 40.625 56.4499 39.275 56.4499 38C55.1749 38 53.8999 38 52.4749 38ZM36.4249 53.375C35.2249 53.375 34.0999 53.375 32.9749 53.375C32.9749 54.725 32.9749 56.075 32.9749 57.425C34.1749 57.425 35.2999 57.425 36.4249 57.425C36.4249 56.075 36.4249 54.8 36.4249 53.375ZM32.9749 38C32.9749 39.35 32.9749 40.625 32.9749 41.975C34.1749 41.975 35.2999 41.975 36.4249 41.975C36.4249 40.625 36.4249 39.35 36.4249 38C35.2249 38 34.0999 38 32.9749 38ZM47.5249 36.875C48.8749 36.875 50.1499 36.875 51.4999 36.875C51.4999 35.375 51.4999 33.875 51.4999 32.375C50.1499 32.375 48.8749 32.375 47.5249 32.375C47.5249 33.95 47.5249 35.375 47.5249 36.875ZM41.4499 41.975C41.4499 40.625 41.4499 39.35 41.4499 38C40.0999 38 38.8249 38 37.4749 38C37.4749 39.35 37.4749 40.625 37.4749 41.975C38.8249 41.975 40.0999 41.975 41.4499 41.975ZM50.2249 51.05C48.7999 51.05 47.4499 51.05 46.0999 51.05C46.0999 52.025 46.0999 53 46.0999 53.975C47.5249 53.975 48.8749 53.975 50.2249 53.975C50.2249 53 50.2249 52.025 50.2249 51.05ZM42.4999 41.075C43.5499 39.5 45.1249 40.1 46.4749 39.875C46.4749 39.2 46.4749 38.6 46.4749 37.925C45.1249 37.925 43.8499 37.925 42.4999 37.925C42.4999 38.975 42.4999 39.95 42.4999 41.075ZM51.4999 39.95C51.4999 39.275 51.4999 38.675 51.4999 38C50.1499 38 48.8749 38 47.5249 38C47.5249 38.675 47.5249 39.275 47.5249 39.95C48.8749 39.95 50.1499 39.95 51.4999 39.95ZM51.4999 41C50.1499 41 48.8749 41 47.5249 41C47.5249 41.3 47.5249 41.6 47.5249 41.975C48.8749 41.975 50.1499 41.975 51.4999 41.975C51.4999 41.6 51.4999 41.3 51.4999 41ZM46.4749 41C45.7249 41 44.9749 40.925 44.2249 41C43.6249 41.075 43.3249 41.45 43.3249 41.9C44.3749 41.9 45.4249 41.9 46.4749 41.9C46.4749 41.6 46.4749 41.3 46.4749 41Z" fill="#598A18"/>
<path d="M23.8249 45.125C24.1999 44.75 24.5749 44.375 24.8749 44C25.0999 43.7 25.3999 43.55 25.6999 43.85C25.9999 44.15 25.8499 44.375 25.6249 44.675C25.0999 45.2 24.6499 45.725 24.1249 46.175C23.7499 46.55 23.4499 46.475 23.1499 46.025C23.0749 45.8 22.9249 45.65 22.8499 45.425C22.6999 45.125 22.6249 44.825 22.9999 44.675C23.2999 44.45 23.5249 44.6 23.7499 44.9C23.7499 44.975 23.7499 45.05 23.8249 45.125Z" fill="#598A18"/>
<path d="M29.3748 50.375C29.7498 50 30.1248 49.625 30.4248 49.25C30.6498 49.025 30.9498 48.8 31.2498 49.175C31.5498 49.475 31.3998 49.775 31.0998 50C30.5748 50.525 30.1248 50.975 29.5998 51.5C29.1498 51.875 28.8498 51.875 28.6248 51.35C28.5498 51.2 28.3998 50.975 28.3248 50.75C28.1748 50.45 28.1748 50.15 28.4748 50C28.7748 49.775 28.9998 50 29.2248 50.225C29.2998 50.225 29.2998 50.3 29.3748 50.375Z" fill="#598A18"/>
<path d="M49.1748 35.075C49.5498 34.7 49.9248 34.325 50.2998 33.95C50.5248 33.725 50.8248 33.575 51.1248 33.875C51.3498 34.175 51.2748 34.4 51.0498 34.625C50.5248 35.15 49.9998 35.675 49.4748 36.2C49.0998 36.575 48.7998 36.5 48.4998 36.05C48.4248 35.825 48.2748 35.675 48.1998 35.45C48.0498 35.15 47.9748 34.85 48.3498 34.7C48.6498 34.475 48.8748 34.625 49.0998 34.925C49.0998 34.925 49.0998 35 49.1748 35.075Z" fill="#598A18"/>
<path d="M39.0499 40.175C39.4999 39.725 39.7999 39.35 40.1749 38.975C40.3999 38.75 40.6999 38.675 40.9249 38.9C41.2249 39.125 41.1499 39.425 40.8499 39.65C40.3249 40.175 39.7999 40.775 39.1999 41.3C38.8999 41.6 38.5249 41.525 38.2999 41.15C38.1499 40.925 38.0749 40.7 37.9999 40.475C37.8499 40.175 37.8499 39.875 38.1499 39.725C38.4499 39.575 38.7499 39.65 38.8999 39.95C38.9749 40.025 38.9749 40.025 39.0499 40.175Z" fill="#598A18"/>
<path d="M48.0498 53C47.7498 53 47.3748 53 47.0748 53C46.7748 53 46.5498 52.85 46.5498 52.475C46.5498 52.175 46.7748 51.95 47.0748 51.95C47.7498 51.95 48.4998 51.95 49.1748 51.95C49.4748 51.95 49.6998 52.1 49.6248 52.3999C49.5498 52.6249 49.3248 52.85 49.1748 52.925C48.7998 53 48.4248 53 48.0498 53Z" fill="#598A18"/>
</g>
<defs>
<clipPath id="clip0_251_929">
<rect width="80" height="80" fill="white"/>
</clipPath>
</defs>
</svg>
