<svg width="24" height="29" viewBox="0 0 24 29" fill="none" xmlns="http://www.w3.org/2000/svg">
<path fill-rule="evenodd" clip-rule="evenodd" d="M5.93078 1.94567C9.53796 -0.149003 13.9718 -0.112392 17.5451 2.04157C21.0833 4.2394 23.2337 8.16188 23.2137 12.3814C23.1314 16.5732 20.8255 20.5135 17.9432 23.5595C16.2795 25.3256 14.4185 26.8872 12.3981 28.2125C12.19 28.3327 11.9621 28.4132 11.7255 28.45C11.4979 28.4403 11.2762 28.3731 11.0804 28.2544C7.99585 26.263 5.28972 23.7212 3.09224 20.751C1.25346 18.2717 0.20879 15.2764 0.1001 12.1718C0.0977106 7.9442 2.3236 4.04034 5.93078 1.94567ZM8.01538 13.9218C8.62216 15.4168 10.0544 16.392 11.6433 16.392C12.6843 16.3994 13.6849 15.9827 14.4223 15.2347C15.1597 14.4867 15.5725 13.4695 15.5688 12.4097C15.5744 10.7922 14.6215 9.33074 13.1551 8.7078C11.6887 8.08486 9.99802 8.4233 8.8725 9.56509C7.74697 10.7069 7.4086 12.4268 8.01538 13.9218Z" fill="#598A18"/>
</svg>
