<svg width="80" height="80" viewBox="0 0 80 80" fill="none" xmlns="http://www.w3.org/2000/svg">
<path fill-rule="evenodd" clip-rule="evenodd" d="M32.8596 25.8184C37.1034 23.3541 42.3196 23.3972 46.5236 25.9313C50.6861 28.517 53.2161 33.1316 53.1925 38.0957C53.0956 43.0273 50.3828 47.6629 46.9918 51.2465C45.0346 53.3242 42.8452 55.1614 40.4682 56.7205C40.2234 56.862 39.9553 56.9567 39.677 57C39.4092 56.9886 39.1483 56.9095 38.918 56.7699C35.2891 54.4271 32.1054 51.4367 29.5202 47.9424C27.3569 45.0256 26.1279 41.5017 26 37.8492C25.9972 32.8755 28.6159 28.2828 32.8596 25.8184ZM35.3124 39.908C36.0262 41.6668 37.7112 42.8141 39.5806 42.8141C40.8052 42.8229 41.9824 42.3326 42.8499 41.4526C43.7174 40.5726 44.2031 39.3758 44.1988 38.1291C44.2053 36.2261 43.0843 34.5067 41.3591 33.7739C39.6339 33.041 37.6449 33.4392 36.3207 34.7825C34.9966 36.1257 34.5985 38.1492 35.3124 39.908Z" fill="#598A18"/>
<circle cx="40" cy="40" r="38.5" stroke="#598A18" stroke-width="3"/>
</svg>
