<svg width="33" height="31" viewBox="0 0 33 31" fill="none" xmlns="http://www.w3.org/2000/svg">
<path d="M31.589 13.8246C31.2242 13.8246 30.8743 13.6922 30.6164 13.4566C30.3584 13.2209 30.2135 12.9013 30.2135 12.568C30.2106 9.90271 29.0503 7.34732 26.9872 5.46266C24.9242 3.578 22.1269 2.51803 19.2093 2.51537C18.8445 2.51537 18.4946 2.38298 18.2367 2.14733C17.9787 1.91167 17.8338 1.59206 17.8338 1.25879C17.8338 0.925526 17.9787 0.60591 18.2367 0.370255C18.4946 0.134601 18.8445 0.00221116 19.2093 0.00221116C22.8562 0.00586982 26.3526 1.33094 28.9313 3.68669C31.51 6.04245 32.9605 9.23648 32.9645 12.568C32.9645 12.9013 32.8196 13.2209 32.5616 13.4566C32.3037 13.6922 31.9538 13.8246 31.589 13.8246ZM27.4624 12.568C27.4624 10.5684 26.5929 8.65073 25.0452 7.2368C23.4974 5.82287 21.3982 5.02853 19.2093 5.02853C18.8445 5.02853 18.4946 5.16092 18.2367 5.39658C17.9787 5.63223 17.8338 5.95185 17.8338 6.28512C17.8338 6.61838 17.9787 6.938 18.2367 7.17365C18.4946 7.40931 18.8445 7.5417 19.2093 7.5417C20.6686 7.5417 22.068 8.07125 23.0999 9.01387C24.1317 9.95649 24.7114 11.235 24.7114 12.568C24.7114 12.9013 24.8563 13.2209 25.1143 13.4566C25.3722 13.6922 25.7221 13.8246 26.0869 13.8246C26.4517 13.8246 26.8016 13.6922 27.0596 13.4566C27.3175 13.2209 27.4624 12.9013 27.4624 12.568ZM30.4652 27.8531L31.7169 26.5349C32.5136 25.8048 32.961 24.8158 32.961 23.7849C32.961 22.7539 32.5136 21.765 31.7169 21.0349C31.6743 20.9959 28.3648 18.67 28.3648 18.67C27.5705 17.9793 26.5154 17.5947 25.4188 17.5961C24.3222 17.5975 23.2683 17.9848 22.4762 18.6775L19.8544 20.6956C17.7144 19.8865 15.7704 18.6991 14.134 17.2017C12.4977 15.7043 11.2013 13.9263 10.3193 11.9699L12.5202 9.58238C13.2791 8.85881 13.7035 7.8959 13.7053 6.89381C13.7071 5.89172 13.2861 4.92754 12.5298 4.2017C12.5298 4.2017 9.98096 1.18214 9.93832 1.14319C9.15352 0.421593 8.08946 0.0110349 6.97604 0.000219209C5.86262 -0.0105965 4.78924 0.379198 3.98782 1.08538L2.40598 2.34196C-6.9393 12.2463 13.1845 30.4881 24.384 30.1602C25.5149 30.1661 26.6357 29.9651 27.6802 29.5688C28.7246 29.1726 29.6716 28.5892 30.4652 27.8531Z" fill="#598A18"/>
</svg>
