<svg width="39" height="33" viewBox="0 0 39 33" fill="none" xmlns="http://www.w3.org/2000/svg">
<g clip-path="url(#clip0_6_1106)">
<path d="M38.9253 7.62006L25.246 19.1948C23.7207 20.4822 21.6543 21.2051 19.5 21.2051C17.3457 21.2051 15.2793 20.4822 13.754 19.1948L0.07475 7.62006C0.052 7.83731 0 8.03393 0 8.24981V24.7498C0.00258027 26.5725 0.859433 28.3199 2.38261 29.6088C3.90578 30.8976 5.97091 31.6226 8.125 31.6248H30.875C33.0291 31.6226 35.0942 30.8976 36.6174 29.6088C38.1406 28.3199 38.9974 26.5725 39 24.7498V8.24981C39 8.03393 38.948 7.83731 38.9253 7.62006Z" fill="#598A18"/>
<path d="M22.9482 17.2505L37.791 4.68988C37.072 3.68107 36.0578 2.84606 34.8464 2.26538C33.6351 1.68471 32.2673 1.37797 30.875 1.37476H8.12499C6.73272 1.37797 5.36492 1.68471 4.15353 2.26538C2.94213 2.84606 1.92801 3.68107 1.20898 4.68988L16.0517 17.2505C16.9675 18.0223 18.2074 18.4557 19.5 18.4557C20.7925 18.4557 22.0324 18.0223 22.9482 17.2505Z" fill="#598A18"/>
</g>
<defs>
<clipPath id="clip0_6_1106">
<rect width="39" height="33" fill="white"/>
</clipPath>
</defs>
</svg>
