<svg width="32" height="32" viewBox="0 0 32 32" fill="none" xmlns="http://www.w3.org/2000/svg">
<path opacity="0.4" d="M21.4335 2.66666H25.9481C27.8178 2.66666 29.3328 4.19446 29.3328 6.07994V10.6327C29.3328 12.5182 27.8178 14.046 25.9481 14.046H21.4335C19.5638 14.046 18.0488 12.5182 18.0488 10.6327V6.07994C18.0488 4.19446 19.5638 2.66666 21.4335 2.66666Z" fill="#F3F8FF"/>
<path fill-rule="evenodd" clip-rule="evenodd" d="M6.05071 2.66666H10.5653C12.435 2.66666 13.95 4.19446 13.95 6.07994V10.6327C13.95 12.5182 12.435 14.046 10.5653 14.046H6.05071C4.18102 14.046 2.66602 12.5182 2.66602 10.6327V6.07994C2.66602 4.19446 4.18102 2.66666 6.05071 2.66666ZM6.05071 17.954H10.5653C12.435 17.954 13.95 19.4818 13.95 21.3673V25.92C13.95 27.8042 12.435 29.3333 10.5653 29.3333H6.05071C4.18102 29.3333 2.66602 27.8042 2.66602 25.92V21.3673C2.66602 19.4818 4.18102 17.954 6.05071 17.954ZM25.948 17.954H21.4334C19.5637 17.954 18.0487 19.4818 18.0487 21.3673V25.92C18.0487 27.8042 19.5637 29.3333 21.4334 29.3333H25.948C27.8177 29.3333 29.3327 27.8042 29.3327 25.92V21.3673C29.3327 19.4818 27.8177 17.954 25.948 17.954Z" fill="#F3F8FF"/>
</svg>
