<svg width="32" height="32" viewBox="0 0 32 32" fill="none" xmlns="http://www.w3.org/2000/svg">
<path d="M0 15.7807C0 24.4961 7.16344 31.5613 16 31.5613C24.8366 31.5613 32 24.4961 32 15.7807C32 7.06524 24.8366 0 16 0C7.16344 0 0 7.06524 0 15.7807Z" fill="#598A18"/>
<path d="M16.0002 9.07392C18.2002 9.07392 18.5002 9.07392 19.4002 9.07392C20.2002 9.07392 20.6002 9.27118 20.9002 9.36981C21.3002 9.56707 21.6002 9.66569 21.9002 9.96158C22.2002 10.2575 22.4002 10.5534 22.5002 10.9479C22.6002 11.2438 22.7002 11.6383 22.8002 12.4273C22.8002 13.315 22.8002 13.5122 22.8002 15.7807C22.8002 18.0492 22.8002 18.2464 22.8002 19.1341C22.8002 19.9231 22.6002 20.3176 22.5002 20.6135C22.3002 21.008 22.2002 21.3039 21.9002 21.5998C21.6002 21.8957 21.3002 22.093 20.9002 22.1916C20.6002 22.2902 20.2002 22.3889 19.4002 22.4875C18.5002 22.4875 18.3002 22.4875 16.0002 22.4875C13.7002 22.4875 13.5002 22.4875 12.6002 22.4875C11.8002 22.4875 11.4002 22.2902 11.1002 22.1916C10.7002 21.9943 10.4002 21.8957 10.1002 21.5998C9.8002 21.3039 9.6002 21.008 9.5002 20.6135C9.4002 20.3176 9.3002 19.9231 9.2002 19.1341C9.2002 18.2464 9.2002 18.0492 9.2002 15.7807C9.2002 13.5122 9.2002 13.315 9.2002 12.4273C9.2002 11.6383 9.4002 11.2438 9.5002 10.9479C9.7002 10.5534 9.8002 10.2575 10.1002 9.96158C10.4002 9.66569 10.7002 9.46844 11.1002 9.36981C11.4002 9.27118 11.8002 9.17255 12.6002 9.07392C13.5002 9.07392 13.8002 9.07392 16.0002 9.07392ZM16.0002 7.59448C13.7002 7.59448 13.5002 7.59448 12.6002 7.59448C11.7002 7.59448 11.1002 7.79174 10.6002 7.989C10.1002 8.18626 9.6002 8.48215 9.1002 8.97529C8.6002 9.46844 8.4002 9.86295 8.1002 10.4547C7.9002 10.9479 7.8002 11.5396 7.7002 12.4273C7.7002 13.315 7.7002 13.6109 7.7002 15.7807C7.7002 18.0492 7.7002 18.2464 7.7002 19.1341C7.7002 20.0218 7.9002 20.6135 8.1002 21.1067C8.3002 21.5998 8.6002 22.093 9.1002 22.5861C9.6002 23.0793 10.0002 23.2765 10.6002 23.5724C11.1002 23.7697 11.7002 23.8683 12.6002 23.9669C13.5002 23.9669 13.8002 23.9669 16.0002 23.9669C18.2002 23.9669 18.5002 23.9669 19.4002 23.9669C20.3002 23.9669 20.9002 23.7697 21.4002 23.5724C21.9002 23.3751 22.4002 23.0793 22.9002 22.5861C23.4002 22.093 23.6002 21.6984 23.9002 21.1067C24.1002 20.6135 24.2002 20.0218 24.3002 19.1341C24.3002 18.2464 24.3002 17.9505 24.3002 15.7807C24.3002 13.6109 24.3002 13.315 24.3002 12.4273C24.3002 11.5396 24.1002 10.9479 23.9002 10.4547C23.7002 9.96158 23.4002 9.46844 22.9002 8.97529C22.4002 8.48215 22.0002 8.28489 21.4002 7.989C20.9002 7.79174 20.3002 7.69311 19.4002 7.59448C18.5002 7.59448 18.3002 7.59448 16.0002 7.59448Z" fill="white"/>
<path d="M16.0002 11.5396C13.6002 11.5396 11.7002 13.4136 11.7002 15.7807C11.7002 18.1478 13.6002 20.0218 16.0002 20.0218C18.4002 20.0218 20.3002 18.1478 20.3002 15.7807C20.3002 13.4136 18.4002 11.5396 16.0002 11.5396ZM16.0002 18.5423C14.5002 18.5423 13.2002 17.3588 13.2002 15.7807C13.2002 14.3013 14.4002 13.0191 16.0002 13.0191C17.5002 13.0191 18.8002 14.2026 18.8002 15.7807C18.8002 17.2601 17.5002 18.5423 16.0002 18.5423Z" fill="white"/>
<path d="M20.4002 12.4273C20.9525 12.4273 21.4002 11.9857 21.4002 11.441C21.4002 10.8963 20.9525 10.4547 20.4002 10.4547C19.8479 10.4547 19.4002 10.8963 19.4002 11.441C19.4002 11.9857 19.8479 12.4273 20.4002 12.4273Z" fill="white"/>
</svg>
