<svg width="1920" height="500" viewBox="0 0 1920 500" fill="none" xmlns="http://www.w3.org/2000/svg">
<rect width="1920" height="500" fill="#E6EBE9"/>
<path d="M413.758 273V229.6H419.896V263.08L445.564 229.6H451.268V273H445.192V239.582L419.462 273H413.758ZM473.417 273.434C470.937 273.434 468.498 273.124 466.101 272.504C463.745 271.843 461.637 270.913 459.777 269.714L461.575 265.188C463.146 266.18 464.944 266.965 466.969 267.544C468.994 268.081 471.04 268.35 473.107 268.35C475.008 268.35 476.641 268.123 478.005 267.668C479.41 267.213 480.485 266.593 481.229 265.808C481.973 264.981 482.345 264.031 482.345 262.956C482.345 261.427 481.663 260.249 480.299 259.422C478.935 258.595 477.034 258.182 474.595 258.182H468.643V253.904H474.223C475.67 253.904 476.93 253.739 478.005 253.408C479.08 253.077 479.906 252.581 480.485 251.92C481.105 251.217 481.415 250.411 481.415 249.502C481.415 248.51 481.064 247.663 480.361 246.96C479.658 246.257 478.666 245.72 477.385 245.348C476.145 244.976 474.678 244.79 472.983 244.79C471.33 244.831 469.635 245.059 467.899 245.472C466.204 245.885 464.468 246.526 462.691 247.394L461.079 242.744C463.063 241.793 465.006 241.07 466.907 240.574C468.85 240.037 470.772 239.747 472.673 239.706C475.525 239.623 478.067 239.954 480.299 240.698C482.531 241.401 484.288 242.434 485.569 243.798C486.892 245.162 487.553 246.774 487.553 248.634C487.553 250.205 487.057 251.61 486.065 252.85C485.073 254.049 483.75 254.999 482.097 255.702C480.444 256.405 478.542 256.756 476.393 256.756L476.641 255.33C480.32 255.33 483.213 256.053 485.321 257.5C487.429 258.947 488.483 260.91 488.483 263.39C488.483 265.374 487.822 267.131 486.499 268.66C485.176 270.148 483.378 271.326 481.105 272.194C478.873 273.021 476.31 273.434 473.417 273.434ZM514.954 273.372C512.226 273.372 509.725 272.752 507.452 271.512C505.22 270.231 503.422 268.35 502.058 265.87C500.735 263.39 500.074 260.29 500.074 256.57C500.074 252.85 500.714 249.75 501.996 247.27C503.318 244.79 505.096 242.93 507.328 241.69C509.601 240.45 512.143 239.83 514.954 239.83C518.178 239.83 521.03 240.533 523.51 241.938C525.99 243.343 527.953 245.307 529.4 247.828C530.846 250.308 531.57 253.222 531.57 256.57C531.57 259.918 530.846 262.853 529.4 265.374C527.953 267.895 525.99 269.859 523.51 271.264C521.03 272.669 518.178 273.372 514.954 273.372ZM497.532 285.028V240.14H503.236V249.006L502.864 256.632L503.484 264.258V285.028H497.532ZM514.458 268.164C516.566 268.164 518.446 267.689 520.1 266.738C521.794 265.787 523.117 264.444 524.068 262.708C525.06 260.931 525.556 258.885 525.556 256.57C525.556 254.214 525.06 252.189 524.068 250.494C523.117 248.758 521.794 247.415 520.1 246.464C518.446 245.513 516.566 245.038 514.458 245.038C512.391 245.038 510.51 245.513 508.816 246.464C507.162 247.415 505.84 248.758 504.848 250.494C503.897 252.189 503.422 254.214 503.422 256.57C503.422 258.885 503.897 260.931 504.848 262.708C505.84 264.444 507.162 265.787 508.816 266.738C510.51 267.689 512.391 268.164 514.458 268.164ZM560.064 273V266.056L559.754 264.754V252.912C559.754 250.391 559.01 248.448 557.522 247.084C556.076 245.679 553.885 244.976 550.95 244.976C549.008 244.976 547.106 245.307 545.246 245.968C543.386 246.588 541.816 247.435 540.534 248.51L538.054 244.046C539.749 242.682 541.774 241.649 544.13 240.946C546.528 240.202 549.028 239.83 551.632 239.83C556.138 239.83 559.61 240.925 562.048 243.116C564.487 245.307 565.706 248.655 565.706 253.16V273H560.064ZM549.276 273.372C546.838 273.372 544.688 272.959 542.828 272.132C541.01 271.305 539.604 270.169 538.612 268.722C537.62 267.234 537.124 265.56 537.124 263.7C537.124 261.923 537.538 260.311 538.364 258.864C539.232 257.417 540.617 256.26 542.518 255.392C544.461 254.524 547.065 254.09 550.33 254.09H560.746V258.368H550.578C547.602 258.368 545.598 258.864 544.564 259.856C543.531 260.848 543.014 262.047 543.014 263.452C543.014 265.064 543.655 266.366 544.936 267.358C546.218 268.309 547.995 268.784 550.268 268.784C552.5 268.784 554.443 268.288 556.096 267.296C557.791 266.304 559.01 264.857 559.754 262.956L560.932 267.048C560.147 268.991 558.762 270.541 556.778 271.698C554.794 272.814 552.294 273.372 549.276 273.372ZM591.614 273.496C588.886 273.496 586.468 273.062 584.36 272.194C582.294 271.326 580.516 270.045 579.028 268.35C577.54 266.614 576.404 264.444 575.618 261.84C574.874 259.195 574.502 256.095 574.502 252.54C574.502 249.729 574.75 247.208 575.246 244.976C575.742 242.744 576.445 240.76 577.354 239.024C578.305 237.288 579.462 235.779 580.826 234.498C582.232 233.217 583.802 232.163 585.538 231.336C587.316 230.468 589.258 229.807 591.366 229.352L606.37 226.004L607.238 231.522L593.412 234.498C592.586 234.663 591.594 234.911 590.436 235.242C589.279 235.573 588.101 236.089 586.902 236.792C585.704 237.453 584.588 238.383 583.554 239.582C582.521 240.781 581.694 242.351 581.074 244.294C580.454 246.195 580.144 248.551 580.144 251.362C580.144 252.147 580.165 252.747 580.206 253.16C580.248 253.573 580.289 253.987 580.33 254.4C580.413 254.813 580.475 255.433 580.516 256.26L578.036 253.718C578.698 251.445 579.752 249.461 581.198 247.766C582.645 246.071 584.381 244.769 586.406 243.86C588.473 242.909 590.726 242.434 593.164 242.434C596.223 242.434 598.93 243.095 601.286 244.418C603.684 245.741 605.564 247.559 606.928 249.874C608.292 252.189 608.974 254.834 608.974 257.81C608.974 260.827 608.251 263.535 606.804 265.932C605.399 268.288 603.394 270.148 600.79 271.512C598.186 272.835 595.128 273.496 591.614 273.496ZM592.172 268.536C594.28 268.536 596.14 268.081 597.752 267.172C599.364 266.221 600.625 264.961 601.534 263.39C602.444 261.778 602.898 259.98 602.898 257.996C602.898 256.012 602.444 254.255 601.534 252.726C600.625 251.197 599.364 249.998 597.752 249.13C596.14 248.221 594.239 247.766 592.048 247.766C589.982 247.766 588.122 248.2 586.468 249.068C584.815 249.895 583.534 251.073 582.624 252.602C581.715 254.09 581.26 255.826 581.26 257.81C581.26 259.794 581.715 261.613 582.624 263.266C583.575 264.878 584.856 266.159 586.468 267.11C588.122 268.061 590.023 268.536 592.172 268.536ZM631.549 273.372C628.242 273.372 625.308 272.649 622.745 271.202C620.182 269.755 618.157 267.771 616.669 265.25C615.181 262.687 614.437 259.794 614.437 256.57C614.437 253.305 615.181 250.411 616.669 247.89C618.157 245.369 620.182 243.405 622.745 242C625.308 240.553 628.242 239.83 631.549 239.83C634.814 239.83 637.728 240.553 640.291 242C642.895 243.405 644.92 245.369 646.367 247.89C647.855 250.37 648.599 253.263 648.599 256.57C648.599 259.835 647.855 262.729 646.367 265.25C644.92 267.771 642.895 269.755 640.291 271.202C637.728 272.649 634.814 273.372 631.549 273.372ZM631.549 268.164C633.657 268.164 635.538 267.689 637.191 266.738C638.886 265.787 640.208 264.444 641.159 262.708C642.11 260.931 642.585 258.885 642.585 256.57C642.585 254.214 642.11 252.189 641.159 250.494C640.208 248.758 638.886 247.415 637.191 246.464C635.538 245.513 633.657 245.038 631.549 245.038C629.441 245.038 627.56 245.513 625.907 246.464C624.254 247.415 622.931 248.758 621.939 250.494C620.947 252.189 620.451 254.214 620.451 256.57C620.451 258.885 620.947 260.931 621.939 262.708C622.931 264.444 624.254 265.787 625.907 266.738C627.56 267.689 629.441 268.164 631.549 268.164ZM662.493 273V243.798L663.981 245.348H650.465V240.14H680.473V245.348H667.019L668.445 243.798V273H662.493ZM710.367 273L697.657 257.004L702.555 254.028L717.373 273H710.367ZM686.559 273V240.14H692.511V273H686.559ZM690.713 259.112V254.028H701.563V259.112H690.713ZM703.051 257.252L697.533 256.508L710.119 240.14H716.505L703.051 257.252ZM743.158 273V266.056L742.848 264.754V252.912C742.848 250.391 742.104 248.448 740.616 247.084C739.17 245.679 736.979 244.976 734.044 244.976C732.102 244.976 730.2 245.307 728.34 245.968C726.48 246.588 724.91 247.435 723.628 248.51L721.148 244.046C722.843 242.682 724.868 241.649 727.224 240.946C729.622 240.202 732.122 239.83 734.726 239.83C739.232 239.83 742.704 240.925 745.142 243.116C747.581 245.307 748.8 248.655 748.8 253.16V273H743.158ZM732.37 273.372C729.932 273.372 727.782 272.959 725.922 272.132C724.104 271.305 722.698 270.169 721.706 268.722C720.714 267.234 720.218 265.56 720.218 263.7C720.218 261.923 720.632 260.311 721.458 258.864C722.326 257.417 723.711 256.26 725.612 255.392C727.555 254.524 730.159 254.09 733.424 254.09H743.84V258.368H733.672C730.696 258.368 728.692 258.864 727.658 259.856C726.625 260.848 726.108 262.047 726.108 263.452C726.108 265.064 726.749 266.366 728.03 267.358C729.312 268.309 731.089 268.784 733.362 268.784C735.594 268.784 737.537 268.288 739.19 267.296C740.885 266.304 742.104 264.857 742.848 262.956L744.026 267.048C743.241 268.991 741.856 270.541 739.872 271.698C737.888 272.814 735.388 273.372 732.37 273.372ZM776.168 273V240.14H782.12V254.09H800.844V240.14H806.796V273H800.844V259.236H782.12V273H776.168ZM838.52 273V266.056L838.21 264.754V252.912C838.21 250.391 837.466 248.448 835.978 247.084C834.531 245.679 832.34 244.976 829.406 244.976C827.463 244.976 825.562 245.307 823.702 245.968C821.842 246.588 820.271 247.435 818.99 248.51L816.51 244.046C818.204 242.682 820.23 241.649 822.586 240.946C824.983 240.202 827.484 239.83 830.088 239.83C834.593 239.83 838.065 240.925 840.504 243.116C842.942 245.307 844.162 248.655 844.162 253.16V273H838.52ZM827.732 273.372C825.293 273.372 823.144 272.959 821.284 272.132C819.465 271.305 818.06 270.169 817.068 268.722C816.076 267.234 815.58 265.56 815.58 263.7C815.58 261.923 815.993 260.311 816.82 258.864C817.688 257.417 819.072 256.26 820.974 255.392C822.916 254.524 825.52 254.09 828.786 254.09H839.202V258.368H829.034C826.058 258.368 824.053 258.864 823.02 259.856C821.986 260.848 821.47 262.047 821.47 263.452C821.47 265.064 822.11 266.366 823.392 267.358C824.673 268.309 826.45 268.784 828.724 268.784C830.956 268.784 832.898 268.288 834.552 267.296C836.246 266.304 837.466 264.857 838.21 262.956L839.388 267.048C838.602 268.991 837.218 270.541 835.234 271.698C833.25 272.814 830.749 273.372 827.732 273.372ZM888.952 273.372C886.224 273.372 883.723 272.752 881.45 271.512C879.218 270.231 877.42 268.35 876.056 265.87C874.733 263.39 874.072 260.29 874.072 256.57C874.072 252.85 874.712 249.75 875.994 247.27C877.316 244.79 879.094 242.93 881.326 241.69C883.599 240.45 886.141 239.83 888.952 239.83C892.176 239.83 895.028 240.533 897.508 241.938C899.988 243.343 901.951 245.307 903.398 247.828C904.844 250.308 905.568 253.222 905.568 256.57C905.568 259.918 904.844 262.853 903.398 265.374C901.951 267.895 899.988 269.859 897.508 271.264C895.028 272.669 892.176 273.372 888.952 273.372ZM871.53 285.028V240.14H877.234V249.006L876.862 256.632L877.482 264.258V285.028H871.53ZM888.456 268.164C890.564 268.164 892.444 267.689 894.098 266.738C895.792 265.787 897.115 264.444 898.066 262.708C899.058 260.931 899.554 258.885 899.554 256.57C899.554 254.214 899.058 252.189 898.066 250.494C897.115 248.758 895.792 247.415 894.098 246.464C892.444 245.513 890.564 245.038 888.456 245.038C886.389 245.038 884.508 245.513 882.814 246.464C881.16 247.415 879.838 248.758 878.846 250.494C877.895 252.189 877.42 254.214 877.42 256.57C877.42 258.885 877.895 260.931 878.846 262.708C879.838 264.444 881.16 265.787 882.814 266.738C884.508 267.689 886.389 268.164 888.456 268.164ZM934.062 273V266.056L933.752 264.754V252.912C933.752 250.391 933.008 248.448 931.52 247.084C930.074 245.679 927.883 244.976 924.948 244.976C923.006 244.976 921.104 245.307 919.244 245.968C917.384 246.588 915.814 247.435 914.532 248.51L912.052 244.046C913.747 242.682 915.772 241.649 918.128 240.946C920.526 240.202 923.026 239.83 925.63 239.83C930.136 239.83 933.608 240.925 936.046 243.116C938.485 245.307 939.704 248.655 939.704 253.16V273H934.062ZM923.274 273.372C920.836 273.372 918.686 272.959 916.826 272.132C915.008 271.305 913.602 270.169 912.61 268.722C911.618 267.234 911.122 265.56 911.122 263.7C911.122 261.923 911.536 260.311 912.362 258.864C913.23 257.417 914.615 256.26 916.516 255.392C918.459 254.524 921.063 254.09 924.328 254.09H934.744V258.368H924.576C921.6 258.368 919.596 258.864 918.562 259.856C917.529 260.848 917.012 262.047 917.012 263.452C917.012 265.064 917.653 266.366 918.934 267.358C920.216 268.309 921.993 268.784 924.266 268.784C926.498 268.784 928.441 268.288 930.094 267.296C931.789 266.304 933.008 264.857 933.752 262.956L934.93 267.048C934.145 268.991 932.76 270.541 930.776 271.698C928.792 272.814 926.292 273.372 923.274 273.372ZM965.612 273.496C962.884 273.496 960.466 273.062 958.358 272.194C956.292 271.326 954.514 270.045 953.026 268.35C951.538 266.614 950.402 264.444 949.616 261.84C948.872 259.195 948.5 256.095 948.5 252.54C948.5 249.729 948.748 247.208 949.244 244.976C949.74 242.744 950.443 240.76 951.352 239.024C952.303 237.288 953.46 235.779 954.824 234.498C956.23 233.217 957.8 232.163 959.536 231.336C961.314 230.468 963.256 229.807 965.364 229.352L980.368 226.004L981.236 231.522L967.41 234.498C966.584 234.663 965.592 234.911 964.434 235.242C963.277 235.573 962.099 236.089 960.9 236.792C959.702 237.453 958.586 238.383 957.552 239.582C956.519 240.781 955.692 242.351 955.072 244.294C954.452 246.195 954.142 248.551 954.142 251.362C954.142 252.147 954.163 252.747 954.204 253.16C954.246 253.573 954.287 253.987 954.328 254.4C954.411 254.813 954.473 255.433 954.514 256.26L952.034 253.718C952.696 251.445 953.75 249.461 955.196 247.766C956.643 246.071 958.379 244.769 960.404 243.86C962.471 242.909 964.724 242.434 967.162 242.434C970.221 242.434 972.928 243.095 975.284 244.418C977.682 245.741 979.562 247.559 980.926 249.874C982.29 252.189 982.972 254.834 982.972 257.81C982.972 260.827 982.249 263.535 980.802 265.932C979.397 268.288 977.392 270.148 974.788 271.512C972.184 272.835 969.126 273.496 965.612 273.496ZM966.17 268.536C968.278 268.536 970.138 268.081 971.75 267.172C973.362 266.221 974.623 264.961 975.532 263.39C976.442 261.778 976.896 259.98 976.896 257.996C976.896 256.012 976.442 254.255 975.532 252.726C974.623 251.197 973.362 249.998 971.75 249.13C970.138 248.221 968.237 247.766 966.046 247.766C963.98 247.766 962.12 248.2 960.466 249.068C958.813 249.895 957.532 251.073 956.622 252.602C955.713 254.09 955.258 255.826 955.258 257.81C955.258 259.794 955.713 261.613 956.622 263.266C957.573 264.878 958.854 266.159 960.466 267.11C962.12 268.061 964.021 268.536 966.17 268.536ZM1005.55 273.372C1002.24 273.372 999.306 272.649 996.743 271.202C994.18 269.755 992.155 267.771 990.667 265.25C989.179 262.687 988.435 259.794 988.435 256.57C988.435 253.305 989.179 250.411 990.667 247.89C992.155 245.369 994.18 243.405 996.743 242C999.306 240.553 1002.24 239.83 1005.55 239.83C1008.81 239.83 1011.73 240.553 1014.29 242C1016.89 243.405 1018.92 245.369 1020.37 247.89C1021.85 250.37 1022.6 253.263 1022.6 256.57C1022.6 259.835 1021.85 262.729 1020.37 265.25C1018.92 267.771 1016.89 269.755 1014.29 271.202C1011.73 272.649 1008.81 273.372 1005.55 273.372ZM1005.55 268.164C1007.66 268.164 1009.54 267.689 1011.19 266.738C1012.88 265.787 1014.21 264.444 1015.16 262.708C1016.11 260.931 1016.58 258.885 1016.58 256.57C1016.58 254.214 1016.11 252.189 1015.16 250.494C1014.21 248.758 1012.88 247.415 1011.19 246.464C1009.54 245.513 1007.66 245.038 1005.55 245.038C1003.44 245.038 1001.56 245.513 999.905 246.464C998.252 247.415 996.929 248.758 995.937 250.494C994.945 252.189 994.449 254.214 994.449 256.57C994.449 258.885 994.945 260.931 995.937 262.708C996.929 264.444 998.252 265.787 999.905 266.738C1001.56 267.689 1003.44 268.164 1005.55 268.164ZM1036.49 273V243.798L1037.98 245.348H1024.46V240.14H1054.47V245.348H1041.02L1042.44 243.798V273H1036.49ZM1060.56 273V240.14H1066.51V254.09H1085.23V240.14H1091.19V273H1085.23V259.236H1066.51V273H1060.56ZM1102.76 273V240.14H1108.71V264.072L1128.86 240.14H1134.25V273H1128.3V249.068L1108.21 273H1102.76ZM1186.27 273L1173.56 257.004L1178.45 254.028L1193.27 273H1186.27ZM1162.46 273V240.14H1168.41V273H1162.46ZM1166.61 259.112V254.028H1177.46V259.112H1166.61ZM1178.95 257.252L1173.43 256.508L1186.02 240.14H1192.4L1178.95 257.252ZM1219.06 273V266.056L1218.75 264.754V252.912C1218.75 250.391 1218 248.448 1216.51 247.084C1215.07 245.679 1212.88 244.976 1209.94 244.976C1208 244.976 1206.1 245.307 1204.24 245.968C1202.38 246.588 1200.81 247.435 1199.53 248.51L1197.05 244.046C1198.74 242.682 1200.77 241.649 1203.12 240.946C1205.52 240.202 1208.02 239.83 1210.62 239.83C1215.13 239.83 1218.6 240.925 1221.04 243.116C1223.48 245.307 1224.7 248.655 1224.7 253.16V273H1219.06ZM1208.27 273.372C1205.83 273.372 1203.68 272.959 1201.82 272.132C1200 271.305 1198.6 270.169 1197.6 268.722C1196.61 267.234 1196.12 265.56 1196.12 263.7C1196.12 261.923 1196.53 260.311 1197.36 258.864C1198.22 257.417 1199.61 256.26 1201.51 255.392C1203.45 254.524 1206.06 254.09 1209.32 254.09H1219.74V258.368H1209.57C1206.59 258.368 1204.59 258.864 1203.56 259.856C1202.52 260.848 1202.01 262.047 1202.01 263.452C1202.01 265.064 1202.65 266.366 1203.93 267.358C1205.21 268.309 1206.99 268.784 1209.26 268.784C1211.49 268.784 1213.44 268.288 1215.09 267.296C1216.78 266.304 1218 264.857 1218.75 262.956L1219.92 267.048C1219.14 268.991 1217.75 270.541 1215.77 271.698C1213.79 272.814 1211.29 273.372 1208.27 273.372ZM1229.96 272.938L1230.33 267.916C1230.62 267.957 1230.89 267.999 1231.14 268.04C1231.39 268.081 1231.61 268.102 1231.82 268.102C1233.14 268.102 1234.18 267.647 1234.92 266.738C1235.71 265.829 1236.28 264.63 1236.66 263.142C1237.03 261.613 1237.3 259.897 1237.46 257.996C1237.63 256.095 1237.75 254.193 1237.83 252.292L1238.39 240.14H1263.63V273H1257.67V243.612L1259.1 245.348H1242.24L1243.6 243.55L1243.17 252.664C1243.04 255.557 1242.82 258.265 1242.48 260.786C1242.15 263.307 1241.64 265.519 1240.93 267.42C1240.27 269.321 1239.34 270.809 1238.14 271.884C1236.99 272.959 1235.48 273.496 1233.62 273.496C1233.08 273.496 1232.5 273.434 1231.88 273.31C1231.3 273.227 1230.66 273.103 1229.96 272.938ZM1289.77 273.372C1286.25 273.372 1283.15 272.649 1280.47 271.202C1277.82 269.755 1275.76 267.771 1274.27 265.25C1272.82 262.729 1272.1 259.835 1272.1 256.57C1272.1 253.305 1272.8 250.411 1274.21 247.89C1275.65 245.369 1277.62 243.405 1280.1 242C1282.62 240.553 1285.45 239.83 1288.59 239.83C1291.77 239.83 1294.58 240.533 1297.02 241.938C1299.46 243.343 1301.36 245.327 1302.73 247.89C1304.13 250.411 1304.83 253.367 1304.83 256.756C1304.83 257.004 1304.81 257.293 1304.77 257.624C1304.77 257.955 1304.75 258.265 1304.71 258.554H1276.75V254.276H1301.61L1299.19 255.764C1299.23 253.656 1298.8 251.775 1297.89 250.122C1296.98 248.469 1295.72 247.187 1294.11 246.278C1292.54 245.327 1290.7 244.852 1288.59 244.852C1286.52 244.852 1284.68 245.327 1283.07 246.278C1281.46 247.187 1280.2 248.489 1279.29 250.184C1278.38 251.837 1277.93 253.739 1277.93 255.888V256.88C1277.93 259.071 1278.42 261.034 1279.41 262.77C1280.45 264.465 1281.87 265.787 1283.69 266.738C1285.51 267.689 1287.6 268.164 1289.95 268.164C1291.9 268.164 1293.65 267.833 1295.22 267.172C1296.84 266.511 1298.24 265.519 1299.44 264.196L1302.73 268.04C1301.24 269.776 1299.38 271.099 1297.15 272.008C1294.95 272.917 1292.5 273.372 1289.77 273.372ZM1314.07 273V240.14H1320.02V254.09H1338.74V240.14H1344.69V273H1338.74V259.236H1320.02V273H1314.07ZM1378.71 270.21V245.348H1364.45L1364.14 251.672C1364.06 253.739 1363.91 255.743 1363.71 257.686C1363.54 259.587 1363.25 261.344 1362.84 262.956C1362.47 264.568 1361.91 265.891 1361.17 266.924C1360.42 267.957 1359.43 268.598 1358.19 268.846L1352.3 267.792C1353.58 267.833 1354.61 267.42 1355.4 266.552C1356.19 265.643 1356.78 264.403 1357.2 262.832C1357.65 261.261 1357.98 259.484 1358.19 257.5C1358.4 255.475 1358.56 253.387 1358.69 251.238L1359.18 240.14H1384.66V270.21H1378.71ZM1351 280.626V267.792H1389.69V280.626H1384.11V273H1356.64V280.626H1351ZM1417.59 273V266.056L1417.28 264.754V252.912C1417.28 250.391 1416.54 248.448 1415.05 247.084C1413.6 245.679 1411.41 244.976 1408.48 244.976C1406.53 244.976 1404.63 245.307 1402.77 245.968C1400.91 246.588 1399.34 247.435 1398.06 248.51L1395.58 244.046C1397.27 242.682 1399.3 241.649 1401.66 240.946C1404.05 240.202 1406.55 239.83 1409.16 239.83C1413.66 239.83 1417.14 240.925 1419.57 243.116C1422.01 245.307 1423.23 248.655 1423.23 253.16V273H1417.59ZM1406.8 273.372C1404.36 273.372 1402.21 272.959 1400.35 272.132C1398.54 271.305 1397.13 270.169 1396.14 268.722C1395.15 267.234 1394.65 265.56 1394.65 263.7C1394.65 261.923 1395.06 260.311 1395.89 258.864C1396.76 257.417 1398.14 256.26 1400.04 255.392C1401.99 254.524 1404.59 254.09 1407.86 254.09H1418.27V258.368H1408.1C1405.13 258.368 1403.12 258.864 1402.09 259.856C1401.06 260.848 1400.54 262.047 1400.54 263.452C1400.54 265.064 1401.18 266.366 1402.46 267.358C1403.74 268.309 1405.52 268.784 1407.79 268.784C1410.03 268.784 1411.97 268.288 1413.62 267.296C1415.32 266.304 1416.54 264.857 1417.28 262.956L1418.46 267.048C1417.67 268.991 1416.29 270.541 1414.3 271.698C1412.32 272.814 1409.82 273.372 1406.8 273.372ZM1451.37 273.372C1448.64 273.372 1446.14 272.752 1443.87 271.512C1441.64 270.231 1439.84 268.35 1438.48 265.87C1437.15 263.39 1436.49 260.29 1436.49 256.57C1436.49 252.85 1437.13 249.75 1438.41 247.27C1439.74 244.79 1441.51 242.93 1443.75 241.69C1446.02 240.45 1448.56 239.83 1451.37 239.83C1454.6 239.83 1457.45 240.533 1459.93 241.938C1462.41 243.343 1464.37 245.307 1465.82 247.828C1467.26 250.308 1467.99 253.222 1467.99 256.57C1467.99 259.918 1467.26 262.853 1465.82 265.374C1464.37 267.895 1462.41 269.859 1459.93 271.264C1457.45 272.669 1454.6 273.372 1451.37 273.372ZM1433.95 285.028V240.14H1439.65V249.006L1439.28 256.632L1439.9 264.258V285.028H1433.95ZM1450.88 268.164C1452.98 268.164 1454.86 267.689 1456.52 266.738C1458.21 265.787 1459.53 264.444 1460.49 262.708C1461.48 260.931 1461.97 258.885 1461.97 256.57C1461.97 254.214 1461.48 252.189 1460.49 250.494C1459.53 248.758 1458.21 247.415 1456.52 246.464C1454.86 245.513 1452.98 245.038 1450.88 245.038C1448.81 245.038 1446.93 245.513 1445.23 246.464C1443.58 247.415 1442.26 248.758 1441.27 250.494C1440.31 252.189 1439.84 254.214 1439.84 256.57C1439.84 258.885 1440.31 260.931 1441.27 262.708C1442.26 264.444 1443.58 265.787 1445.23 266.738C1446.93 267.689 1448.81 268.164 1450.88 268.164ZM1476.64 273V240.14H1482.59V264.072L1502.74 240.14H1508.13V273H1502.18V249.068L1482.09 273H1476.64Z" fill="black"/>
</svg>
