<svg width="26" height="26" viewBox="0 0 26 26" fill="none" xmlns="http://www.w3.org/2000/svg">
<g clip-path="url(#clip0_251_1777)">
<path d="M17.8753 3.25C15.9903 3.25 14.1812 4.1275 13.0003 5.51417C11.8195 4.1275 10.0103 3.25 8.12533 3.25C4.78866 3.25 2.16699 5.87167 2.16699 9.20833C2.16699 13.3033 5.85033 16.64 11.4295 21.71L13.0003 23.1292L14.5712 21.6992C20.1503 16.64 23.8337 13.3033 23.8337 9.20833C23.8337 5.87167 21.212 3.25 17.8753 3.25ZM13.1087 20.0958L13.0003 20.2042L12.892 20.0958C7.73532 15.4267 4.33366 12.3392 4.33366 9.20833C4.33366 7.04167 5.95866 5.41667 8.12533 5.41667C9.79366 5.41667 11.4187 6.48917 11.9928 7.97333H14.0187C14.582 6.48917 16.207 5.41667 17.8753 5.41667C20.042 5.41667 21.667 7.04167 21.667 9.20833C21.667 12.3392 18.2653 15.4267 13.1087 20.0958Z" fill="white"/>
</g>
<defs>
<clipPath id="clip0_251_1777">
<rect width="26" height="26" fill="white"/>
</clipPath>
</defs>
</svg>
