<svg width="26" height="26" viewBox="0 0 26 26" fill="none" xmlns="http://www.w3.org/2000/svg">
<g clip-path="url(#clip0_251_1776)">
<path d="M12.9997 6.50001C14.1913 6.50001 15.1663 7.47501 15.1663 8.66668C15.1663 9.85834 14.1913 10.8333 12.9997 10.8333C11.808 10.8333 10.833 9.85834 10.833 8.66668C10.833 7.47501 11.808 6.50001 12.9997 6.50001ZM12.9997 17.3333C15.9247 17.3333 19.283 18.7308 19.4997 19.5H6.49967C6.74884 18.72 10.0855 17.3333 12.9997 17.3333ZM12.9997 4.33334C10.6055 4.33334 8.66634 6.27251 8.66634 8.66668C8.66634 11.0608 10.6055 13 12.9997 13C15.3938 13 17.333 11.0608 17.333 8.66668C17.333 6.27251 15.3938 4.33334 12.9997 4.33334ZM12.9997 15.1667C10.1072 15.1667 4.33301 16.6183 4.33301 19.5V21.6667H21.6663V19.5C21.6663 16.6183 15.8922 15.1667 12.9997 15.1667Z" fill="white"/>
</g>
<defs>
<clipPath id="clip0_251_1776">
<rect width="26" height="26" fill="white"/>
</clipPath>
</defs>
</svg>
