<svg width="1920" height="460" viewBox="0 0 1920 460" fill="none" xmlns="http://www.w3.org/2000/svg">
<rect width="1920" height="460" fill="#E6EBE9"/>
<path d="M603.758 230V186.6H609.896V220.08L635.564 186.6H641.268V230H635.192V196.582L609.462 230H603.758ZM671.601 212.888C676.003 214.004 678.483 216.67 678.483 220.452C678.483 226.404 671.911 230.434 663.169 230.434C658.271 230.434 653.435 229.07 649.777 226.714L651.575 222.188C654.737 224.234 659.077 225.35 663.107 225.35C668.687 225.35 672.345 223.304 672.345 219.956C672.345 216.918 669.493 215.182 664.657 215.182H658.643V210.904H664.223C668.625 210.904 671.415 209.292 671.415 206.502C671.415 203.526 668.067 201.79 663.045 201.79C659.697 201.79 656.287 202.658 652.691 204.332L651.079 199.744C655.357 197.574 659.449 196.706 663.665 196.706C671.663 196.706 677.553 200.302 677.553 205.634C677.553 208.92 675.197 211.586 671.601 212.888ZM704.954 196.83C714.564 196.83 721.57 203.526 721.57 213.57C721.57 223.676 714.564 230.372 704.954 230.372C700.304 230.372 696.212 228.574 693.484 225.04V242.028H687.532V197.14H693.236V202.348C695.902 198.69 700.118 196.83 704.954 196.83ZM704.458 225.164C710.782 225.164 715.556 220.576 715.556 213.57C715.556 206.626 710.782 202.038 704.458 202.038C698.196 202.038 693.422 206.626 693.422 213.57C693.422 220.576 698.196 225.164 704.458 225.164ZM741.632 196.83C750.622 196.83 755.706 201.17 755.706 210.16V230H750.064V225.66C748.08 228.636 744.422 230.372 739.276 230.372C731.836 230.372 727.124 226.404 727.124 220.7C727.124 215.43 730.534 211.09 740.33 211.09H749.754V209.912C749.754 204.89 746.84 201.976 740.95 201.976C737.044 201.976 733.076 203.34 730.534 205.51L728.054 201.046C731.464 198.318 736.362 196.83 741.632 196.83ZM740.268 225.784C744.732 225.784 748.266 223.738 749.754 219.956V215.368H740.578C734.688 215.368 733.014 217.662 733.014 220.452C733.014 223.738 735.742 225.784 740.268 225.784ZM783.164 198.256C792.464 198.256 798.974 204.828 798.974 214.252C798.974 223.924 792.03 230.496 781.986 230.496C770.764 230.496 764.502 222.436 764.502 208.61C764.502 195.032 770.02 187.654 781.366 185.174L796.37 181.826L797.238 187.282L783.412 190.258C774.856 192.118 770.826 196.334 770.206 204.89C772.996 200.674 777.646 198.256 783.164 198.256ZM782.11 225.536C788.496 225.536 792.898 220.948 792.898 214.438C792.898 207.928 788.558 203.588 782.11 203.588C775.662 203.588 771.26 207.928 771.26 214.438C771.26 220.948 775.786 225.536 782.11 225.536ZM821.549 230.372C811.691 230.372 804.437 223.366 804.437 213.57C804.437 203.774 811.691 196.83 821.549 196.83C831.407 196.83 838.599 203.774 838.599 213.57C838.599 223.366 831.407 230.372 821.549 230.372ZM821.549 225.164C827.873 225.164 832.585 220.576 832.585 213.57C832.585 206.564 827.873 202.038 821.549 202.038C815.225 202.038 810.451 206.564 810.451 213.57C810.451 220.576 815.225 225.164 821.549 225.164ZM870.473 197.14V202.348H858.445V230H852.493V202.348H840.465V197.14H870.473ZM900.367 230L889.331 216.112H882.511V230H876.559V197.14H882.511V211.028H889.455L900.119 197.14H906.505L894.043 212.95L907.373 230H900.367ZM924.726 196.83C933.716 196.83 938.8 201.17 938.8 210.16V230H933.158V225.66C931.174 228.636 927.516 230.372 922.37 230.372C914.93 230.372 910.218 226.404 910.218 220.7C910.218 215.43 913.628 211.09 923.424 211.09H932.848V209.912C932.848 204.89 929.934 201.976 924.044 201.976C920.138 201.976 916.17 203.34 913.628 205.51L911.148 201.046C914.558 198.318 919.456 196.83 924.726 196.83ZM923.362 225.784C927.826 225.784 931.36 223.738 932.848 219.956V215.368H923.672C917.782 215.368 916.108 217.662 916.108 220.452C916.108 223.738 918.836 225.784 923.362 225.784ZM966.168 230V197.14H972.12V211.09H990.844V197.14H996.796V230H990.844V216.236H972.12V230H966.168ZM1020.09 196.83C1029.08 196.83 1034.16 201.17 1034.16 210.16V230H1028.52V225.66C1026.54 228.636 1022.88 230.372 1017.73 230.372C1010.29 230.372 1005.58 226.404 1005.58 220.7C1005.58 215.43 1008.99 211.09 1018.79 211.09H1028.21V209.912C1028.21 204.89 1025.3 201.976 1019.41 201.976C1015.5 201.976 1011.53 203.34 1008.99 205.51L1006.51 201.046C1009.92 198.318 1014.82 196.83 1020.09 196.83ZM1018.72 225.784C1023.19 225.784 1026.72 223.738 1028.21 219.956V215.368H1019.03C1013.14 215.368 1011.47 217.662 1011.47 220.452C1011.47 223.738 1014.2 225.784 1018.72 225.784ZM1083.91 212.95C1088.25 214.066 1090.3 216.794 1090.3 220.948C1090.3 226.652 1086.08 230 1077.34 230H1061.53V197.14H1076.78C1084.53 197.14 1089.18 200.178 1089.18 205.572C1089.18 209.106 1087.2 211.648 1083.91 212.95ZM1067.36 201.728V211.276H1076.29C1080.81 211.276 1083.23 209.602 1083.23 206.44C1083.23 203.278 1080.81 201.728 1076.29 201.728H1067.36ZM1076.91 225.412C1081.8 225.412 1084.35 223.924 1084.35 220.576C1084.35 217.166 1082.18 215.554 1077.28 215.554H1067.36V225.412H1076.91ZM1099.61 230V197.14H1105.57V221.072L1125.72 197.14H1131.11V230H1125.16V206.068L1105.07 230H1099.61ZM1159.91 212.888C1164.31 214.004 1166.79 216.67 1166.79 220.452C1166.79 226.404 1160.22 230.434 1151.48 230.434C1146.58 230.434 1141.75 229.07 1138.09 226.714L1139.89 222.188C1143.05 224.234 1147.39 225.35 1151.42 225.35C1157 225.35 1160.66 223.304 1160.66 219.956C1160.66 216.918 1157.8 215.182 1152.97 215.182H1146.95V210.904H1152.53C1156.94 210.904 1159.73 209.292 1159.73 206.502C1159.73 203.526 1156.38 201.79 1151.36 201.79C1148.01 201.79 1144.6 202.658 1141 204.332L1139.39 199.744C1143.67 197.574 1147.76 196.706 1151.98 196.706C1159.97 196.706 1165.86 200.302 1165.86 205.634C1165.86 208.92 1163.51 211.586 1159.91 212.888ZM1175.84 230V197.14H1181.79V221.072L1201.94 197.14H1207.34V230H1201.39V206.068L1181.3 230H1175.84ZM1243.38 197.14V202.348H1231.35V230H1225.4V202.348H1213.37V197.14H1243.38ZM1273.28 230L1262.24 216.112H1255.42V230H1249.47V197.14H1255.42V211.028H1262.36L1273.03 197.14H1279.41L1266.95 212.95L1280.28 230H1273.28ZM1286.52 230V197.14H1292.47V221.072L1312.62 197.14H1318.02V230H1312.07V206.068L1291.98 230H1286.52Z" fill="black"/>
<path d="M760.5 264H1160.5" stroke="#598A18" stroke-width="3" stroke-linecap="round"/>
</svg>
