<svg width="24" height="24" viewBox="0 0 24 24" fill="none" xmlns="http://www.w3.org/2000/svg">
<path fill-rule="evenodd" clip-rule="evenodd" d="M16.8258 8.14294H7.17262C6.63974 8.14294 6.20776 8.62244 6.20776 9.21393V17.7857C6.20776 19.5609 7.50422 21 9.10348 21H14.8949C15.6629 21 16.3995 20.6613 16.9425 20.0585C17.4856 19.4557 17.7906 18.6382 17.7906 17.7857V9.21393C17.7906 8.62244 17.3587 8.14294 16.8258 8.14294Z" stroke="#D20B0B" stroke-width="1.5" stroke-linecap="round" stroke-linejoin="round"/>
<path fill-rule="evenodd" clip-rule="evenodd" d="M15.4759 5.57151L15.3531 5.30023C14.7182 3.89052 13.4203 3 12.0004 3C10.5806 3 9.2826 3.89052 8.64774 5.30023L8.52612 5.57151H15.4759Z" stroke="#D20B0B" stroke-width="1.5" stroke-linecap="round" stroke-linejoin="round"/>
<path d="M10.8163 12.4281C10.8163 12.0139 10.4805 11.6781 10.0663 11.6781C9.6521 11.6781 9.31631 12.0139 9.31631 12.4281H10.8163ZM9.31631 16.7134C9.31631 17.1276 9.6521 17.4634 10.0663 17.4634C10.4805 17.4634 10.8163 17.1276 10.8163 16.7134H9.31631ZM14.6821 12.4281C14.6821 12.0139 14.3463 11.6781 13.9321 11.6781C13.5179 11.6781 13.1821 12.0139 13.1821 12.4281H14.6821ZM13.1821 16.7134C13.1821 17.1276 13.5179 17.4634 13.9321 17.4634C14.3463 17.4634 14.6821 17.1276 14.6821 16.7134H13.1821ZM15.4759 4.82153C15.0617 4.82153 14.7259 5.15732 14.7259 5.57153C14.7259 5.98575 15.0617 6.32153 15.4759 6.32153V4.82153ZM17.7925 6.32153C18.2067 6.32153 18.5425 5.98575 18.5425 5.57153C18.5425 5.15732 18.2067 4.82153 17.7925 4.82153V6.32153ZM8.52434 6.32153C8.93855 6.32153 9.27434 5.98575 9.27434 5.57153C9.27434 5.15732 8.93855 4.82153 8.52434 4.82153V6.32153ZM6.20776 4.82153C5.79355 4.82153 5.45776 5.15732 5.45776 5.57153C5.45776 5.98575 5.79355 6.32153 6.20776 6.32153V4.82153ZM9.31631 12.4281V16.7134H10.8163V12.4281H9.31631ZM13.1821 12.4281V16.7134H14.6821V12.4281H13.1821ZM15.4759 6.32153H17.7925V4.82153H15.4759V6.32153ZM8.52434 4.82153H6.20776V6.32153H8.52434V4.82153Z" fill="#D20B0B"/>
</svg>
